%TF.GenerationSoftware,KiCad,Pcbnew,(5.1.10)-1*%
%TF.CreationDate,2022-04-18T16:41:03+02:00*%
%TF.ProjectId,ULN2803-Mosfet-S2-Mini,554c4e32-3830-4332-9d4d-6f736665742d,rev?*%
%TF.SameCoordinates,Original*%
%TF.FileFunction,Legend,Top*%
%TF.FilePolarity,Positive*%
%FSLAX46Y46*%
G04 Gerber Fmt 4.6, Leading zero omitted, Abs format (unit mm)*
G04 Created by KiCad (PCBNEW (5.1.10)-1) date 2022-04-18 16:41:03*
%MOMM*%
%LPD*%
G01*
G04 APERTURE LIST*
%ADD10C,0.150000*%
%ADD11C,0.120000*%
%ADD12C,0.127000*%
%ADD13C,0.066040*%
G04 APERTURE END LIST*
D10*
X59077809Y-72969428D02*
X59411142Y-72969428D01*
X59411142Y-72445619D02*
X59411142Y-73445619D01*
X58934952Y-73445619D01*
X58125428Y-72445619D02*
X58125428Y-72969428D01*
X58173047Y-73064666D01*
X58268285Y-73112285D01*
X58458761Y-73112285D01*
X58554000Y-73064666D01*
X58125428Y-72493238D02*
X58220666Y-72445619D01*
X58458761Y-72445619D01*
X58554000Y-72493238D01*
X58601619Y-72588476D01*
X58601619Y-72683714D01*
X58554000Y-72778952D01*
X58458761Y-72826571D01*
X58220666Y-72826571D01*
X58125428Y-72874190D01*
X57649238Y-72445619D02*
X57649238Y-73445619D01*
X57649238Y-73064666D02*
X57554000Y-73112285D01*
X57363523Y-73112285D01*
X57268285Y-73064666D01*
X57220666Y-73017047D01*
X57173047Y-72921809D01*
X57173047Y-72636095D01*
X57220666Y-72540857D01*
X57268285Y-72493238D01*
X57363523Y-72445619D01*
X57554000Y-72445619D01*
X57649238Y-72493238D01*
X56601619Y-72445619D02*
X56696857Y-72493238D01*
X56744476Y-72588476D01*
X56744476Y-73445619D01*
X55792095Y-72445619D02*
X55792095Y-72969428D01*
X55839714Y-73064666D01*
X55934952Y-73112285D01*
X56125428Y-73112285D01*
X56220666Y-73064666D01*
X55792095Y-72493238D02*
X55887333Y-72445619D01*
X56125428Y-72445619D01*
X56220666Y-72493238D01*
X56268285Y-72588476D01*
X56268285Y-72683714D01*
X56220666Y-72778952D01*
X56125428Y-72826571D01*
X55887333Y-72826571D01*
X55792095Y-72874190D01*
X55315904Y-72445619D02*
X55315904Y-73445619D01*
X55315904Y-73064666D02*
X55220666Y-73112285D01*
X55030190Y-73112285D01*
X54934952Y-73064666D01*
X54887333Y-73017047D01*
X54839714Y-72921809D01*
X54839714Y-72636095D01*
X54887333Y-72540857D01*
X54934952Y-72493238D01*
X55030190Y-72445619D01*
X55220666Y-72445619D01*
X55315904Y-72493238D01*
X53077809Y-72445619D02*
X53411142Y-72921809D01*
X53649238Y-72445619D02*
X53649238Y-73445619D01*
X53268285Y-73445619D01*
X53173047Y-73398000D01*
X53125428Y-73350380D01*
X53077809Y-73255142D01*
X53077809Y-73112285D01*
X53125428Y-73017047D01*
X53173047Y-72969428D01*
X53268285Y-72921809D01*
X53649238Y-72921809D01*
X52506380Y-72445619D02*
X52601619Y-72493238D01*
X52649238Y-72540857D01*
X52696857Y-72636095D01*
X52696857Y-72921809D01*
X52649238Y-73017047D01*
X52601619Y-73064666D01*
X52506380Y-73112285D01*
X52363523Y-73112285D01*
X52268285Y-73064666D01*
X52220666Y-73017047D01*
X52173047Y-72921809D01*
X52173047Y-72636095D01*
X52220666Y-72540857D01*
X52268285Y-72493238D01*
X52363523Y-72445619D01*
X52506380Y-72445619D01*
X51744476Y-72445619D02*
X51744476Y-73112285D01*
X51744476Y-73017047D02*
X51696857Y-73064666D01*
X51601619Y-73112285D01*
X51458761Y-73112285D01*
X51363523Y-73064666D01*
X51315904Y-72969428D01*
X51315904Y-72445619D01*
X51315904Y-72969428D02*
X51268285Y-73064666D01*
X51173047Y-73112285D01*
X51030190Y-73112285D01*
X50934952Y-73064666D01*
X50887333Y-72969428D01*
X50887333Y-72445619D01*
X49982571Y-72445619D02*
X49982571Y-72969428D01*
X50030190Y-73064666D01*
X50125428Y-73112285D01*
X50315904Y-73112285D01*
X50411142Y-73064666D01*
X49982571Y-72493238D02*
X50077809Y-72445619D01*
X50315904Y-72445619D01*
X50411142Y-72493238D01*
X50458761Y-72588476D01*
X50458761Y-72683714D01*
X50411142Y-72778952D01*
X50315904Y-72826571D01*
X50077809Y-72826571D01*
X49982571Y-72874190D01*
X49077809Y-73112285D02*
X49077809Y-72302761D01*
X49125428Y-72207523D01*
X49173047Y-72159904D01*
X49268285Y-72112285D01*
X49411142Y-72112285D01*
X49506380Y-72159904D01*
X49077809Y-72493238D02*
X49173047Y-72445619D01*
X49363523Y-72445619D01*
X49458761Y-72493238D01*
X49506380Y-72540857D01*
X49554000Y-72636095D01*
X49554000Y-72921809D01*
X49506380Y-73017047D01*
X49458761Y-73064666D01*
X49363523Y-73112285D01*
X49173047Y-73112285D01*
X49077809Y-73064666D01*
X48601619Y-73112285D02*
X48601619Y-72445619D01*
X48601619Y-73017047D02*
X48554000Y-73064666D01*
X48458761Y-73112285D01*
X48315904Y-73112285D01*
X48220666Y-73064666D01*
X48173047Y-72969428D01*
X48173047Y-72445619D01*
X47268285Y-72445619D02*
X47268285Y-72969428D01*
X47315904Y-73064666D01*
X47411142Y-73112285D01*
X47601619Y-73112285D01*
X47696857Y-73064666D01*
X47268285Y-72493238D02*
X47363523Y-72445619D01*
X47601619Y-72445619D01*
X47696857Y-72493238D01*
X47744476Y-72588476D01*
X47744476Y-72683714D01*
X47696857Y-72778952D01*
X47601619Y-72826571D01*
X47363523Y-72826571D01*
X47268285Y-72874190D01*
X46077809Y-73350380D02*
X46030190Y-73398000D01*
X45934952Y-73445619D01*
X45696857Y-73445619D01*
X45601619Y-73398000D01*
X45554000Y-73350380D01*
X45506380Y-73255142D01*
X45506380Y-73159904D01*
X45554000Y-73017047D01*
X46125428Y-72445619D01*
X45506380Y-72445619D01*
X44887333Y-73445619D02*
X44792095Y-73445619D01*
X44696857Y-73398000D01*
X44649238Y-73350380D01*
X44601619Y-73255142D01*
X44554000Y-73064666D01*
X44554000Y-72826571D01*
X44601619Y-72636095D01*
X44649238Y-72540857D01*
X44696857Y-72493238D01*
X44792095Y-72445619D01*
X44887333Y-72445619D01*
X44982571Y-72493238D01*
X45030190Y-72540857D01*
X45077809Y-72636095D01*
X45125428Y-72826571D01*
X45125428Y-73064666D01*
X45077809Y-73255142D01*
X45030190Y-73350380D01*
X44982571Y-73398000D01*
X44887333Y-73445619D01*
X44173047Y-73350380D02*
X44125428Y-73398000D01*
X44030190Y-73445619D01*
X43792095Y-73445619D01*
X43696857Y-73398000D01*
X43649238Y-73350380D01*
X43601619Y-73255142D01*
X43601619Y-73159904D01*
X43649238Y-73017047D01*
X44220666Y-72445619D01*
X43601619Y-72445619D01*
X43220666Y-73350380D02*
X43173047Y-73398000D01*
X43077809Y-73445619D01*
X42839714Y-73445619D01*
X42744476Y-73398000D01*
X42696857Y-73350380D01*
X42649238Y-73255142D01*
X42649238Y-73159904D01*
X42696857Y-73017047D01*
X43268285Y-72445619D01*
X42649238Y-72445619D01*
X41028380Y-72445619D02*
X41028380Y-73445619D01*
X40790285Y-73445619D01*
X40647428Y-73398000D01*
X40552190Y-73302761D01*
X40504571Y-73207523D01*
X40456952Y-73017047D01*
X40456952Y-72874190D01*
X40504571Y-72683714D01*
X40552190Y-72588476D01*
X40647428Y-72493238D01*
X40790285Y-72445619D01*
X41028380Y-72445619D01*
X40028380Y-72445619D02*
X40028380Y-73112285D01*
X40028380Y-72921809D02*
X39980761Y-73017047D01*
X39933142Y-73064666D01*
X39837904Y-73112285D01*
X39742666Y-73112285D01*
X38980761Y-72445619D02*
X38980761Y-72969428D01*
X39028380Y-73064666D01*
X39123619Y-73112285D01*
X39314095Y-73112285D01*
X39409333Y-73064666D01*
X38980761Y-72493238D02*
X39076000Y-72445619D01*
X39314095Y-72445619D01*
X39409333Y-72493238D01*
X39456952Y-72588476D01*
X39456952Y-72683714D01*
X39409333Y-72778952D01*
X39314095Y-72826571D01*
X39076000Y-72826571D01*
X38980761Y-72874190D01*
X38599809Y-73112285D02*
X38409333Y-72445619D01*
X38218857Y-72921809D01*
X38028380Y-72445619D01*
X37837904Y-73112285D01*
X37456952Y-72969428D02*
X37123619Y-72969428D01*
X36980761Y-72445619D02*
X37456952Y-72445619D01*
X37456952Y-73445619D01*
X36980761Y-73445619D01*
X35980761Y-72445619D02*
X36314095Y-72921809D01*
X36552190Y-72445619D02*
X36552190Y-73445619D01*
X36171238Y-73445619D01*
X36076000Y-73398000D01*
X36028380Y-73350380D01*
X35980761Y-73255142D01*
X35980761Y-73112285D01*
X36028380Y-73017047D01*
X36076000Y-72969428D01*
X36171238Y-72921809D01*
X36552190Y-72921809D01*
X34885523Y-73112285D02*
X34647428Y-72445619D01*
X34409333Y-73112285D01*
X33504571Y-72445619D02*
X34076000Y-72445619D01*
X33790285Y-72445619D02*
X33790285Y-73445619D01*
X33885523Y-73302761D01*
X33980761Y-73207523D01*
X34076000Y-73159904D01*
X33076000Y-72540857D02*
X33028380Y-72493238D01*
X33076000Y-72445619D01*
X33123619Y-72493238D01*
X33076000Y-72540857D01*
X33076000Y-72445619D01*
X32409333Y-73445619D02*
X32314095Y-73445619D01*
X32218857Y-73398000D01*
X32171238Y-73350380D01*
X32123619Y-73255142D01*
X32076000Y-73064666D01*
X32076000Y-72826571D01*
X32123619Y-72636095D01*
X32171238Y-72540857D01*
X32218857Y-72493238D01*
X32314095Y-72445619D01*
X32409333Y-72445619D01*
X32504571Y-72493238D01*
X32552190Y-72540857D01*
X32599809Y-72636095D01*
X32647428Y-72826571D01*
X32647428Y-73064666D01*
X32599809Y-73255142D01*
X32552190Y-73350380D01*
X32504571Y-73398000D01*
X32409333Y-73445619D01*
D11*
%TO.C,U1*%
X57380000Y-75480000D02*
X34060000Y-75480000D01*
X59920000Y-82380000D02*
X59920000Y-107810000D01*
X34060000Y-75480000D02*
X34060000Y-107810000D01*
X36180000Y-109940000D02*
X57790000Y-109940000D01*
D10*
G36*
X60960000Y-102235000D02*
G01*
X60960000Y-100965000D01*
X60325000Y-101600000D01*
X60960000Y-102235000D01*
G37*
X60960000Y-102235000D02*
X60960000Y-100965000D01*
X60325000Y-101600000D01*
X60960000Y-102235000D01*
D11*
X59920000Y-82380000D02*
X57380000Y-82380000D01*
X57380000Y-82380000D02*
X57380000Y-75480000D01*
X36190000Y-109940000D02*
G75*
G02*
X34060000Y-107810000I0J2130000D01*
G01*
X59920000Y-107810000D02*
G75*
G02*
X57790000Y-109940000I-2130000J0D01*
G01*
D12*
%TO.C,J4*%
X31162860Y-106016000D02*
X29362000Y-106016000D01*
X29337000Y-106016000D02*
X29337000Y-106807000D01*
X29337000Y-106807000D02*
X27940000Y-106807000D01*
X27940000Y-106807000D02*
X27940000Y-106016000D01*
X27943000Y-106016000D02*
X24387000Y-106016000D01*
X24387000Y-106016000D02*
X24387000Y-106807000D01*
X24384000Y-106807000D02*
X22987000Y-106807000D01*
X22987000Y-106807000D02*
X22987000Y-106016000D01*
X22987000Y-106016000D02*
X21162000Y-106016000D01*
X31160720Y-111165640D02*
X21163280Y-111165640D01*
X21162000Y-106016000D02*
X21162000Y-111165640D01*
X31160720Y-111165640D02*
X31160720Y-106016000D01*
X31160720Y-109964220D02*
X31160720Y-107967780D01*
D11*
%TO.C,J3*%
X71434000Y-107636000D02*
X71434000Y-108966000D01*
X70104000Y-107636000D02*
X71434000Y-107636000D01*
X68834000Y-107636000D02*
X68834000Y-110296000D01*
X68834000Y-110296000D02*
X63694000Y-110296000D01*
X68834000Y-107636000D02*
X63694000Y-107636000D01*
X63694000Y-107636000D02*
X63694000Y-110296000D01*
D12*
%TO.C,C1*%
X42037000Y-83313000D02*
X42037000Y-86615000D01*
X40259000Y-83313000D02*
X42037000Y-83313000D01*
X40259000Y-86615000D02*
X40259000Y-83313000D01*
X42037000Y-86615000D02*
X40259000Y-86615000D01*
D11*
%TO.C,J1*%
X33344000Y-79434000D02*
X33344000Y-75414000D01*
X33344000Y-75414000D02*
X18124000Y-75414000D01*
X18124000Y-75414000D02*
X18124000Y-79434000D01*
X18124000Y-79434000D02*
X33344000Y-79434000D01*
X33344000Y-77724000D02*
X32844000Y-77724000D01*
X32844000Y-77724000D02*
X32844000Y-78934000D01*
X32844000Y-78934000D02*
X18624000Y-78934000D01*
X18624000Y-78934000D02*
X18624000Y-77724000D01*
X18624000Y-77724000D02*
X18124000Y-77724000D01*
X33344000Y-76914000D02*
X32344000Y-76914000D01*
X32344000Y-76914000D02*
X32344000Y-75414000D01*
X18124000Y-76914000D02*
X19124000Y-76914000D01*
X19124000Y-76914000D02*
X19124000Y-75414000D01*
X33644000Y-77614000D02*
X33644000Y-75114000D01*
X33644000Y-75114000D02*
X31144000Y-75114000D01*
D12*
%TO.C,RLED4*%
X30607000Y-96647000D02*
X30607000Y-93345000D01*
X32385000Y-96647000D02*
X30607000Y-96647000D01*
X32385000Y-93345000D02*
X32385000Y-96647000D01*
X30607000Y-93345000D02*
X32385000Y-93345000D01*
%TO.C,RLED2*%
X23495000Y-96647000D02*
X23495000Y-93345000D01*
X25273000Y-96647000D02*
X23495000Y-96647000D01*
X25273000Y-93345000D02*
X25273000Y-96647000D01*
X23495000Y-93345000D02*
X25273000Y-93345000D01*
%TO.C,RLED3*%
X27051000Y-96647000D02*
X27051000Y-93345000D01*
X28829000Y-96647000D02*
X27051000Y-96647000D01*
X28829000Y-93345000D02*
X28829000Y-96647000D01*
X27051000Y-93345000D02*
X28829000Y-93345000D01*
%TO.C,R3*%
X27051000Y-104775000D02*
X27051000Y-101473000D01*
X28829000Y-104775000D02*
X27051000Y-104775000D01*
X28829000Y-101473000D02*
X28829000Y-104775000D01*
X27051000Y-101473000D02*
X28829000Y-101473000D01*
%TO.C,RLED1*%
X19685000Y-96647000D02*
X19685000Y-93345000D01*
X21463000Y-96647000D02*
X19685000Y-96647000D01*
X21463000Y-93345000D02*
X21463000Y-96647000D01*
X19685000Y-93345000D02*
X21463000Y-93345000D01*
%TO.C,R2*%
X23495000Y-104775000D02*
X23495000Y-101473000D01*
X25273000Y-104775000D02*
X23495000Y-104775000D01*
X25273000Y-101473000D02*
X25273000Y-104775000D01*
X23495000Y-101473000D02*
X25273000Y-101473000D01*
%TO.C,R1*%
X19685000Y-104775000D02*
X19685000Y-101473000D01*
X21463000Y-104775000D02*
X19685000Y-104775000D01*
X21463000Y-101473000D02*
X21463000Y-104775000D01*
X19685000Y-101473000D02*
X21463000Y-101473000D01*
%TO.C,Q4*%
X31305500Y-90551000D02*
X31686500Y-90551000D01*
X32956500Y-90170000D02*
X32956500Y-89281000D01*
X32956500Y-89281000D02*
X32194500Y-89281000D01*
X30797500Y-89281000D02*
X30035500Y-89281000D01*
X30035500Y-89281000D02*
X30035500Y-90170000D01*
%TO.C,Q2*%
X24193500Y-90551000D02*
X24574500Y-90551000D01*
X25844500Y-90170000D02*
X25844500Y-89281000D01*
X25844500Y-89281000D02*
X25082500Y-89281000D01*
X23685500Y-89281000D02*
X22923500Y-89281000D01*
X22923500Y-89281000D02*
X22923500Y-90170000D01*
%TO.C,Q1*%
X20383500Y-90551000D02*
X20764500Y-90551000D01*
X22034500Y-90170000D02*
X22034500Y-89281000D01*
X22034500Y-89281000D02*
X21272500Y-89281000D01*
X19875500Y-89281000D02*
X19113500Y-89281000D01*
X19113500Y-89281000D02*
X19113500Y-90170000D01*
D13*
%TO.C,LED2*%
X25273000Y-100647500D02*
X25273000Y-97472500D01*
X25273000Y-97472500D02*
X23495000Y-97472500D01*
X23495000Y-100647500D02*
X23495000Y-97472500D01*
X25273000Y-100647500D02*
X23495000Y-100647500D01*
D12*
X23495000Y-97472500D02*
X25273000Y-97472500D01*
X25273000Y-97472500D02*
X25273000Y-100647500D01*
X25273000Y-100647500D02*
X23495000Y-100647500D01*
X23495000Y-100647500D02*
X23495000Y-97472500D01*
X23876000Y-99250500D02*
X24130000Y-99250500D01*
X24130000Y-99250500D02*
X24384000Y-99250500D01*
X24384000Y-99250500D02*
X24638000Y-99250500D01*
X24638000Y-99250500D02*
X24892000Y-99250500D01*
X24892000Y-99250500D02*
X24638000Y-99060000D01*
X24638000Y-99060000D02*
X24384000Y-98869500D01*
X24384000Y-98869500D02*
X23876000Y-99250500D01*
X23876000Y-99250500D02*
X24447500Y-98933000D01*
X24447500Y-98933000D02*
X24130000Y-99250500D01*
X24130000Y-99250500D02*
X24511000Y-98996500D01*
X24511000Y-98996500D02*
X24384000Y-99250500D01*
X24384000Y-99250500D02*
X24638000Y-99060000D01*
X24638000Y-99060000D02*
X24638000Y-99250500D01*
%TO.C,D2*%
X24511000Y-83185000D02*
X24384000Y-83185000D01*
X24257000Y-83058000D02*
X24511000Y-83185000D01*
X24384000Y-83312000D02*
X24257000Y-83058000D01*
X24511000Y-83185000D02*
X24384000Y-83312000D01*
X24638000Y-83058000D02*
X24511000Y-83185000D01*
X24257000Y-83058000D02*
X24638000Y-83058000D01*
X24130000Y-83058000D02*
X24257000Y-83058000D01*
X24384000Y-83439000D02*
X24130000Y-83058000D01*
X24765000Y-83058000D02*
X24384000Y-83439000D01*
X24003000Y-82931000D02*
X24765000Y-83058000D01*
X24384000Y-83566000D02*
X24003000Y-82931000D01*
X24892000Y-83058000D02*
X24384000Y-83566000D01*
X23876000Y-82931000D02*
X24892000Y-83058000D01*
X24384000Y-83693000D02*
X23876000Y-82931000D01*
X25019000Y-82931000D02*
X24384000Y-83693000D01*
X24003000Y-82931000D02*
X25019000Y-82931000D01*
X23876000Y-82931000D02*
X24003000Y-82931000D01*
X23749000Y-82931000D02*
X23876000Y-82931000D01*
X24384000Y-83693000D02*
X23749000Y-82931000D01*
X23495000Y-84455000D02*
X23495000Y-82169000D01*
X25273000Y-82169000D02*
X25273000Y-84455000D01*
D13*
%TO.C,LED1*%
X21463000Y-100647500D02*
X21463000Y-97472500D01*
X21463000Y-97472500D02*
X19685000Y-97472500D01*
X19685000Y-100647500D02*
X19685000Y-97472500D01*
X21463000Y-100647500D02*
X19685000Y-100647500D01*
D12*
X19685000Y-97472500D02*
X21463000Y-97472500D01*
X21463000Y-97472500D02*
X21463000Y-100647500D01*
X21463000Y-100647500D02*
X19685000Y-100647500D01*
X19685000Y-100647500D02*
X19685000Y-97472500D01*
X20066000Y-99250500D02*
X20320000Y-99250500D01*
X20320000Y-99250500D02*
X20574000Y-99250500D01*
X20574000Y-99250500D02*
X20828000Y-99250500D01*
X20828000Y-99250500D02*
X21082000Y-99250500D01*
X21082000Y-99250500D02*
X20828000Y-99060000D01*
X20828000Y-99060000D02*
X20574000Y-98869500D01*
X20574000Y-98869500D02*
X20066000Y-99250500D01*
X20066000Y-99250500D02*
X20637500Y-98933000D01*
X20637500Y-98933000D02*
X20320000Y-99250500D01*
X20320000Y-99250500D02*
X20701000Y-98996500D01*
X20701000Y-98996500D02*
X20574000Y-99250500D01*
X20574000Y-99250500D02*
X20828000Y-99060000D01*
X20828000Y-99060000D02*
X20828000Y-99250500D01*
%TO.C,D4*%
X31623000Y-83185000D02*
X31496000Y-83185000D01*
X31369000Y-83058000D02*
X31623000Y-83185000D01*
X31496000Y-83312000D02*
X31369000Y-83058000D01*
X31623000Y-83185000D02*
X31496000Y-83312000D01*
X31750000Y-83058000D02*
X31623000Y-83185000D01*
X31369000Y-83058000D02*
X31750000Y-83058000D01*
X31242000Y-83058000D02*
X31369000Y-83058000D01*
X31496000Y-83439000D02*
X31242000Y-83058000D01*
X31877000Y-83058000D02*
X31496000Y-83439000D01*
X31115000Y-82931000D02*
X31877000Y-83058000D01*
X31496000Y-83566000D02*
X31115000Y-82931000D01*
X32004000Y-83058000D02*
X31496000Y-83566000D01*
X30988000Y-82931000D02*
X32004000Y-83058000D01*
X31496000Y-83693000D02*
X30988000Y-82931000D01*
X32131000Y-82931000D02*
X31496000Y-83693000D01*
X31115000Y-82931000D02*
X32131000Y-82931000D01*
X30988000Y-82931000D02*
X31115000Y-82931000D01*
X30861000Y-82931000D02*
X30988000Y-82931000D01*
X31496000Y-83693000D02*
X30861000Y-82931000D01*
X30607000Y-84455000D02*
X30607000Y-82169000D01*
X32385000Y-82169000D02*
X32385000Y-84455000D01*
%TO.C,D3*%
X28067000Y-83185000D02*
X27940000Y-83185000D01*
X27813000Y-83058000D02*
X28067000Y-83185000D01*
X27940000Y-83312000D02*
X27813000Y-83058000D01*
X28067000Y-83185000D02*
X27940000Y-83312000D01*
X28194000Y-83058000D02*
X28067000Y-83185000D01*
X27813000Y-83058000D02*
X28194000Y-83058000D01*
X27686000Y-83058000D02*
X27813000Y-83058000D01*
X27940000Y-83439000D02*
X27686000Y-83058000D01*
X28321000Y-83058000D02*
X27940000Y-83439000D01*
X27559000Y-82931000D02*
X28321000Y-83058000D01*
X27940000Y-83566000D02*
X27559000Y-82931000D01*
X28448000Y-83058000D02*
X27940000Y-83566000D01*
X27432000Y-82931000D02*
X28448000Y-83058000D01*
X27940000Y-83693000D02*
X27432000Y-82931000D01*
X28575000Y-82931000D02*
X27940000Y-83693000D01*
X27559000Y-82931000D02*
X28575000Y-82931000D01*
X27432000Y-82931000D02*
X27559000Y-82931000D01*
X27305000Y-82931000D02*
X27432000Y-82931000D01*
X27940000Y-83693000D02*
X27305000Y-82931000D01*
X27051000Y-84455000D02*
X27051000Y-82169000D01*
X28829000Y-82169000D02*
X28829000Y-84455000D01*
%TO.C,D1*%
X20701000Y-83185000D02*
X20574000Y-83185000D01*
X20447000Y-83058000D02*
X20701000Y-83185000D01*
X20574000Y-83312000D02*
X20447000Y-83058000D01*
X20701000Y-83185000D02*
X20574000Y-83312000D01*
X20828000Y-83058000D02*
X20701000Y-83185000D01*
X20447000Y-83058000D02*
X20828000Y-83058000D01*
X20320000Y-83058000D02*
X20447000Y-83058000D01*
X20574000Y-83439000D02*
X20320000Y-83058000D01*
X20955000Y-83058000D02*
X20574000Y-83439000D01*
X20193000Y-82931000D02*
X20955000Y-83058000D01*
X20574000Y-83566000D02*
X20193000Y-82931000D01*
X21082000Y-83058000D02*
X20574000Y-83566000D01*
X20066000Y-82931000D02*
X21082000Y-83058000D01*
X20574000Y-83693000D02*
X20066000Y-82931000D01*
X21209000Y-82931000D02*
X20574000Y-83693000D01*
X20193000Y-82931000D02*
X21209000Y-82931000D01*
X20066000Y-82931000D02*
X20193000Y-82931000D01*
X19939000Y-82931000D02*
X20066000Y-82931000D01*
X20574000Y-83693000D02*
X19939000Y-82931000D01*
X19685000Y-84455000D02*
X19685000Y-82169000D01*
X21463000Y-82169000D02*
X21463000Y-84455000D01*
D13*
%TO.C,LED4*%
X32385000Y-100647500D02*
X32385000Y-97472500D01*
X32385000Y-97472500D02*
X30607000Y-97472500D01*
X30607000Y-100647500D02*
X30607000Y-97472500D01*
X32385000Y-100647500D02*
X30607000Y-100647500D01*
D12*
X30607000Y-97472500D02*
X32385000Y-97472500D01*
X32385000Y-97472500D02*
X32385000Y-100647500D01*
X32385000Y-100647500D02*
X30607000Y-100647500D01*
X30607000Y-100647500D02*
X30607000Y-97472500D01*
X30988000Y-99250500D02*
X31242000Y-99250500D01*
X31242000Y-99250500D02*
X31496000Y-99250500D01*
X31496000Y-99250500D02*
X31750000Y-99250500D01*
X31750000Y-99250500D02*
X32004000Y-99250500D01*
X32004000Y-99250500D02*
X31750000Y-99060000D01*
X31750000Y-99060000D02*
X31496000Y-98869500D01*
X31496000Y-98869500D02*
X30988000Y-99250500D01*
X30988000Y-99250500D02*
X31559500Y-98933000D01*
X31559500Y-98933000D02*
X31242000Y-99250500D01*
X31242000Y-99250500D02*
X31623000Y-98996500D01*
X31623000Y-98996500D02*
X31496000Y-99250500D01*
X31496000Y-99250500D02*
X31750000Y-99060000D01*
X31750000Y-99060000D02*
X31750000Y-99250500D01*
%TO.C,R4*%
X30607000Y-104775000D02*
X30607000Y-101473000D01*
X32385000Y-104775000D02*
X30607000Y-104775000D01*
X32385000Y-101473000D02*
X32385000Y-104775000D01*
X30607000Y-101473000D02*
X32385000Y-101473000D01*
%TO.C,Q3*%
X27749500Y-90551000D02*
X28130500Y-90551000D01*
X29400500Y-90170000D02*
X29400500Y-89281000D01*
X29400500Y-89281000D02*
X28638500Y-89281000D01*
X27241500Y-89281000D02*
X26479500Y-89281000D01*
X26479500Y-89281000D02*
X26479500Y-90170000D01*
D13*
%TO.C,LED3*%
X28829000Y-100647500D02*
X28829000Y-97472500D01*
X28829000Y-97472500D02*
X27051000Y-97472500D01*
X27051000Y-100647500D02*
X27051000Y-97472500D01*
X28829000Y-100647500D02*
X27051000Y-100647500D01*
D12*
X27051000Y-97472500D02*
X28829000Y-97472500D01*
X28829000Y-97472500D02*
X28829000Y-100647500D01*
X28829000Y-100647500D02*
X27051000Y-100647500D01*
X27051000Y-100647500D02*
X27051000Y-97472500D01*
X27432000Y-99250500D02*
X27686000Y-99250500D01*
X27686000Y-99250500D02*
X27940000Y-99250500D01*
X27940000Y-99250500D02*
X28194000Y-99250500D01*
X28194000Y-99250500D02*
X28448000Y-99250500D01*
X28448000Y-99250500D02*
X28194000Y-99060000D01*
X28194000Y-99060000D02*
X27940000Y-98869500D01*
X27940000Y-98869500D02*
X27432000Y-99250500D01*
X27432000Y-99250500D02*
X28003500Y-98933000D01*
X28003500Y-98933000D02*
X27686000Y-99250500D01*
X27686000Y-99250500D02*
X28067000Y-98996500D01*
X28067000Y-98996500D02*
X27940000Y-99250500D01*
X27940000Y-99250500D02*
X28194000Y-99060000D01*
X28194000Y-99060000D02*
X28194000Y-99250500D01*
D11*
%TO.C,J2*%
X75000000Y-79434000D02*
X75000000Y-75414000D01*
X75000000Y-75414000D02*
X59780000Y-75414000D01*
X59780000Y-75414000D02*
X59780000Y-79434000D01*
X59780000Y-79434000D02*
X75000000Y-79434000D01*
X75000000Y-77724000D02*
X74500000Y-77724000D01*
X74500000Y-77724000D02*
X74500000Y-78934000D01*
X74500000Y-78934000D02*
X60280000Y-78934000D01*
X60280000Y-78934000D02*
X60280000Y-77724000D01*
X60280000Y-77724000D02*
X59780000Y-77724000D01*
X75000000Y-76914000D02*
X74000000Y-76914000D01*
X74000000Y-76914000D02*
X74000000Y-75414000D01*
X59780000Y-76914000D02*
X60780000Y-76914000D01*
X60780000Y-76914000D02*
X60780000Y-75414000D01*
X75300000Y-77614000D02*
X75300000Y-75114000D01*
X75300000Y-75114000D02*
X72800000Y-75114000D01*
D12*
%TO.C,D5*%
X63119000Y-82169000D02*
X63119000Y-84455000D01*
X61341000Y-84455000D02*
X61341000Y-82169000D01*
X62230000Y-83693000D02*
X61595000Y-82931000D01*
X61595000Y-82931000D02*
X61722000Y-82931000D01*
X61722000Y-82931000D02*
X61849000Y-82931000D01*
X61849000Y-82931000D02*
X62865000Y-82931000D01*
X62865000Y-82931000D02*
X62230000Y-83693000D01*
X62230000Y-83693000D02*
X61722000Y-82931000D01*
X61722000Y-82931000D02*
X62738000Y-83058000D01*
X62738000Y-83058000D02*
X62230000Y-83566000D01*
X62230000Y-83566000D02*
X61849000Y-82931000D01*
X61849000Y-82931000D02*
X62611000Y-83058000D01*
X62611000Y-83058000D02*
X62230000Y-83439000D01*
X62230000Y-83439000D02*
X61976000Y-83058000D01*
X61976000Y-83058000D02*
X62103000Y-83058000D01*
X62103000Y-83058000D02*
X62484000Y-83058000D01*
X62484000Y-83058000D02*
X62357000Y-83185000D01*
X62357000Y-83185000D02*
X62230000Y-83312000D01*
X62230000Y-83312000D02*
X62103000Y-83058000D01*
X62103000Y-83058000D02*
X62357000Y-83185000D01*
X62357000Y-83185000D02*
X62230000Y-83185000D01*
%TO.C,C2*%
X42291000Y-107823000D02*
X40513000Y-107823000D01*
X40513000Y-107823000D02*
X40513000Y-104521000D01*
X40513000Y-104521000D02*
X42291000Y-104521000D01*
X42291000Y-104521000D02*
X42291000Y-107823000D01*
%TO.C,D7*%
X70739000Y-82169000D02*
X70739000Y-84455000D01*
X68961000Y-84455000D02*
X68961000Y-82169000D01*
X69850000Y-83693000D02*
X69215000Y-82931000D01*
X69215000Y-82931000D02*
X69342000Y-82931000D01*
X69342000Y-82931000D02*
X69469000Y-82931000D01*
X69469000Y-82931000D02*
X70485000Y-82931000D01*
X70485000Y-82931000D02*
X69850000Y-83693000D01*
X69850000Y-83693000D02*
X69342000Y-82931000D01*
X69342000Y-82931000D02*
X70358000Y-83058000D01*
X70358000Y-83058000D02*
X69850000Y-83566000D01*
X69850000Y-83566000D02*
X69469000Y-82931000D01*
X69469000Y-82931000D02*
X70231000Y-83058000D01*
X70231000Y-83058000D02*
X69850000Y-83439000D01*
X69850000Y-83439000D02*
X69596000Y-83058000D01*
X69596000Y-83058000D02*
X69723000Y-83058000D01*
X69723000Y-83058000D02*
X70104000Y-83058000D01*
X70104000Y-83058000D02*
X69977000Y-83185000D01*
X69977000Y-83185000D02*
X69850000Y-83312000D01*
X69850000Y-83312000D02*
X69723000Y-83058000D01*
X69723000Y-83058000D02*
X69977000Y-83185000D01*
X69977000Y-83185000D02*
X69850000Y-83185000D01*
%TO.C,D8*%
X74549000Y-82169000D02*
X74549000Y-84455000D01*
X72771000Y-84455000D02*
X72771000Y-82169000D01*
X73660000Y-83693000D02*
X73025000Y-82931000D01*
X73025000Y-82931000D02*
X73152000Y-82931000D01*
X73152000Y-82931000D02*
X73279000Y-82931000D01*
X73279000Y-82931000D02*
X74295000Y-82931000D01*
X74295000Y-82931000D02*
X73660000Y-83693000D01*
X73660000Y-83693000D02*
X73152000Y-82931000D01*
X73152000Y-82931000D02*
X74168000Y-83058000D01*
X74168000Y-83058000D02*
X73660000Y-83566000D01*
X73660000Y-83566000D02*
X73279000Y-82931000D01*
X73279000Y-82931000D02*
X74041000Y-83058000D01*
X74041000Y-83058000D02*
X73660000Y-83439000D01*
X73660000Y-83439000D02*
X73406000Y-83058000D01*
X73406000Y-83058000D02*
X73533000Y-83058000D01*
X73533000Y-83058000D02*
X73914000Y-83058000D01*
X73914000Y-83058000D02*
X73787000Y-83185000D01*
X73787000Y-83185000D02*
X73660000Y-83312000D01*
X73660000Y-83312000D02*
X73533000Y-83058000D01*
X73533000Y-83058000D02*
X73787000Y-83185000D01*
X73787000Y-83185000D02*
X73660000Y-83185000D01*
%TO.C,D6*%
X66929000Y-82169000D02*
X66929000Y-84455000D01*
X65151000Y-84455000D02*
X65151000Y-82169000D01*
X66040000Y-83693000D02*
X65405000Y-82931000D01*
X65405000Y-82931000D02*
X65532000Y-82931000D01*
X65532000Y-82931000D02*
X65659000Y-82931000D01*
X65659000Y-82931000D02*
X66675000Y-82931000D01*
X66675000Y-82931000D02*
X66040000Y-83693000D01*
X66040000Y-83693000D02*
X65532000Y-82931000D01*
X65532000Y-82931000D02*
X66548000Y-83058000D01*
X66548000Y-83058000D02*
X66040000Y-83566000D01*
X66040000Y-83566000D02*
X65659000Y-82931000D01*
X65659000Y-82931000D02*
X66421000Y-83058000D01*
X66421000Y-83058000D02*
X66040000Y-83439000D01*
X66040000Y-83439000D02*
X65786000Y-83058000D01*
X65786000Y-83058000D02*
X65913000Y-83058000D01*
X65913000Y-83058000D02*
X66294000Y-83058000D01*
X66294000Y-83058000D02*
X66167000Y-83185000D01*
X66167000Y-83185000D02*
X66040000Y-83312000D01*
X66040000Y-83312000D02*
X65913000Y-83058000D01*
X65913000Y-83058000D02*
X66167000Y-83185000D01*
X66167000Y-83185000D02*
X66040000Y-83185000D01*
%TO.C,LED5*%
X62484000Y-99060000D02*
X62484000Y-99250500D01*
X62230000Y-99250500D02*
X62484000Y-99060000D01*
X62357000Y-98996500D02*
X62230000Y-99250500D01*
X61976000Y-99250500D02*
X62357000Y-98996500D01*
X62293500Y-98933000D02*
X61976000Y-99250500D01*
X61722000Y-99250500D02*
X62293500Y-98933000D01*
X62230000Y-98869500D02*
X61722000Y-99250500D01*
X62484000Y-99060000D02*
X62230000Y-98869500D01*
X62738000Y-99250500D02*
X62484000Y-99060000D01*
X62484000Y-99250500D02*
X62738000Y-99250500D01*
X62230000Y-99250500D02*
X62484000Y-99250500D01*
X61976000Y-99250500D02*
X62230000Y-99250500D01*
X61722000Y-99250500D02*
X61976000Y-99250500D01*
X61341000Y-100647500D02*
X61341000Y-97472500D01*
X63119000Y-100647500D02*
X61341000Y-100647500D01*
X63119000Y-97472500D02*
X63119000Y-100647500D01*
X61341000Y-97472500D02*
X63119000Y-97472500D01*
D13*
X63119000Y-100647500D02*
X61341000Y-100647500D01*
X61341000Y-100647500D02*
X61341000Y-97472500D01*
X63119000Y-97472500D02*
X61341000Y-97472500D01*
X63119000Y-100647500D02*
X63119000Y-97472500D01*
D12*
%TO.C,LED6*%
X66294000Y-99060000D02*
X66294000Y-99250500D01*
X66040000Y-99250500D02*
X66294000Y-99060000D01*
X66167000Y-98996500D02*
X66040000Y-99250500D01*
X65786000Y-99250500D02*
X66167000Y-98996500D01*
X66103500Y-98933000D02*
X65786000Y-99250500D01*
X65532000Y-99250500D02*
X66103500Y-98933000D01*
X66040000Y-98869500D02*
X65532000Y-99250500D01*
X66294000Y-99060000D02*
X66040000Y-98869500D01*
X66548000Y-99250500D02*
X66294000Y-99060000D01*
X66294000Y-99250500D02*
X66548000Y-99250500D01*
X66040000Y-99250500D02*
X66294000Y-99250500D01*
X65786000Y-99250500D02*
X66040000Y-99250500D01*
X65532000Y-99250500D02*
X65786000Y-99250500D01*
X65151000Y-100647500D02*
X65151000Y-97472500D01*
X66929000Y-100647500D02*
X65151000Y-100647500D01*
X66929000Y-97472500D02*
X66929000Y-100647500D01*
X65151000Y-97472500D02*
X66929000Y-97472500D01*
D13*
X66929000Y-100647500D02*
X65151000Y-100647500D01*
X65151000Y-100647500D02*
X65151000Y-97472500D01*
X66929000Y-97472500D02*
X65151000Y-97472500D01*
X66929000Y-100647500D02*
X66929000Y-97472500D01*
D12*
%TO.C,LED8*%
X73914000Y-99060000D02*
X73914000Y-99250500D01*
X73660000Y-99250500D02*
X73914000Y-99060000D01*
X73787000Y-98996500D02*
X73660000Y-99250500D01*
X73406000Y-99250500D02*
X73787000Y-98996500D01*
X73723500Y-98933000D02*
X73406000Y-99250500D01*
X73152000Y-99250500D02*
X73723500Y-98933000D01*
X73660000Y-98869500D02*
X73152000Y-99250500D01*
X73914000Y-99060000D02*
X73660000Y-98869500D01*
X74168000Y-99250500D02*
X73914000Y-99060000D01*
X73914000Y-99250500D02*
X74168000Y-99250500D01*
X73660000Y-99250500D02*
X73914000Y-99250500D01*
X73406000Y-99250500D02*
X73660000Y-99250500D01*
X73152000Y-99250500D02*
X73406000Y-99250500D01*
X72771000Y-100647500D02*
X72771000Y-97472500D01*
X74549000Y-100647500D02*
X72771000Y-100647500D01*
X74549000Y-97472500D02*
X74549000Y-100647500D01*
X72771000Y-97472500D02*
X74549000Y-97472500D01*
D13*
X74549000Y-100647500D02*
X72771000Y-100647500D01*
X72771000Y-100647500D02*
X72771000Y-97472500D01*
X74549000Y-97472500D02*
X72771000Y-97472500D01*
X74549000Y-100647500D02*
X74549000Y-97472500D01*
D12*
%TO.C,Q5*%
X60769500Y-89281000D02*
X60769500Y-90170000D01*
X61531500Y-89281000D02*
X60769500Y-89281000D01*
X63690500Y-89281000D02*
X62928500Y-89281000D01*
X63690500Y-90170000D02*
X63690500Y-89281000D01*
X62039500Y-90551000D02*
X62420500Y-90551000D01*
%TO.C,Q6*%
X64579500Y-89281000D02*
X64579500Y-90170000D01*
X65341500Y-89281000D02*
X64579500Y-89281000D01*
X67500500Y-89281000D02*
X66738500Y-89281000D01*
X67500500Y-90170000D02*
X67500500Y-89281000D01*
X65849500Y-90551000D02*
X66230500Y-90551000D01*
%TO.C,Q8*%
X72199500Y-89281000D02*
X72199500Y-90170000D01*
X72961500Y-89281000D02*
X72199500Y-89281000D01*
X75120500Y-89281000D02*
X74358500Y-89281000D01*
X75120500Y-90170000D02*
X75120500Y-89281000D01*
X73469500Y-90551000D02*
X73850500Y-90551000D01*
%TO.C,R5*%
X61341000Y-101473000D02*
X63119000Y-101473000D01*
X63119000Y-101473000D02*
X63119000Y-104775000D01*
X63119000Y-104775000D02*
X61341000Y-104775000D01*
X61341000Y-104775000D02*
X61341000Y-101473000D01*
%TO.C,R6*%
X65151000Y-101473000D02*
X66929000Y-101473000D01*
X66929000Y-101473000D02*
X66929000Y-104775000D01*
X66929000Y-104775000D02*
X65151000Y-104775000D01*
X65151000Y-104775000D02*
X65151000Y-101473000D01*
%TO.C,R7*%
X68961000Y-101473000D02*
X70739000Y-101473000D01*
X70739000Y-101473000D02*
X70739000Y-104775000D01*
X70739000Y-104775000D02*
X68961000Y-104775000D01*
X68961000Y-104775000D02*
X68961000Y-101473000D01*
%TO.C,RLED5*%
X61341000Y-93345000D02*
X63119000Y-93345000D01*
X63119000Y-93345000D02*
X63119000Y-96647000D01*
X63119000Y-96647000D02*
X61341000Y-96647000D01*
X61341000Y-96647000D02*
X61341000Y-93345000D01*
%TO.C,RLED7*%
X68961000Y-93345000D02*
X70739000Y-93345000D01*
X70739000Y-93345000D02*
X70739000Y-96647000D01*
X70739000Y-96647000D02*
X68961000Y-96647000D01*
X68961000Y-96647000D02*
X68961000Y-93345000D01*
%TO.C,RLED6*%
X65151000Y-93345000D02*
X66929000Y-93345000D01*
X66929000Y-93345000D02*
X66929000Y-96647000D01*
X66929000Y-96647000D02*
X65151000Y-96647000D01*
X65151000Y-96647000D02*
X65151000Y-93345000D01*
%TO.C,RLED8*%
X72771000Y-93345000D02*
X74549000Y-93345000D01*
X74549000Y-93345000D02*
X74549000Y-96647000D01*
X74549000Y-96647000D02*
X72771000Y-96647000D01*
X72771000Y-96647000D02*
X72771000Y-93345000D01*
%TO.C,LED7*%
X70104000Y-99060000D02*
X70104000Y-99250500D01*
X69850000Y-99250500D02*
X70104000Y-99060000D01*
X69977000Y-98996500D02*
X69850000Y-99250500D01*
X69596000Y-99250500D02*
X69977000Y-98996500D01*
X69913500Y-98933000D02*
X69596000Y-99250500D01*
X69342000Y-99250500D02*
X69913500Y-98933000D01*
X69850000Y-98869500D02*
X69342000Y-99250500D01*
X70104000Y-99060000D02*
X69850000Y-98869500D01*
X70358000Y-99250500D02*
X70104000Y-99060000D01*
X70104000Y-99250500D02*
X70358000Y-99250500D01*
X69850000Y-99250500D02*
X70104000Y-99250500D01*
X69596000Y-99250500D02*
X69850000Y-99250500D01*
X69342000Y-99250500D02*
X69596000Y-99250500D01*
X68961000Y-100647500D02*
X68961000Y-97472500D01*
X70739000Y-100647500D02*
X68961000Y-100647500D01*
X70739000Y-97472500D02*
X70739000Y-100647500D01*
X68961000Y-97472500D02*
X70739000Y-97472500D01*
D13*
X70739000Y-100647500D02*
X68961000Y-100647500D01*
X68961000Y-100647500D02*
X68961000Y-97472500D01*
X70739000Y-97472500D02*
X68961000Y-97472500D01*
X70739000Y-100647500D02*
X70739000Y-97472500D01*
D12*
%TO.C,Q7*%
X68389500Y-89281000D02*
X68389500Y-90170000D01*
X69151500Y-89281000D02*
X68389500Y-89281000D01*
X71310500Y-89281000D02*
X70548500Y-89281000D01*
X71310500Y-90170000D02*
X71310500Y-89281000D01*
X69659500Y-90551000D02*
X70040500Y-90551000D01*
%TO.C,R8*%
X72771000Y-101473000D02*
X74549000Y-101473000D01*
X74549000Y-101473000D02*
X74549000Y-104775000D01*
X74549000Y-104775000D02*
X72771000Y-104775000D01*
X72771000Y-104775000D02*
X72771000Y-101473000D01*
%TO.C,U1*%
D10*
X57975595Y-75969880D02*
X57975595Y-76779404D01*
X58023214Y-76874642D01*
X58070833Y-76922261D01*
X58166071Y-76969880D01*
X58356547Y-76969880D01*
X58451785Y-76922261D01*
X58499404Y-76874642D01*
X58547023Y-76779404D01*
X58547023Y-75969880D01*
X59547023Y-76969880D02*
X58975595Y-76969880D01*
X59261309Y-76969880D02*
X59261309Y-75969880D01*
X59166071Y-76112738D01*
X59070833Y-76207976D01*
X58975595Y-76255595D01*
%TO.C,J4*%
X19732666Y-106132380D02*
X19732666Y-106846666D01*
X19685047Y-106989523D01*
X19589809Y-107084761D01*
X19446952Y-107132380D01*
X19351714Y-107132380D01*
X20637428Y-106465714D02*
X20637428Y-107132380D01*
X20399333Y-106084761D02*
X20161238Y-106799047D01*
X20780285Y-106799047D01*
%TO.C,J3*%
X72310666Y-107656380D02*
X72310666Y-108370666D01*
X72263047Y-108513523D01*
X72167809Y-108608761D01*
X72024952Y-108656380D01*
X71929714Y-108656380D01*
X72691619Y-107656380D02*
X73310666Y-107656380D01*
X72977333Y-108037333D01*
X73120190Y-108037333D01*
X73215428Y-108084952D01*
X73263047Y-108132571D01*
X73310666Y-108227809D01*
X73310666Y-108465904D01*
X73263047Y-108561142D01*
X73215428Y-108608761D01*
X73120190Y-108656380D01*
X72834476Y-108656380D01*
X72739238Y-108608761D01*
X72691619Y-108561142D01*
%TO.C,C1*%
X43205142Y-85130666D02*
X43252761Y-85178285D01*
X43300380Y-85321142D01*
X43300380Y-85416380D01*
X43252761Y-85559238D01*
X43157523Y-85654476D01*
X43062285Y-85702095D01*
X42871809Y-85749714D01*
X42728952Y-85749714D01*
X42538476Y-85702095D01*
X42443238Y-85654476D01*
X42348000Y-85559238D01*
X42300380Y-85416380D01*
X42300380Y-85321142D01*
X42348000Y-85178285D01*
X42395619Y-85130666D01*
X43300380Y-84178285D02*
X43300380Y-84749714D01*
X43300380Y-84464000D02*
X42300380Y-84464000D01*
X42443238Y-84559238D01*
X42538476Y-84654476D01*
X42586095Y-84749714D01*
%TO.C,J1*%
X21510666Y-73874380D02*
X21510666Y-74588666D01*
X21463047Y-74731523D01*
X21367809Y-74826761D01*
X21224952Y-74874380D01*
X21129714Y-74874380D01*
X22510666Y-74874380D02*
X21939238Y-74874380D01*
X22224952Y-74874380D02*
X22224952Y-73874380D01*
X22129714Y-74017238D01*
X22034476Y-74112476D01*
X21939238Y-74160095D01*
%TO.C,RLED4*%
X30248380Y-96519809D02*
X29772190Y-96853142D01*
X30248380Y-97091238D02*
X29248380Y-97091238D01*
X29248380Y-96710285D01*
X29296000Y-96615047D01*
X29343619Y-96567428D01*
X29438857Y-96519809D01*
X29581714Y-96519809D01*
X29676952Y-96567428D01*
X29724571Y-96615047D01*
X29772190Y-96710285D01*
X29772190Y-97091238D01*
X30248380Y-95615047D02*
X30248380Y-96091238D01*
X29248380Y-96091238D01*
X29724571Y-95281714D02*
X29724571Y-94948380D01*
X30248380Y-94805523D02*
X30248380Y-95281714D01*
X29248380Y-95281714D01*
X29248380Y-94805523D01*
X30248380Y-94376952D02*
X29248380Y-94376952D01*
X29248380Y-94138857D01*
X29296000Y-93996000D01*
X29391238Y-93900761D01*
X29486476Y-93853142D01*
X29676952Y-93805523D01*
X29819809Y-93805523D01*
X30010285Y-93853142D01*
X30105523Y-93900761D01*
X30200761Y-93996000D01*
X30248380Y-94138857D01*
X30248380Y-94376952D01*
X29581714Y-92948380D02*
X30248380Y-92948380D01*
X29200761Y-93186476D02*
X29915047Y-93424571D01*
X29915047Y-92805523D01*
%TO.C,RLED2*%
X23136380Y-96519809D02*
X22660190Y-96853142D01*
X23136380Y-97091238D02*
X22136380Y-97091238D01*
X22136380Y-96710285D01*
X22184000Y-96615047D01*
X22231619Y-96567428D01*
X22326857Y-96519809D01*
X22469714Y-96519809D01*
X22564952Y-96567428D01*
X22612571Y-96615047D01*
X22660190Y-96710285D01*
X22660190Y-97091238D01*
X23136380Y-95615047D02*
X23136380Y-96091238D01*
X22136380Y-96091238D01*
X22612571Y-95281714D02*
X22612571Y-94948380D01*
X23136380Y-94805523D02*
X23136380Y-95281714D01*
X22136380Y-95281714D01*
X22136380Y-94805523D01*
X23136380Y-94376952D02*
X22136380Y-94376952D01*
X22136380Y-94138857D01*
X22184000Y-93996000D01*
X22279238Y-93900761D01*
X22374476Y-93853142D01*
X22564952Y-93805523D01*
X22707809Y-93805523D01*
X22898285Y-93853142D01*
X22993523Y-93900761D01*
X23088761Y-93996000D01*
X23136380Y-94138857D01*
X23136380Y-94376952D01*
X22231619Y-93424571D02*
X22184000Y-93376952D01*
X22136380Y-93281714D01*
X22136380Y-93043619D01*
X22184000Y-92948380D01*
X22231619Y-92900761D01*
X22326857Y-92853142D01*
X22422095Y-92853142D01*
X22564952Y-92900761D01*
X23136380Y-93472190D01*
X23136380Y-92853142D01*
%TO.C,RLED3*%
X26692380Y-96519809D02*
X26216190Y-96853142D01*
X26692380Y-97091238D02*
X25692380Y-97091238D01*
X25692380Y-96710285D01*
X25740000Y-96615047D01*
X25787619Y-96567428D01*
X25882857Y-96519809D01*
X26025714Y-96519809D01*
X26120952Y-96567428D01*
X26168571Y-96615047D01*
X26216190Y-96710285D01*
X26216190Y-97091238D01*
X26692380Y-95615047D02*
X26692380Y-96091238D01*
X25692380Y-96091238D01*
X26168571Y-95281714D02*
X26168571Y-94948380D01*
X26692380Y-94805523D02*
X26692380Y-95281714D01*
X25692380Y-95281714D01*
X25692380Y-94805523D01*
X26692380Y-94376952D02*
X25692380Y-94376952D01*
X25692380Y-94138857D01*
X25740000Y-93996000D01*
X25835238Y-93900761D01*
X25930476Y-93853142D01*
X26120952Y-93805523D01*
X26263809Y-93805523D01*
X26454285Y-93853142D01*
X26549523Y-93900761D01*
X26644761Y-93996000D01*
X26692380Y-94138857D01*
X26692380Y-94376952D01*
X25692380Y-93472190D02*
X25692380Y-92853142D01*
X26073333Y-93186476D01*
X26073333Y-93043619D01*
X26120952Y-92948380D01*
X26168571Y-92900761D01*
X26263809Y-92853142D01*
X26501904Y-92853142D01*
X26597142Y-92900761D01*
X26644761Y-92948380D01*
X26692380Y-93043619D01*
X26692380Y-93329333D01*
X26644761Y-93424571D01*
X26597142Y-93472190D01*
%TO.C,R3*%
X26692380Y-104306666D02*
X26216190Y-104640000D01*
X26692380Y-104878095D02*
X25692380Y-104878095D01*
X25692380Y-104497142D01*
X25740000Y-104401904D01*
X25787619Y-104354285D01*
X25882857Y-104306666D01*
X26025714Y-104306666D01*
X26120952Y-104354285D01*
X26168571Y-104401904D01*
X26216190Y-104497142D01*
X26216190Y-104878095D01*
X25692380Y-103973333D02*
X25692380Y-103354285D01*
X26073333Y-103687619D01*
X26073333Y-103544761D01*
X26120952Y-103449523D01*
X26168571Y-103401904D01*
X26263809Y-103354285D01*
X26501904Y-103354285D01*
X26597142Y-103401904D01*
X26644761Y-103449523D01*
X26692380Y-103544761D01*
X26692380Y-103830476D01*
X26644761Y-103925714D01*
X26597142Y-103973333D01*
%TO.C,RLED1*%
X19326380Y-96519809D02*
X18850190Y-96853142D01*
X19326380Y-97091238D02*
X18326380Y-97091238D01*
X18326380Y-96710285D01*
X18374000Y-96615047D01*
X18421619Y-96567428D01*
X18516857Y-96519809D01*
X18659714Y-96519809D01*
X18754952Y-96567428D01*
X18802571Y-96615047D01*
X18850190Y-96710285D01*
X18850190Y-97091238D01*
X19326380Y-95615047D02*
X19326380Y-96091238D01*
X18326380Y-96091238D01*
X18802571Y-95281714D02*
X18802571Y-94948380D01*
X19326380Y-94805523D02*
X19326380Y-95281714D01*
X18326380Y-95281714D01*
X18326380Y-94805523D01*
X19326380Y-94376952D02*
X18326380Y-94376952D01*
X18326380Y-94138857D01*
X18374000Y-93996000D01*
X18469238Y-93900761D01*
X18564476Y-93853142D01*
X18754952Y-93805523D01*
X18897809Y-93805523D01*
X19088285Y-93853142D01*
X19183523Y-93900761D01*
X19278761Y-93996000D01*
X19326380Y-94138857D01*
X19326380Y-94376952D01*
X19326380Y-92853142D02*
X19326380Y-93424571D01*
X19326380Y-93138857D02*
X18326380Y-93138857D01*
X18469238Y-93234095D01*
X18564476Y-93329333D01*
X18612095Y-93424571D01*
%TO.C,R2*%
X23136380Y-104306666D02*
X22660190Y-104640000D01*
X23136380Y-104878095D02*
X22136380Y-104878095D01*
X22136380Y-104497142D01*
X22184000Y-104401904D01*
X22231619Y-104354285D01*
X22326857Y-104306666D01*
X22469714Y-104306666D01*
X22564952Y-104354285D01*
X22612571Y-104401904D01*
X22660190Y-104497142D01*
X22660190Y-104878095D01*
X22231619Y-103925714D02*
X22184000Y-103878095D01*
X22136380Y-103782857D01*
X22136380Y-103544761D01*
X22184000Y-103449523D01*
X22231619Y-103401904D01*
X22326857Y-103354285D01*
X22422095Y-103354285D01*
X22564952Y-103401904D01*
X23136380Y-103973333D01*
X23136380Y-103354285D01*
%TO.C,R1*%
X19326380Y-104306666D02*
X18850190Y-104640000D01*
X19326380Y-104878095D02*
X18326380Y-104878095D01*
X18326380Y-104497142D01*
X18374000Y-104401904D01*
X18421619Y-104354285D01*
X18516857Y-104306666D01*
X18659714Y-104306666D01*
X18754952Y-104354285D01*
X18802571Y-104401904D01*
X18850190Y-104497142D01*
X18850190Y-104878095D01*
X19326380Y-103354285D02*
X19326380Y-103925714D01*
X19326380Y-103640000D02*
X18326380Y-103640000D01*
X18469238Y-103735238D01*
X18564476Y-103830476D01*
X18612095Y-103925714D01*
%TO.C,Q4*%
X31400761Y-87838619D02*
X31305523Y-87791000D01*
X31210285Y-87695761D01*
X31067428Y-87552904D01*
X30972190Y-87505285D01*
X30876952Y-87505285D01*
X30924571Y-87743380D02*
X30829333Y-87695761D01*
X30734095Y-87600523D01*
X30686476Y-87410047D01*
X30686476Y-87076714D01*
X30734095Y-86886238D01*
X30829333Y-86791000D01*
X30924571Y-86743380D01*
X31115047Y-86743380D01*
X31210285Y-86791000D01*
X31305523Y-86886238D01*
X31353142Y-87076714D01*
X31353142Y-87410047D01*
X31305523Y-87600523D01*
X31210285Y-87695761D01*
X31115047Y-87743380D01*
X30924571Y-87743380D01*
X32210285Y-87076714D02*
X32210285Y-87743380D01*
X31972190Y-86695761D02*
X31734095Y-87410047D01*
X32353142Y-87410047D01*
%TO.C,Q2*%
X24288761Y-87838619D02*
X24193523Y-87791000D01*
X24098285Y-87695761D01*
X23955428Y-87552904D01*
X23860190Y-87505285D01*
X23764952Y-87505285D01*
X23812571Y-87743380D02*
X23717333Y-87695761D01*
X23622095Y-87600523D01*
X23574476Y-87410047D01*
X23574476Y-87076714D01*
X23622095Y-86886238D01*
X23717333Y-86791000D01*
X23812571Y-86743380D01*
X24003047Y-86743380D01*
X24098285Y-86791000D01*
X24193523Y-86886238D01*
X24241142Y-87076714D01*
X24241142Y-87410047D01*
X24193523Y-87600523D01*
X24098285Y-87695761D01*
X24003047Y-87743380D01*
X23812571Y-87743380D01*
X24622095Y-86838619D02*
X24669714Y-86791000D01*
X24764952Y-86743380D01*
X25003047Y-86743380D01*
X25098285Y-86791000D01*
X25145904Y-86838619D01*
X25193523Y-86933857D01*
X25193523Y-87029095D01*
X25145904Y-87171952D01*
X24574476Y-87743380D01*
X25193523Y-87743380D01*
%TO.C,Q1*%
X20478761Y-87838619D02*
X20383523Y-87791000D01*
X20288285Y-87695761D01*
X20145428Y-87552904D01*
X20050190Y-87505285D01*
X19954952Y-87505285D01*
X20002571Y-87743380D02*
X19907333Y-87695761D01*
X19812095Y-87600523D01*
X19764476Y-87410047D01*
X19764476Y-87076714D01*
X19812095Y-86886238D01*
X19907333Y-86791000D01*
X20002571Y-86743380D01*
X20193047Y-86743380D01*
X20288285Y-86791000D01*
X20383523Y-86886238D01*
X20431142Y-87076714D01*
X20431142Y-87410047D01*
X20383523Y-87600523D01*
X20288285Y-87695761D01*
X20193047Y-87743380D01*
X20002571Y-87743380D01*
X21383523Y-87743380D02*
X20812095Y-87743380D01*
X21097809Y-87743380D02*
X21097809Y-86743380D01*
X21002571Y-86886238D01*
X20907333Y-86981476D01*
X20812095Y-87029095D01*
%TO.C,LED2*%
X23058380Y-101195047D02*
X23058380Y-101671238D01*
X22058380Y-101671238D01*
X22534571Y-100861714D02*
X22534571Y-100528380D01*
X23058380Y-100385523D02*
X23058380Y-100861714D01*
X22058380Y-100861714D01*
X22058380Y-100385523D01*
X23058380Y-99956952D02*
X22058380Y-99956952D01*
X22058380Y-99718857D01*
X22106000Y-99576000D01*
X22201238Y-99480761D01*
X22296476Y-99433142D01*
X22486952Y-99385523D01*
X22629809Y-99385523D01*
X22820285Y-99433142D01*
X22915523Y-99480761D01*
X23010761Y-99576000D01*
X23058380Y-99718857D01*
X23058380Y-99956952D01*
X22153619Y-99004571D02*
X22106000Y-98956952D01*
X22058380Y-98861714D01*
X22058380Y-98623619D01*
X22106000Y-98528380D01*
X22153619Y-98480761D01*
X22248857Y-98433142D01*
X22344095Y-98433142D01*
X22486952Y-98480761D01*
X23058380Y-99052190D01*
X23058380Y-98433142D01*
%TO.C,D2*%
X21941714Y-81986380D02*
X21941714Y-80986380D01*
X22156000Y-80986380D01*
X22284571Y-81034000D01*
X22370285Y-81129238D01*
X22413142Y-81224476D01*
X22456000Y-81414952D01*
X22456000Y-81557809D01*
X22413142Y-81748285D01*
X22370285Y-81843523D01*
X22284571Y-81938761D01*
X22156000Y-81986380D01*
X21941714Y-81986380D01*
X22798857Y-81081619D02*
X22841714Y-81034000D01*
X22927428Y-80986380D01*
X23141714Y-80986380D01*
X23227428Y-81034000D01*
X23270285Y-81081619D01*
X23313142Y-81176857D01*
X23313142Y-81272095D01*
X23270285Y-81414952D01*
X22756000Y-81986380D01*
X23313142Y-81986380D01*
%TO.C,LED1*%
X19248380Y-101195047D02*
X19248380Y-101671238D01*
X18248380Y-101671238D01*
X18724571Y-100861714D02*
X18724571Y-100528380D01*
X19248380Y-100385523D02*
X19248380Y-100861714D01*
X18248380Y-100861714D01*
X18248380Y-100385523D01*
X19248380Y-99956952D02*
X18248380Y-99956952D01*
X18248380Y-99718857D01*
X18296000Y-99576000D01*
X18391238Y-99480761D01*
X18486476Y-99433142D01*
X18676952Y-99385523D01*
X18819809Y-99385523D01*
X19010285Y-99433142D01*
X19105523Y-99480761D01*
X19200761Y-99576000D01*
X19248380Y-99718857D01*
X19248380Y-99956952D01*
X19248380Y-98433142D02*
X19248380Y-99004571D01*
X19248380Y-98718857D02*
X18248380Y-98718857D01*
X18391238Y-98814095D01*
X18486476Y-98909333D01*
X18534095Y-99004571D01*
%TO.C,D4*%
X29307714Y-81986380D02*
X29307714Y-80986380D01*
X29522000Y-80986380D01*
X29650571Y-81034000D01*
X29736285Y-81129238D01*
X29779142Y-81224476D01*
X29822000Y-81414952D01*
X29822000Y-81557809D01*
X29779142Y-81748285D01*
X29736285Y-81843523D01*
X29650571Y-81938761D01*
X29522000Y-81986380D01*
X29307714Y-81986380D01*
X30593428Y-81319714D02*
X30593428Y-81986380D01*
X30379142Y-80938761D02*
X30164857Y-81653047D01*
X30722000Y-81653047D01*
%TO.C,D3*%
X25497714Y-81986380D02*
X25497714Y-80986380D01*
X25712000Y-80986380D01*
X25840571Y-81034000D01*
X25926285Y-81129238D01*
X25969142Y-81224476D01*
X26012000Y-81414952D01*
X26012000Y-81557809D01*
X25969142Y-81748285D01*
X25926285Y-81843523D01*
X25840571Y-81938761D01*
X25712000Y-81986380D01*
X25497714Y-81986380D01*
X26312000Y-80986380D02*
X26869142Y-80986380D01*
X26569142Y-81367333D01*
X26697714Y-81367333D01*
X26783428Y-81414952D01*
X26826285Y-81462571D01*
X26869142Y-81557809D01*
X26869142Y-81795904D01*
X26826285Y-81891142D01*
X26783428Y-81938761D01*
X26697714Y-81986380D01*
X26440571Y-81986380D01*
X26354857Y-81938761D01*
X26312000Y-81891142D01*
%TO.C,D1*%
X18131714Y-81986380D02*
X18131714Y-80986380D01*
X18346000Y-80986380D01*
X18474571Y-81034000D01*
X18560285Y-81129238D01*
X18603142Y-81224476D01*
X18646000Y-81414952D01*
X18646000Y-81557809D01*
X18603142Y-81748285D01*
X18560285Y-81843523D01*
X18474571Y-81938761D01*
X18346000Y-81986380D01*
X18131714Y-81986380D01*
X19503142Y-81986380D02*
X18988857Y-81986380D01*
X19246000Y-81986380D02*
X19246000Y-80986380D01*
X19160285Y-81129238D01*
X19074571Y-81224476D01*
X18988857Y-81272095D01*
%TO.C,LED4*%
X30170380Y-101195047D02*
X30170380Y-101671238D01*
X29170380Y-101671238D01*
X29646571Y-100861714D02*
X29646571Y-100528380D01*
X30170380Y-100385523D02*
X30170380Y-100861714D01*
X29170380Y-100861714D01*
X29170380Y-100385523D01*
X30170380Y-99956952D02*
X29170380Y-99956952D01*
X29170380Y-99718857D01*
X29218000Y-99576000D01*
X29313238Y-99480761D01*
X29408476Y-99433142D01*
X29598952Y-99385523D01*
X29741809Y-99385523D01*
X29932285Y-99433142D01*
X30027523Y-99480761D01*
X30122761Y-99576000D01*
X30170380Y-99718857D01*
X30170380Y-99956952D01*
X29503714Y-98528380D02*
X30170380Y-98528380D01*
X29122761Y-98766476D02*
X29837047Y-99004571D01*
X29837047Y-98385523D01*
%TO.C,R4*%
X30248380Y-104306666D02*
X29772190Y-104640000D01*
X30248380Y-104878095D02*
X29248380Y-104878095D01*
X29248380Y-104497142D01*
X29296000Y-104401904D01*
X29343619Y-104354285D01*
X29438857Y-104306666D01*
X29581714Y-104306666D01*
X29676952Y-104354285D01*
X29724571Y-104401904D01*
X29772190Y-104497142D01*
X29772190Y-104878095D01*
X29581714Y-103449523D02*
X30248380Y-103449523D01*
X29200761Y-103687619D02*
X29915047Y-103925714D01*
X29915047Y-103306666D01*
%TO.C,Q3*%
X27844761Y-87838619D02*
X27749523Y-87791000D01*
X27654285Y-87695761D01*
X27511428Y-87552904D01*
X27416190Y-87505285D01*
X27320952Y-87505285D01*
X27368571Y-87743380D02*
X27273333Y-87695761D01*
X27178095Y-87600523D01*
X27130476Y-87410047D01*
X27130476Y-87076714D01*
X27178095Y-86886238D01*
X27273333Y-86791000D01*
X27368571Y-86743380D01*
X27559047Y-86743380D01*
X27654285Y-86791000D01*
X27749523Y-86886238D01*
X27797142Y-87076714D01*
X27797142Y-87410047D01*
X27749523Y-87600523D01*
X27654285Y-87695761D01*
X27559047Y-87743380D01*
X27368571Y-87743380D01*
X28130476Y-86743380D02*
X28749523Y-86743380D01*
X28416190Y-87124333D01*
X28559047Y-87124333D01*
X28654285Y-87171952D01*
X28701904Y-87219571D01*
X28749523Y-87314809D01*
X28749523Y-87552904D01*
X28701904Y-87648142D01*
X28654285Y-87695761D01*
X28559047Y-87743380D01*
X28273333Y-87743380D01*
X28178095Y-87695761D01*
X28130476Y-87648142D01*
%TO.C,LED3*%
X26614380Y-101195047D02*
X26614380Y-101671238D01*
X25614380Y-101671238D01*
X26090571Y-100861714D02*
X26090571Y-100528380D01*
X26614380Y-100385523D02*
X26614380Y-100861714D01*
X25614380Y-100861714D01*
X25614380Y-100385523D01*
X26614380Y-99956952D02*
X25614380Y-99956952D01*
X25614380Y-99718857D01*
X25662000Y-99576000D01*
X25757238Y-99480761D01*
X25852476Y-99433142D01*
X26042952Y-99385523D01*
X26185809Y-99385523D01*
X26376285Y-99433142D01*
X26471523Y-99480761D01*
X26566761Y-99576000D01*
X26614380Y-99718857D01*
X26614380Y-99956952D01*
X25614380Y-99052190D02*
X25614380Y-98433142D01*
X25995333Y-98766476D01*
X25995333Y-98623619D01*
X26042952Y-98528380D01*
X26090571Y-98480761D01*
X26185809Y-98433142D01*
X26423904Y-98433142D01*
X26519142Y-98480761D01*
X26566761Y-98528380D01*
X26614380Y-98623619D01*
X26614380Y-98909333D01*
X26566761Y-99004571D01*
X26519142Y-99052190D01*
%TO.C,J2*%
X70532666Y-73874380D02*
X70532666Y-74588666D01*
X70485047Y-74731523D01*
X70389809Y-74826761D01*
X70246952Y-74874380D01*
X70151714Y-74874380D01*
X70961238Y-73969619D02*
X71008857Y-73922000D01*
X71104095Y-73874380D01*
X71342190Y-73874380D01*
X71437428Y-73922000D01*
X71485047Y-73969619D01*
X71532666Y-74064857D01*
X71532666Y-74160095D01*
X71485047Y-74302952D01*
X70913619Y-74874380D01*
X71532666Y-74874380D01*
%TO.C,D5*%
X59787714Y-81986380D02*
X59787714Y-80986380D01*
X60002000Y-80986380D01*
X60130571Y-81034000D01*
X60216285Y-81129238D01*
X60259142Y-81224476D01*
X60302000Y-81414952D01*
X60302000Y-81557809D01*
X60259142Y-81748285D01*
X60216285Y-81843523D01*
X60130571Y-81938761D01*
X60002000Y-81986380D01*
X59787714Y-81986380D01*
X61116285Y-80986380D02*
X60687714Y-80986380D01*
X60644857Y-81462571D01*
X60687714Y-81414952D01*
X60773428Y-81367333D01*
X60987714Y-81367333D01*
X61073428Y-81414952D01*
X61116285Y-81462571D01*
X61159142Y-81557809D01*
X61159142Y-81795904D01*
X61116285Y-81891142D01*
X61073428Y-81938761D01*
X60987714Y-81986380D01*
X60773428Y-81986380D01*
X60687714Y-81938761D01*
X60644857Y-81891142D01*
%TO.C,C2*%
X43459142Y-106338666D02*
X43506761Y-106386285D01*
X43554380Y-106529142D01*
X43554380Y-106624380D01*
X43506761Y-106767238D01*
X43411523Y-106862476D01*
X43316285Y-106910095D01*
X43125809Y-106957714D01*
X42982952Y-106957714D01*
X42792476Y-106910095D01*
X42697238Y-106862476D01*
X42602000Y-106767238D01*
X42554380Y-106624380D01*
X42554380Y-106529142D01*
X42602000Y-106386285D01*
X42649619Y-106338666D01*
X42649619Y-105957714D02*
X42602000Y-105910095D01*
X42554380Y-105814857D01*
X42554380Y-105576761D01*
X42602000Y-105481523D01*
X42649619Y-105433904D01*
X42744857Y-105386285D01*
X42840095Y-105386285D01*
X42982952Y-105433904D01*
X43554380Y-106005333D01*
X43554380Y-105386285D01*
%TO.C,D7*%
X67407714Y-81986380D02*
X67407714Y-80986380D01*
X67622000Y-80986380D01*
X67750571Y-81034000D01*
X67836285Y-81129238D01*
X67879142Y-81224476D01*
X67922000Y-81414952D01*
X67922000Y-81557809D01*
X67879142Y-81748285D01*
X67836285Y-81843523D01*
X67750571Y-81938761D01*
X67622000Y-81986380D01*
X67407714Y-81986380D01*
X68222000Y-80986380D02*
X68822000Y-80986380D01*
X68436285Y-81986380D01*
%TO.C,D8*%
X71217714Y-81986380D02*
X71217714Y-80986380D01*
X71432000Y-80986380D01*
X71560571Y-81034000D01*
X71646285Y-81129238D01*
X71689142Y-81224476D01*
X71732000Y-81414952D01*
X71732000Y-81557809D01*
X71689142Y-81748285D01*
X71646285Y-81843523D01*
X71560571Y-81938761D01*
X71432000Y-81986380D01*
X71217714Y-81986380D01*
X72246285Y-81414952D02*
X72160571Y-81367333D01*
X72117714Y-81319714D01*
X72074857Y-81224476D01*
X72074857Y-81176857D01*
X72117714Y-81081619D01*
X72160571Y-81034000D01*
X72246285Y-80986380D01*
X72417714Y-80986380D01*
X72503428Y-81034000D01*
X72546285Y-81081619D01*
X72589142Y-81176857D01*
X72589142Y-81224476D01*
X72546285Y-81319714D01*
X72503428Y-81367333D01*
X72417714Y-81414952D01*
X72246285Y-81414952D01*
X72160571Y-81462571D01*
X72117714Y-81510190D01*
X72074857Y-81605428D01*
X72074857Y-81795904D01*
X72117714Y-81891142D01*
X72160571Y-81938761D01*
X72246285Y-81986380D01*
X72417714Y-81986380D01*
X72503428Y-81938761D01*
X72546285Y-81891142D01*
X72589142Y-81795904D01*
X72589142Y-81605428D01*
X72546285Y-81510190D01*
X72503428Y-81462571D01*
X72417714Y-81414952D01*
%TO.C,D6*%
X63597714Y-81986380D02*
X63597714Y-80986380D01*
X63812000Y-80986380D01*
X63940571Y-81034000D01*
X64026285Y-81129238D01*
X64069142Y-81224476D01*
X64112000Y-81414952D01*
X64112000Y-81557809D01*
X64069142Y-81748285D01*
X64026285Y-81843523D01*
X63940571Y-81938761D01*
X63812000Y-81986380D01*
X63597714Y-81986380D01*
X64883428Y-80986380D02*
X64712000Y-80986380D01*
X64626285Y-81034000D01*
X64583428Y-81081619D01*
X64497714Y-81224476D01*
X64454857Y-81414952D01*
X64454857Y-81795904D01*
X64497714Y-81891142D01*
X64540571Y-81938761D01*
X64626285Y-81986380D01*
X64797714Y-81986380D01*
X64883428Y-81938761D01*
X64926285Y-81891142D01*
X64969142Y-81795904D01*
X64969142Y-81557809D01*
X64926285Y-81462571D01*
X64883428Y-81414952D01*
X64797714Y-81367333D01*
X64626285Y-81367333D01*
X64540571Y-81414952D01*
X64497714Y-81462571D01*
X64454857Y-81557809D01*
%TO.C,LED5*%
X60967880Y-100687047D02*
X60967880Y-101163238D01*
X59967880Y-101163238D01*
X60444071Y-100353714D02*
X60444071Y-100020380D01*
X60967880Y-99877523D02*
X60967880Y-100353714D01*
X59967880Y-100353714D01*
X59967880Y-99877523D01*
X60967880Y-99448952D02*
X59967880Y-99448952D01*
X59967880Y-99210857D01*
X60015500Y-99068000D01*
X60110738Y-98972761D01*
X60205976Y-98925142D01*
X60396452Y-98877523D01*
X60539309Y-98877523D01*
X60729785Y-98925142D01*
X60825023Y-98972761D01*
X60920261Y-99068000D01*
X60967880Y-99210857D01*
X60967880Y-99448952D01*
X59967880Y-97972761D02*
X59967880Y-98448952D01*
X60444071Y-98496571D01*
X60396452Y-98448952D01*
X60348833Y-98353714D01*
X60348833Y-98115619D01*
X60396452Y-98020380D01*
X60444071Y-97972761D01*
X60539309Y-97925142D01*
X60777404Y-97925142D01*
X60872642Y-97972761D01*
X60920261Y-98020380D01*
X60967880Y-98115619D01*
X60967880Y-98353714D01*
X60920261Y-98448952D01*
X60872642Y-98496571D01*
%TO.C,LED6*%
X64777880Y-100687047D02*
X64777880Y-101163238D01*
X63777880Y-101163238D01*
X64254071Y-100353714D02*
X64254071Y-100020380D01*
X64777880Y-99877523D02*
X64777880Y-100353714D01*
X63777880Y-100353714D01*
X63777880Y-99877523D01*
X64777880Y-99448952D02*
X63777880Y-99448952D01*
X63777880Y-99210857D01*
X63825500Y-99068000D01*
X63920738Y-98972761D01*
X64015976Y-98925142D01*
X64206452Y-98877523D01*
X64349309Y-98877523D01*
X64539785Y-98925142D01*
X64635023Y-98972761D01*
X64730261Y-99068000D01*
X64777880Y-99210857D01*
X64777880Y-99448952D01*
X63777880Y-98020380D02*
X63777880Y-98210857D01*
X63825500Y-98306095D01*
X63873119Y-98353714D01*
X64015976Y-98448952D01*
X64206452Y-98496571D01*
X64587404Y-98496571D01*
X64682642Y-98448952D01*
X64730261Y-98401333D01*
X64777880Y-98306095D01*
X64777880Y-98115619D01*
X64730261Y-98020380D01*
X64682642Y-97972761D01*
X64587404Y-97925142D01*
X64349309Y-97925142D01*
X64254071Y-97972761D01*
X64206452Y-98020380D01*
X64158833Y-98115619D01*
X64158833Y-98306095D01*
X64206452Y-98401333D01*
X64254071Y-98448952D01*
X64349309Y-98496571D01*
%TO.C,LED8*%
X72397880Y-100687047D02*
X72397880Y-101163238D01*
X71397880Y-101163238D01*
X71874071Y-100353714D02*
X71874071Y-100020380D01*
X72397880Y-99877523D02*
X72397880Y-100353714D01*
X71397880Y-100353714D01*
X71397880Y-99877523D01*
X72397880Y-99448952D02*
X71397880Y-99448952D01*
X71397880Y-99210857D01*
X71445500Y-99068000D01*
X71540738Y-98972761D01*
X71635976Y-98925142D01*
X71826452Y-98877523D01*
X71969309Y-98877523D01*
X72159785Y-98925142D01*
X72255023Y-98972761D01*
X72350261Y-99068000D01*
X72397880Y-99210857D01*
X72397880Y-99448952D01*
X71826452Y-98306095D02*
X71778833Y-98401333D01*
X71731214Y-98448952D01*
X71635976Y-98496571D01*
X71588357Y-98496571D01*
X71493119Y-98448952D01*
X71445500Y-98401333D01*
X71397880Y-98306095D01*
X71397880Y-98115619D01*
X71445500Y-98020380D01*
X71493119Y-97972761D01*
X71588357Y-97925142D01*
X71635976Y-97925142D01*
X71731214Y-97972761D01*
X71778833Y-98020380D01*
X71826452Y-98115619D01*
X71826452Y-98306095D01*
X71874071Y-98401333D01*
X71921690Y-98448952D01*
X72016928Y-98496571D01*
X72207404Y-98496571D01*
X72302642Y-98448952D01*
X72350261Y-98401333D01*
X72397880Y-98306095D01*
X72397880Y-98115619D01*
X72350261Y-98020380D01*
X72302642Y-97972761D01*
X72207404Y-97925142D01*
X72016928Y-97925142D01*
X71921690Y-97972761D01*
X71874071Y-98020380D01*
X71826452Y-98115619D01*
%TO.C,Q5*%
X62134761Y-87838619D02*
X62039523Y-87791000D01*
X61944285Y-87695761D01*
X61801428Y-87552904D01*
X61706190Y-87505285D01*
X61610952Y-87505285D01*
X61658571Y-87743380D02*
X61563333Y-87695761D01*
X61468095Y-87600523D01*
X61420476Y-87410047D01*
X61420476Y-87076714D01*
X61468095Y-86886238D01*
X61563333Y-86791000D01*
X61658571Y-86743380D01*
X61849047Y-86743380D01*
X61944285Y-86791000D01*
X62039523Y-86886238D01*
X62087142Y-87076714D01*
X62087142Y-87410047D01*
X62039523Y-87600523D01*
X61944285Y-87695761D01*
X61849047Y-87743380D01*
X61658571Y-87743380D01*
X62991904Y-86743380D02*
X62515714Y-86743380D01*
X62468095Y-87219571D01*
X62515714Y-87171952D01*
X62610952Y-87124333D01*
X62849047Y-87124333D01*
X62944285Y-87171952D01*
X62991904Y-87219571D01*
X63039523Y-87314809D01*
X63039523Y-87552904D01*
X62991904Y-87648142D01*
X62944285Y-87695761D01*
X62849047Y-87743380D01*
X62610952Y-87743380D01*
X62515714Y-87695761D01*
X62468095Y-87648142D01*
%TO.C,Q6*%
X65944761Y-87838619D02*
X65849523Y-87791000D01*
X65754285Y-87695761D01*
X65611428Y-87552904D01*
X65516190Y-87505285D01*
X65420952Y-87505285D01*
X65468571Y-87743380D02*
X65373333Y-87695761D01*
X65278095Y-87600523D01*
X65230476Y-87410047D01*
X65230476Y-87076714D01*
X65278095Y-86886238D01*
X65373333Y-86791000D01*
X65468571Y-86743380D01*
X65659047Y-86743380D01*
X65754285Y-86791000D01*
X65849523Y-86886238D01*
X65897142Y-87076714D01*
X65897142Y-87410047D01*
X65849523Y-87600523D01*
X65754285Y-87695761D01*
X65659047Y-87743380D01*
X65468571Y-87743380D01*
X66754285Y-86743380D02*
X66563809Y-86743380D01*
X66468571Y-86791000D01*
X66420952Y-86838619D01*
X66325714Y-86981476D01*
X66278095Y-87171952D01*
X66278095Y-87552904D01*
X66325714Y-87648142D01*
X66373333Y-87695761D01*
X66468571Y-87743380D01*
X66659047Y-87743380D01*
X66754285Y-87695761D01*
X66801904Y-87648142D01*
X66849523Y-87552904D01*
X66849523Y-87314809D01*
X66801904Y-87219571D01*
X66754285Y-87171952D01*
X66659047Y-87124333D01*
X66468571Y-87124333D01*
X66373333Y-87171952D01*
X66325714Y-87219571D01*
X66278095Y-87314809D01*
%TO.C,Q8*%
X73564761Y-87838619D02*
X73469523Y-87791000D01*
X73374285Y-87695761D01*
X73231428Y-87552904D01*
X73136190Y-87505285D01*
X73040952Y-87505285D01*
X73088571Y-87743380D02*
X72993333Y-87695761D01*
X72898095Y-87600523D01*
X72850476Y-87410047D01*
X72850476Y-87076714D01*
X72898095Y-86886238D01*
X72993333Y-86791000D01*
X73088571Y-86743380D01*
X73279047Y-86743380D01*
X73374285Y-86791000D01*
X73469523Y-86886238D01*
X73517142Y-87076714D01*
X73517142Y-87410047D01*
X73469523Y-87600523D01*
X73374285Y-87695761D01*
X73279047Y-87743380D01*
X73088571Y-87743380D01*
X74088571Y-87171952D02*
X73993333Y-87124333D01*
X73945714Y-87076714D01*
X73898095Y-86981476D01*
X73898095Y-86933857D01*
X73945714Y-86838619D01*
X73993333Y-86791000D01*
X74088571Y-86743380D01*
X74279047Y-86743380D01*
X74374285Y-86791000D01*
X74421904Y-86838619D01*
X74469523Y-86933857D01*
X74469523Y-86981476D01*
X74421904Y-87076714D01*
X74374285Y-87124333D01*
X74279047Y-87171952D01*
X74088571Y-87171952D01*
X73993333Y-87219571D01*
X73945714Y-87267190D01*
X73898095Y-87362428D01*
X73898095Y-87552904D01*
X73945714Y-87648142D01*
X73993333Y-87695761D01*
X74088571Y-87743380D01*
X74279047Y-87743380D01*
X74374285Y-87695761D01*
X74421904Y-87648142D01*
X74469523Y-87552904D01*
X74469523Y-87362428D01*
X74421904Y-87267190D01*
X74374285Y-87219571D01*
X74279047Y-87171952D01*
%TO.C,R5*%
X60982380Y-103290666D02*
X60506190Y-103624000D01*
X60982380Y-103862095D02*
X59982380Y-103862095D01*
X59982380Y-103481142D01*
X60030000Y-103385904D01*
X60077619Y-103338285D01*
X60172857Y-103290666D01*
X60315714Y-103290666D01*
X60410952Y-103338285D01*
X60458571Y-103385904D01*
X60506190Y-103481142D01*
X60506190Y-103862095D01*
X59982380Y-102385904D02*
X59982380Y-102862095D01*
X60458571Y-102909714D01*
X60410952Y-102862095D01*
X60363333Y-102766857D01*
X60363333Y-102528761D01*
X60410952Y-102433523D01*
X60458571Y-102385904D01*
X60553809Y-102338285D01*
X60791904Y-102338285D01*
X60887142Y-102385904D01*
X60934761Y-102433523D01*
X60982380Y-102528761D01*
X60982380Y-102766857D01*
X60934761Y-102862095D01*
X60887142Y-102909714D01*
%TO.C,R6*%
X64792380Y-103290666D02*
X64316190Y-103624000D01*
X64792380Y-103862095D02*
X63792380Y-103862095D01*
X63792380Y-103481142D01*
X63840000Y-103385904D01*
X63887619Y-103338285D01*
X63982857Y-103290666D01*
X64125714Y-103290666D01*
X64220952Y-103338285D01*
X64268571Y-103385904D01*
X64316190Y-103481142D01*
X64316190Y-103862095D01*
X63792380Y-102433523D02*
X63792380Y-102624000D01*
X63840000Y-102719238D01*
X63887619Y-102766857D01*
X64030476Y-102862095D01*
X64220952Y-102909714D01*
X64601904Y-102909714D01*
X64697142Y-102862095D01*
X64744761Y-102814476D01*
X64792380Y-102719238D01*
X64792380Y-102528761D01*
X64744761Y-102433523D01*
X64697142Y-102385904D01*
X64601904Y-102338285D01*
X64363809Y-102338285D01*
X64268571Y-102385904D01*
X64220952Y-102433523D01*
X64173333Y-102528761D01*
X64173333Y-102719238D01*
X64220952Y-102814476D01*
X64268571Y-102862095D01*
X64363809Y-102909714D01*
%TO.C,R7*%
X68602380Y-103290666D02*
X68126190Y-103624000D01*
X68602380Y-103862095D02*
X67602380Y-103862095D01*
X67602380Y-103481142D01*
X67650000Y-103385904D01*
X67697619Y-103338285D01*
X67792857Y-103290666D01*
X67935714Y-103290666D01*
X68030952Y-103338285D01*
X68078571Y-103385904D01*
X68126190Y-103481142D01*
X68126190Y-103862095D01*
X67602380Y-102957333D02*
X67602380Y-102290666D01*
X68602380Y-102719238D01*
%TO.C,RLED5*%
X60967880Y-96329309D02*
X60491690Y-96662642D01*
X60967880Y-96900738D02*
X59967880Y-96900738D01*
X59967880Y-96519785D01*
X60015500Y-96424547D01*
X60063119Y-96376928D01*
X60158357Y-96329309D01*
X60301214Y-96329309D01*
X60396452Y-96376928D01*
X60444071Y-96424547D01*
X60491690Y-96519785D01*
X60491690Y-96900738D01*
X60967880Y-95424547D02*
X60967880Y-95900738D01*
X59967880Y-95900738D01*
X60444071Y-95091214D02*
X60444071Y-94757880D01*
X60967880Y-94615023D02*
X60967880Y-95091214D01*
X59967880Y-95091214D01*
X59967880Y-94615023D01*
X60967880Y-94186452D02*
X59967880Y-94186452D01*
X59967880Y-93948357D01*
X60015500Y-93805500D01*
X60110738Y-93710261D01*
X60205976Y-93662642D01*
X60396452Y-93615023D01*
X60539309Y-93615023D01*
X60729785Y-93662642D01*
X60825023Y-93710261D01*
X60920261Y-93805500D01*
X60967880Y-93948357D01*
X60967880Y-94186452D01*
X59967880Y-92710261D02*
X59967880Y-93186452D01*
X60444071Y-93234071D01*
X60396452Y-93186452D01*
X60348833Y-93091214D01*
X60348833Y-92853119D01*
X60396452Y-92757880D01*
X60444071Y-92710261D01*
X60539309Y-92662642D01*
X60777404Y-92662642D01*
X60872642Y-92710261D01*
X60920261Y-92757880D01*
X60967880Y-92853119D01*
X60967880Y-93091214D01*
X60920261Y-93186452D01*
X60872642Y-93234071D01*
%TO.C,RLED7*%
X68587880Y-96329309D02*
X68111690Y-96662642D01*
X68587880Y-96900738D02*
X67587880Y-96900738D01*
X67587880Y-96519785D01*
X67635500Y-96424547D01*
X67683119Y-96376928D01*
X67778357Y-96329309D01*
X67921214Y-96329309D01*
X68016452Y-96376928D01*
X68064071Y-96424547D01*
X68111690Y-96519785D01*
X68111690Y-96900738D01*
X68587880Y-95424547D02*
X68587880Y-95900738D01*
X67587880Y-95900738D01*
X68064071Y-95091214D02*
X68064071Y-94757880D01*
X68587880Y-94615023D02*
X68587880Y-95091214D01*
X67587880Y-95091214D01*
X67587880Y-94615023D01*
X68587880Y-94186452D02*
X67587880Y-94186452D01*
X67587880Y-93948357D01*
X67635500Y-93805500D01*
X67730738Y-93710261D01*
X67825976Y-93662642D01*
X68016452Y-93615023D01*
X68159309Y-93615023D01*
X68349785Y-93662642D01*
X68445023Y-93710261D01*
X68540261Y-93805500D01*
X68587880Y-93948357D01*
X68587880Y-94186452D01*
X67587880Y-93281690D02*
X67587880Y-92615023D01*
X68587880Y-93043595D01*
%TO.C,RLED6*%
X64792380Y-96329309D02*
X64316190Y-96662642D01*
X64792380Y-96900738D02*
X63792380Y-96900738D01*
X63792380Y-96519785D01*
X63840000Y-96424547D01*
X63887619Y-96376928D01*
X63982857Y-96329309D01*
X64125714Y-96329309D01*
X64220952Y-96376928D01*
X64268571Y-96424547D01*
X64316190Y-96519785D01*
X64316190Y-96900738D01*
X64792380Y-95424547D02*
X64792380Y-95900738D01*
X63792380Y-95900738D01*
X64268571Y-95091214D02*
X64268571Y-94757880D01*
X64792380Y-94615023D02*
X64792380Y-95091214D01*
X63792380Y-95091214D01*
X63792380Y-94615023D01*
X64792380Y-94186452D02*
X63792380Y-94186452D01*
X63792380Y-93948357D01*
X63840000Y-93805500D01*
X63935238Y-93710261D01*
X64030476Y-93662642D01*
X64220952Y-93615023D01*
X64363809Y-93615023D01*
X64554285Y-93662642D01*
X64649523Y-93710261D01*
X64744761Y-93805500D01*
X64792380Y-93948357D01*
X64792380Y-94186452D01*
X63792380Y-92757880D02*
X63792380Y-92948357D01*
X63840000Y-93043595D01*
X63887619Y-93091214D01*
X64030476Y-93186452D01*
X64220952Y-93234071D01*
X64601904Y-93234071D01*
X64697142Y-93186452D01*
X64744761Y-93138833D01*
X64792380Y-93043595D01*
X64792380Y-92853119D01*
X64744761Y-92757880D01*
X64697142Y-92710261D01*
X64601904Y-92662642D01*
X64363809Y-92662642D01*
X64268571Y-92710261D01*
X64220952Y-92757880D01*
X64173333Y-92853119D01*
X64173333Y-93043595D01*
X64220952Y-93138833D01*
X64268571Y-93186452D01*
X64363809Y-93234071D01*
%TO.C,RLED8*%
X72397880Y-96329309D02*
X71921690Y-96662642D01*
X72397880Y-96900738D02*
X71397880Y-96900738D01*
X71397880Y-96519785D01*
X71445500Y-96424547D01*
X71493119Y-96376928D01*
X71588357Y-96329309D01*
X71731214Y-96329309D01*
X71826452Y-96376928D01*
X71874071Y-96424547D01*
X71921690Y-96519785D01*
X71921690Y-96900738D01*
X72397880Y-95424547D02*
X72397880Y-95900738D01*
X71397880Y-95900738D01*
X71874071Y-95091214D02*
X71874071Y-94757880D01*
X72397880Y-94615023D02*
X72397880Y-95091214D01*
X71397880Y-95091214D01*
X71397880Y-94615023D01*
X72397880Y-94186452D02*
X71397880Y-94186452D01*
X71397880Y-93948357D01*
X71445500Y-93805500D01*
X71540738Y-93710261D01*
X71635976Y-93662642D01*
X71826452Y-93615023D01*
X71969309Y-93615023D01*
X72159785Y-93662642D01*
X72255023Y-93710261D01*
X72350261Y-93805500D01*
X72397880Y-93948357D01*
X72397880Y-94186452D01*
X71826452Y-93043595D02*
X71778833Y-93138833D01*
X71731214Y-93186452D01*
X71635976Y-93234071D01*
X71588357Y-93234071D01*
X71493119Y-93186452D01*
X71445500Y-93138833D01*
X71397880Y-93043595D01*
X71397880Y-92853119D01*
X71445500Y-92757880D01*
X71493119Y-92710261D01*
X71588357Y-92662642D01*
X71635976Y-92662642D01*
X71731214Y-92710261D01*
X71778833Y-92757880D01*
X71826452Y-92853119D01*
X71826452Y-93043595D01*
X71874071Y-93138833D01*
X71921690Y-93186452D01*
X72016928Y-93234071D01*
X72207404Y-93234071D01*
X72302642Y-93186452D01*
X72350261Y-93138833D01*
X72397880Y-93043595D01*
X72397880Y-92853119D01*
X72350261Y-92757880D01*
X72302642Y-92710261D01*
X72207404Y-92662642D01*
X72016928Y-92662642D01*
X71921690Y-92710261D01*
X71874071Y-92757880D01*
X71826452Y-92853119D01*
%TO.C,LED7*%
X68587880Y-100687047D02*
X68587880Y-101163238D01*
X67587880Y-101163238D01*
X68064071Y-100353714D02*
X68064071Y-100020380D01*
X68587880Y-99877523D02*
X68587880Y-100353714D01*
X67587880Y-100353714D01*
X67587880Y-99877523D01*
X68587880Y-99448952D02*
X67587880Y-99448952D01*
X67587880Y-99210857D01*
X67635500Y-99068000D01*
X67730738Y-98972761D01*
X67825976Y-98925142D01*
X68016452Y-98877523D01*
X68159309Y-98877523D01*
X68349785Y-98925142D01*
X68445023Y-98972761D01*
X68540261Y-99068000D01*
X68587880Y-99210857D01*
X68587880Y-99448952D01*
X67587880Y-98544190D02*
X67587880Y-97877523D01*
X68587880Y-98306095D01*
%TO.C,Q7*%
X69754761Y-87838619D02*
X69659523Y-87791000D01*
X69564285Y-87695761D01*
X69421428Y-87552904D01*
X69326190Y-87505285D01*
X69230952Y-87505285D01*
X69278571Y-87743380D02*
X69183333Y-87695761D01*
X69088095Y-87600523D01*
X69040476Y-87410047D01*
X69040476Y-87076714D01*
X69088095Y-86886238D01*
X69183333Y-86791000D01*
X69278571Y-86743380D01*
X69469047Y-86743380D01*
X69564285Y-86791000D01*
X69659523Y-86886238D01*
X69707142Y-87076714D01*
X69707142Y-87410047D01*
X69659523Y-87600523D01*
X69564285Y-87695761D01*
X69469047Y-87743380D01*
X69278571Y-87743380D01*
X70040476Y-86743380D02*
X70707142Y-86743380D01*
X70278571Y-87743380D01*
%TO.C,R8*%
X72412380Y-103290666D02*
X71936190Y-103624000D01*
X72412380Y-103862095D02*
X71412380Y-103862095D01*
X71412380Y-103481142D01*
X71460000Y-103385904D01*
X71507619Y-103338285D01*
X71602857Y-103290666D01*
X71745714Y-103290666D01*
X71840952Y-103338285D01*
X71888571Y-103385904D01*
X71936190Y-103481142D01*
X71936190Y-103862095D01*
X71840952Y-102719238D02*
X71793333Y-102814476D01*
X71745714Y-102862095D01*
X71650476Y-102909714D01*
X71602857Y-102909714D01*
X71507619Y-102862095D01*
X71460000Y-102814476D01*
X71412380Y-102719238D01*
X71412380Y-102528761D01*
X71460000Y-102433523D01*
X71507619Y-102385904D01*
X71602857Y-102338285D01*
X71650476Y-102338285D01*
X71745714Y-102385904D01*
X71793333Y-102433523D01*
X71840952Y-102528761D01*
X71840952Y-102719238D01*
X71888571Y-102814476D01*
X71936190Y-102862095D01*
X72031428Y-102909714D01*
X72221904Y-102909714D01*
X72317142Y-102862095D01*
X72364761Y-102814476D01*
X72412380Y-102719238D01*
X72412380Y-102528761D01*
X72364761Y-102433523D01*
X72317142Y-102385904D01*
X72221904Y-102338285D01*
X72031428Y-102338285D01*
X71936190Y-102385904D01*
X71888571Y-102433523D01*
X71840952Y-102528761D01*
%TD*%
M02*
