%TF.GenerationSoftware,KiCad,Pcbnew,(5.1.10)-1*%
%TF.CreationDate,2022-04-18T16:41:03+02:00*%
%TF.ProjectId,ULN2803-Mosfet-S2-Mini,554c4e32-3830-4332-9d4d-6f736665742d,rev?*%
%TF.SameCoordinates,Original*%
%TF.FileFunction,Soldermask,Top*%
%TF.FilePolarity,Negative*%
%FSLAX46Y46*%
G04 Gerber Fmt 4.6, Leading zero omitted, Abs format (unit mm)*
G04 Created by KiCad (PCBNEW (5.1.10)-1) date 2022-04-18 16:41:03*
%MOMM*%
%LPD*%
G01*
G04 APERTURE LIST*
%ADD10O,2.000000X1.600000*%
%ADD11R,2.000000X2.000000*%
%ADD12C,1.270000*%
%ADD13R,1.270000X1.270000*%
%ADD14O,1.700000X1.700000*%
%ADD15R,1.700000X1.700000*%
%ADD16R,1.400000X1.016000*%
%ADD17O,1.700000X1.950000*%
%ADD18R,1.397000X1.016000*%
%ADD19R,1.016000X1.143000*%
%ADD20R,1.270000X0.889000*%
%ADD21R,1.397000X1.397000*%
G04 APERTURE END LIST*
D10*
%TO.C,U1*%
X35560000Y-101600000D03*
X35560000Y-99060000D03*
X35560000Y-96520000D03*
X35560000Y-93980000D03*
X35560000Y-91440000D03*
X35560000Y-88900000D03*
X35560000Y-86360000D03*
X35560000Y-83820000D03*
X58420000Y-83820000D03*
X58420000Y-86360000D03*
X58420000Y-88900000D03*
X58420000Y-91440000D03*
X58420000Y-93980000D03*
X58420000Y-96520000D03*
D11*
X58420000Y-101600000D03*
D10*
X58420000Y-99060000D03*
%TD*%
D12*
%TO.C,J4*%
X23162260Y-108966000D03*
X25163780Y-108966000D03*
X27160220Y-108966000D03*
D13*
X29161740Y-108966000D03*
%TD*%
D14*
%TO.C,J3*%
X65024000Y-108966000D03*
X67564000Y-108966000D03*
D15*
X70104000Y-108966000D03*
%TD*%
D16*
%TO.C,C1*%
X41148000Y-85854000D03*
X41148000Y-84075000D03*
%TD*%
%TO.C,J1*%
G36*
G01*
X31584000Y-76999000D02*
X31584000Y-78449000D01*
G75*
G02*
X31334000Y-78699000I-250000J0D01*
G01*
X30134000Y-78699000D01*
G75*
G02*
X29884000Y-78449000I0J250000D01*
G01*
X29884000Y-76999000D01*
G75*
G02*
X30134000Y-76749000I250000J0D01*
G01*
X31334000Y-76749000D01*
G75*
G02*
X31584000Y-76999000I0J-250000D01*
G01*
G37*
D17*
X28234000Y-77724000D03*
X25734000Y-77724000D03*
X23234000Y-77724000D03*
X20734000Y-77724000D03*
%TD*%
D18*
%TO.C,RLED4*%
X31496000Y-94107000D03*
X31496000Y-95885000D03*
%TD*%
%TO.C,RLED2*%
X24384000Y-94107000D03*
X24384000Y-95885000D03*
%TD*%
%TO.C,RLED3*%
X27940000Y-94107000D03*
X27940000Y-95885000D03*
%TD*%
%TO.C,R3*%
X27940000Y-102235000D03*
X27940000Y-104013000D03*
%TD*%
%TO.C,RLED1*%
X20574000Y-94107000D03*
X20574000Y-95885000D03*
%TD*%
%TO.C,R2*%
X24384000Y-102235000D03*
X24384000Y-104013000D03*
%TD*%
%TO.C,R1*%
X20574000Y-102235000D03*
X20574000Y-104013000D03*
%TD*%
D19*
%TO.C,Q4*%
X30607000Y-90932000D03*
X32385000Y-90932000D03*
X31496000Y-88900000D03*
%TD*%
%TO.C,Q2*%
X23495000Y-90932000D03*
X25273000Y-90932000D03*
X24384000Y-88900000D03*
%TD*%
%TO.C,Q1*%
X19685000Y-90932000D03*
X21463000Y-90932000D03*
X20574000Y-88900000D03*
%TD*%
D20*
%TO.C,LED2*%
X24384000Y-99949000D03*
X24384000Y-98171000D03*
%TD*%
D21*
%TO.C,D2*%
X24384000Y-84963000D03*
X24384000Y-81661000D03*
%TD*%
D20*
%TO.C,LED1*%
X20574000Y-99949000D03*
X20574000Y-98171000D03*
%TD*%
D21*
%TO.C,D4*%
X31496000Y-84963000D03*
X31496000Y-81661000D03*
%TD*%
%TO.C,D3*%
X27940000Y-84963000D03*
X27940000Y-81661000D03*
%TD*%
%TO.C,D1*%
X20574000Y-84963000D03*
X20574000Y-81661000D03*
%TD*%
D20*
%TO.C,LED4*%
X31496000Y-99949000D03*
X31496000Y-98171000D03*
%TD*%
D18*
%TO.C,R4*%
X31496000Y-102235000D03*
X31496000Y-104013000D03*
%TD*%
D19*
%TO.C,Q3*%
X27051000Y-90932000D03*
X28829000Y-90932000D03*
X27940000Y-88900000D03*
%TD*%
D20*
%TO.C,LED3*%
X27940000Y-99949000D03*
X27940000Y-98171000D03*
%TD*%
%TO.C,J2*%
G36*
G01*
X73240000Y-76999000D02*
X73240000Y-78449000D01*
G75*
G02*
X72990000Y-78699000I-250000J0D01*
G01*
X71790000Y-78699000D01*
G75*
G02*
X71540000Y-78449000I0J250000D01*
G01*
X71540000Y-76999000D01*
G75*
G02*
X71790000Y-76749000I250000J0D01*
G01*
X72990000Y-76749000D01*
G75*
G02*
X73240000Y-76999000I0J-250000D01*
G01*
G37*
D17*
X69890000Y-77724000D03*
X67390000Y-77724000D03*
X64890000Y-77724000D03*
X62390000Y-77724000D03*
%TD*%
D21*
%TO.C,D5*%
X62230000Y-81661000D03*
X62230000Y-84963000D03*
%TD*%
D16*
%TO.C,C2*%
X41402000Y-107062000D03*
X41402000Y-105283000D03*
%TD*%
D21*
%TO.C,D7*%
X69850000Y-81661000D03*
X69850000Y-84963000D03*
%TD*%
%TO.C,D8*%
X73660000Y-81661000D03*
X73660000Y-84963000D03*
%TD*%
%TO.C,D6*%
X66040000Y-81661000D03*
X66040000Y-84963000D03*
%TD*%
D20*
%TO.C,LED5*%
X62230000Y-98171000D03*
X62230000Y-99949000D03*
%TD*%
%TO.C,LED6*%
X66040000Y-98171000D03*
X66040000Y-99949000D03*
%TD*%
%TO.C,LED8*%
X73660000Y-98171000D03*
X73660000Y-99949000D03*
%TD*%
D19*
%TO.C,Q5*%
X62230000Y-88900000D03*
X63119000Y-90932000D03*
X61341000Y-90932000D03*
%TD*%
%TO.C,Q6*%
X66040000Y-88900000D03*
X66929000Y-90932000D03*
X65151000Y-90932000D03*
%TD*%
%TO.C,Q8*%
X73660000Y-88900000D03*
X74549000Y-90932000D03*
X72771000Y-90932000D03*
%TD*%
D18*
%TO.C,R5*%
X62230000Y-104013000D03*
X62230000Y-102235000D03*
%TD*%
%TO.C,R6*%
X66040000Y-104013000D03*
X66040000Y-102235000D03*
%TD*%
%TO.C,R7*%
X69850000Y-104013000D03*
X69850000Y-102235000D03*
%TD*%
%TO.C,RLED5*%
X62230000Y-95885000D03*
X62230000Y-94107000D03*
%TD*%
%TO.C,RLED7*%
X69850000Y-95885000D03*
X69850000Y-94107000D03*
%TD*%
%TO.C,RLED6*%
X66040000Y-95885000D03*
X66040000Y-94107000D03*
%TD*%
%TO.C,RLED8*%
X73660000Y-95885000D03*
X73660000Y-94107000D03*
%TD*%
D20*
%TO.C,LED7*%
X69850000Y-98171000D03*
X69850000Y-99949000D03*
%TD*%
D19*
%TO.C,Q7*%
X69850000Y-88900000D03*
X70739000Y-90932000D03*
X68961000Y-90932000D03*
%TD*%
D18*
%TO.C,R8*%
X73660000Y-104013000D03*
X73660000Y-102235000D03*
%TD*%
M02*
