M48
; DRILL file {KiCad (5.1.10)-1} date 04/18/22 16:40:56
; FORMAT={-:-/ absolute / inch / decimal}
; #@! TF.CreationDate,2022-04-18T16:40:56+02:00
; #@! TF.GenerationSoftware,Kicad,Pcbnew,(5.1.10)-1
FMAT,2
INCH
T1C0.0157
T2C0.0314
T3C0.0374
T4C0.0394
T5C0.0827
%
G90
G05
T1
X0.81Y-3.28
X0.96Y-3.28
X1.1Y-3.28
X1.23Y-3.65
X1.24Y-3.28
X1.54Y-4.24
X1.84Y-4.18
X2.36Y-4.1
X2.45Y-3.28
X2.6Y-3.28
X2.75Y-3.28
X2.9Y-3.28
T2
X0.9119Y-4.29
X0.9907Y-4.29
X1.0693Y-4.29
X1.1481Y-4.29
T3
X0.8163Y-3.06
X0.9147Y-3.06
X1.0131Y-3.06
X1.1116Y-3.06
X1.21Y-3.06
X2.4563Y-3.06
X2.5547Y-3.06
X2.6531Y-3.06
X2.7516Y-3.06
X2.85Y-3.06
T4
X1.4Y-3.3
X1.4Y-3.4
X1.4Y-3.5
X1.4Y-3.6
X1.4Y-3.7
X1.4Y-3.8
X1.4Y-3.9
X1.4Y-4.0
X2.3Y-3.3
X2.3Y-3.4
X2.3Y-3.5
X2.3Y-3.6
X2.3Y-3.7
X2.3Y-3.8
X2.3Y-3.9
X2.3Y-4.0
X2.56Y-4.29
X2.66Y-4.29
X2.76Y-4.29
T5
X0.76Y-2.89
X0.76Y-4.34
X2.92Y-2.89
X2.92Y-4.34
T0
M30
