%TF.GenerationSoftware,KiCad,Pcbnew,(5.1.10)-1*%
%TF.CreationDate,2022-04-18T16:41:03+02:00*%
%TF.ProjectId,ULN2803-Mosfet-S2-Mini,554c4e32-3830-4332-9d4d-6f736665742d,rev?*%
%TF.SameCoordinates,Original*%
%TF.FileFunction,Copper,L1,Top*%
%TF.FilePolarity,Positive*%
%FSLAX46Y46*%
G04 Gerber Fmt 4.6, Leading zero omitted, Abs format (unit mm)*
G04 Created by KiCad (PCBNEW (5.1.10)-1) date 2022-04-18 16:41:03*
%MOMM*%
%LPD*%
G01*
G04 APERTURE LIST*
%TA.AperFunction,ComponentPad*%
%ADD10O,2.000000X1.600000*%
%TD*%
%TA.AperFunction,ComponentPad*%
%ADD11R,2.000000X2.000000*%
%TD*%
%TA.AperFunction,ComponentPad*%
%ADD12C,1.270000*%
%TD*%
%TA.AperFunction,ComponentPad*%
%ADD13R,1.270000X1.270000*%
%TD*%
%TA.AperFunction,ComponentPad*%
%ADD14O,1.700000X1.700000*%
%TD*%
%TA.AperFunction,ComponentPad*%
%ADD15R,1.700000X1.700000*%
%TD*%
%TA.AperFunction,SMDPad,CuDef*%
%ADD16R,1.400000X1.016000*%
%TD*%
%TA.AperFunction,ComponentPad*%
%ADD17O,1.700000X1.950000*%
%TD*%
%TA.AperFunction,SMDPad,CuDef*%
%ADD18R,1.397000X1.016000*%
%TD*%
%TA.AperFunction,SMDPad,CuDef*%
%ADD19R,1.016000X1.143000*%
%TD*%
%TA.AperFunction,SMDPad,CuDef*%
%ADD20R,1.270000X0.889000*%
%TD*%
%TA.AperFunction,SMDPad,CuDef*%
%ADD21R,1.397000X1.397000*%
%TD*%
%TA.AperFunction,ViaPad*%
%ADD22C,0.800000*%
%TD*%
%TA.AperFunction,ViaPad*%
%ADD23C,2.300000*%
%TD*%
%TA.AperFunction,Conductor*%
%ADD24C,0.250000*%
%TD*%
%TA.AperFunction,Conductor*%
%ADD25C,0.800000*%
%TD*%
%TA.AperFunction,Conductor*%
%ADD26C,0.500000*%
%TD*%
%TA.AperFunction,Conductor*%
%ADD27C,0.400000*%
%TD*%
G04 APERTURE END LIST*
D10*
%TO.P,U1,16*%
%TO.N,Net-(U1-Pad16)*%
X35560000Y-101600000D03*
%TO.P,U1,15*%
%TO.N,Net-(U1-Pad15)*%
X35560000Y-99060000D03*
%TO.P,U1,14*%
%TO.N,IN2*%
X35560000Y-96520000D03*
%TO.P,U1,13*%
%TO.N,IN3*%
X35560000Y-93980000D03*
%TO.P,U1,12*%
%TO.N,IN4*%
X35560000Y-91440000D03*
%TO.P,U1,11*%
%TO.N,IN1*%
X35560000Y-88900000D03*
%TO.P,U1,10*%
%TO.N,GND*%
X35560000Y-86360000D03*
%TO.P,U1,9*%
%TO.N,V6*%
X35560000Y-83820000D03*
%TO.P,U1,8*%
%TO.N,Net-(U1-Pad8)*%
X58420000Y-83820000D03*
%TO.P,U1,7*%
%TO.N,IN8*%
X58420000Y-86360000D03*
%TO.P,U1,6*%
%TO.N,IN5*%
X58420000Y-88900000D03*
%TO.P,U1,5*%
%TO.N,IN6*%
X58420000Y-91440000D03*
%TO.P,U1,4*%
%TO.N,IN7*%
X58420000Y-93980000D03*
%TO.P,U1,3*%
%TO.N,SERVO*%
X58420000Y-96520000D03*
D11*
%TO.P,U1,1*%
%TO.N,Net-(U1-Pad1)*%
X58420000Y-101600000D03*
D10*
%TO.P,U1,2*%
%TO.N,Net-(U1-Pad2)*%
X58420000Y-99060000D03*
%TD*%
D12*
%TO.P,J4,4*%
%TO.N,GND*%
X23162260Y-108966000D03*
%TO.P,J4,3*%
%TO.N,V6*%
X25163780Y-108966000D03*
%TO.P,J4,2*%
%TO.N,Net-(J4-Pad2)*%
X27160220Y-108966000D03*
D13*
%TO.P,J4,1*%
%TO.N,SERVO*%
X29161740Y-108966000D03*
%TD*%
D14*
%TO.P,J3,3*%
%TO.N,GND*%
X65024000Y-108966000D03*
%TO.P,J3,2*%
%TO.N,V6*%
X67564000Y-108966000D03*
D15*
%TO.P,J3,1*%
%TO.N,SERVO*%
X70104000Y-108966000D03*
%TD*%
D16*
%TO.P,C1,2*%
%TO.N,GND*%
X41148000Y-85854000D03*
%TO.P,C1,1*%
%TO.N,V6*%
X41148000Y-84075000D03*
%TD*%
%TO.P,J1,1*%
%TO.N,Net-(D4-Pad2)*%
%TA.AperFunction,ComponentPad*%
G36*
G01*
X31584000Y-76999000D02*
X31584000Y-78449000D01*
G75*
G02*
X31334000Y-78699000I-250000J0D01*
G01*
X30134000Y-78699000D01*
G75*
G02*
X29884000Y-78449000I0J250000D01*
G01*
X29884000Y-76999000D01*
G75*
G02*
X30134000Y-76749000I250000J0D01*
G01*
X31334000Y-76749000D01*
G75*
G02*
X31584000Y-76999000I0J-250000D01*
G01*
G37*
%TD.AperFunction*%
D17*
%TO.P,J1,2*%
%TO.N,Net-(D3-Pad2)*%
X28234000Y-77724000D03*
%TO.P,J1,3*%
%TO.N,Net-(D2-Pad2)*%
X25734000Y-77724000D03*
%TO.P,J1,4*%
%TO.N,Net-(D1-Pad2)*%
X23234000Y-77724000D03*
%TO.P,J1,5*%
%TO.N,V6*%
X20734000Y-77724000D03*
%TD*%
D18*
%TO.P,RLED4,2*%
%TO.N,GND*%
X31496000Y-94107000D03*
%TO.P,RLED4,1*%
%TO.N,Net-(LED4-Pad2)*%
X31496000Y-95885000D03*
%TD*%
%TO.P,RLED2,2*%
%TO.N,GND*%
X24384000Y-94107000D03*
%TO.P,RLED2,1*%
%TO.N,Net-(LED2-Pad2)*%
X24384000Y-95885000D03*
%TD*%
%TO.P,RLED3,2*%
%TO.N,GND*%
X27940000Y-94107000D03*
%TO.P,RLED3,1*%
%TO.N,Net-(LED3-Pad2)*%
X27940000Y-95885000D03*
%TD*%
%TO.P,R3,2*%
%TO.N,GND*%
X27940000Y-102235000D03*
%TO.P,R3,1*%
%TO.N,IN3*%
X27940000Y-104013000D03*
%TD*%
%TO.P,RLED1,2*%
%TO.N,GND*%
X20574000Y-94107000D03*
%TO.P,RLED1,1*%
%TO.N,Net-(LED1-Pad2)*%
X20574000Y-95885000D03*
%TD*%
%TO.P,R2,2*%
%TO.N,GND*%
X24384000Y-102235000D03*
%TO.P,R2,1*%
%TO.N,IN2*%
X24384000Y-104013000D03*
%TD*%
%TO.P,R1,2*%
%TO.N,GND*%
X20574000Y-102235000D03*
%TO.P,R1,1*%
%TO.N,IN1*%
X20574000Y-104013000D03*
%TD*%
D19*
%TO.P,Q4,1*%
%TO.N,IN4*%
X30607000Y-90932000D03*
%TO.P,Q4,2*%
%TO.N,GND*%
X32385000Y-90932000D03*
%TO.P,Q4,3*%
%TO.N,Net-(D4-Pad2)*%
X31496000Y-88900000D03*
%TD*%
%TO.P,Q2,1*%
%TO.N,IN2*%
X23495000Y-90932000D03*
%TO.P,Q2,2*%
%TO.N,GND*%
X25273000Y-90932000D03*
%TO.P,Q2,3*%
%TO.N,Net-(D2-Pad2)*%
X24384000Y-88900000D03*
%TD*%
%TO.P,Q1,1*%
%TO.N,IN1*%
X19685000Y-90932000D03*
%TO.P,Q1,2*%
%TO.N,GND*%
X21463000Y-90932000D03*
%TO.P,Q1,3*%
%TO.N,Net-(D1-Pad2)*%
X20574000Y-88900000D03*
%TD*%
D20*
%TO.P,LED2,1*%
%TO.N,IN2*%
X24384000Y-99949000D03*
%TO.P,LED2,2*%
%TO.N,Net-(LED2-Pad2)*%
X24384000Y-98171000D03*
%TD*%
D21*
%TO.P,D2,2*%
%TO.N,Net-(D2-Pad2)*%
X24384000Y-84963000D03*
%TO.P,D2,1*%
%TO.N,GND*%
X24384000Y-81661000D03*
%TD*%
D20*
%TO.P,LED1,1*%
%TO.N,IN1*%
X20574000Y-99949000D03*
%TO.P,LED1,2*%
%TO.N,Net-(LED1-Pad2)*%
X20574000Y-98171000D03*
%TD*%
D21*
%TO.P,D4,2*%
%TO.N,Net-(D4-Pad2)*%
X31496000Y-84963000D03*
%TO.P,D4,1*%
%TO.N,GND*%
X31496000Y-81661000D03*
%TD*%
%TO.P,D3,2*%
%TO.N,Net-(D3-Pad2)*%
X27940000Y-84963000D03*
%TO.P,D3,1*%
%TO.N,GND*%
X27940000Y-81661000D03*
%TD*%
%TO.P,D1,2*%
%TO.N,Net-(D1-Pad2)*%
X20574000Y-84963000D03*
%TO.P,D1,1*%
%TO.N,GND*%
X20574000Y-81661000D03*
%TD*%
D20*
%TO.P,LED4,1*%
%TO.N,IN4*%
X31496000Y-99949000D03*
%TO.P,LED4,2*%
%TO.N,Net-(LED4-Pad2)*%
X31496000Y-98171000D03*
%TD*%
D18*
%TO.P,R4,2*%
%TO.N,GND*%
X31496000Y-102235000D03*
%TO.P,R4,1*%
%TO.N,IN4*%
X31496000Y-104013000D03*
%TD*%
D19*
%TO.P,Q3,1*%
%TO.N,IN3*%
X27051000Y-90932000D03*
%TO.P,Q3,2*%
%TO.N,GND*%
X28829000Y-90932000D03*
%TO.P,Q3,3*%
%TO.N,Net-(D3-Pad2)*%
X27940000Y-88900000D03*
%TD*%
D20*
%TO.P,LED3,1*%
%TO.N,IN3*%
X27940000Y-99949000D03*
%TO.P,LED3,2*%
%TO.N,Net-(LED3-Pad2)*%
X27940000Y-98171000D03*
%TD*%
%TO.P,J2,1*%
%TO.N,Net-(D8-Pad2)*%
%TA.AperFunction,ComponentPad*%
G36*
G01*
X73240000Y-76999000D02*
X73240000Y-78449000D01*
G75*
G02*
X72990000Y-78699000I-250000J0D01*
G01*
X71790000Y-78699000D01*
G75*
G02*
X71540000Y-78449000I0J250000D01*
G01*
X71540000Y-76999000D01*
G75*
G02*
X71790000Y-76749000I250000J0D01*
G01*
X72990000Y-76749000D01*
G75*
G02*
X73240000Y-76999000I0J-250000D01*
G01*
G37*
%TD.AperFunction*%
D17*
%TO.P,J2,2*%
%TO.N,Net-(D7-Pad2)*%
X69890000Y-77724000D03*
%TO.P,J2,3*%
%TO.N,Net-(D6-Pad2)*%
X67390000Y-77724000D03*
%TO.P,J2,4*%
%TO.N,Net-(D5-Pad2)*%
X64890000Y-77724000D03*
%TO.P,J2,5*%
%TO.N,V6*%
X62390000Y-77724000D03*
%TD*%
D21*
%TO.P,D5,1*%
%TO.N,GND*%
X62230000Y-81661000D03*
%TO.P,D5,2*%
%TO.N,Net-(D5-Pad2)*%
X62230000Y-84963000D03*
%TD*%
D16*
%TO.P,C2,2*%
%TO.N,GND*%
X41402000Y-107062000D03*
%TO.P,C2,1*%
%TO.N,V6*%
X41402000Y-105283000D03*
%TD*%
D21*
%TO.P,D7,1*%
%TO.N,GND*%
X69850000Y-81661000D03*
%TO.P,D7,2*%
%TO.N,Net-(D7-Pad2)*%
X69850000Y-84963000D03*
%TD*%
%TO.P,D8,1*%
%TO.N,GND*%
X73660000Y-81661000D03*
%TO.P,D8,2*%
%TO.N,Net-(D8-Pad2)*%
X73660000Y-84963000D03*
%TD*%
%TO.P,D6,1*%
%TO.N,GND*%
X66040000Y-81661000D03*
%TO.P,D6,2*%
%TO.N,Net-(D6-Pad2)*%
X66040000Y-84963000D03*
%TD*%
D20*
%TO.P,LED5,2*%
%TO.N,Net-(LED5-Pad2)*%
X62230000Y-98171000D03*
%TO.P,LED5,1*%
%TO.N,IN5*%
X62230000Y-99949000D03*
%TD*%
%TO.P,LED6,2*%
%TO.N,Net-(LED6-Pad2)*%
X66040000Y-98171000D03*
%TO.P,LED6,1*%
%TO.N,IN6*%
X66040000Y-99949000D03*
%TD*%
%TO.P,LED8,2*%
%TO.N,Net-(LED8-Pad2)*%
X73660000Y-98171000D03*
%TO.P,LED8,1*%
%TO.N,IN8*%
X73660000Y-99949000D03*
%TD*%
D19*
%TO.P,Q5,3*%
%TO.N,Net-(D5-Pad2)*%
X62230000Y-88900000D03*
%TO.P,Q5,2*%
%TO.N,GND*%
X63119000Y-90932000D03*
%TO.P,Q5,1*%
%TO.N,IN5*%
X61341000Y-90932000D03*
%TD*%
%TO.P,Q6,3*%
%TO.N,Net-(D6-Pad2)*%
X66040000Y-88900000D03*
%TO.P,Q6,2*%
%TO.N,GND*%
X66929000Y-90932000D03*
%TO.P,Q6,1*%
%TO.N,IN6*%
X65151000Y-90932000D03*
%TD*%
%TO.P,Q8,3*%
%TO.N,Net-(D8-Pad2)*%
X73660000Y-88900000D03*
%TO.P,Q8,2*%
%TO.N,GND*%
X74549000Y-90932000D03*
%TO.P,Q8,1*%
%TO.N,IN8*%
X72771000Y-90932000D03*
%TD*%
D18*
%TO.P,R5,1*%
%TO.N,IN5*%
X62230000Y-104013000D03*
%TO.P,R5,2*%
%TO.N,GND*%
X62230000Y-102235000D03*
%TD*%
%TO.P,R6,1*%
%TO.N,IN6*%
X66040000Y-104013000D03*
%TO.P,R6,2*%
%TO.N,GND*%
X66040000Y-102235000D03*
%TD*%
%TO.P,R7,1*%
%TO.N,IN7*%
X69850000Y-104013000D03*
%TO.P,R7,2*%
%TO.N,GND*%
X69850000Y-102235000D03*
%TD*%
%TO.P,RLED5,1*%
%TO.N,Net-(LED5-Pad2)*%
X62230000Y-95885000D03*
%TO.P,RLED5,2*%
%TO.N,GND*%
X62230000Y-94107000D03*
%TD*%
%TO.P,RLED7,1*%
%TO.N,Net-(LED7-Pad2)*%
X69850000Y-95885000D03*
%TO.P,RLED7,2*%
%TO.N,GND*%
X69850000Y-94107000D03*
%TD*%
%TO.P,RLED6,1*%
%TO.N,Net-(LED6-Pad2)*%
X66040000Y-95885000D03*
%TO.P,RLED6,2*%
%TO.N,GND*%
X66040000Y-94107000D03*
%TD*%
%TO.P,RLED8,1*%
%TO.N,Net-(LED8-Pad2)*%
X73660000Y-95885000D03*
%TO.P,RLED8,2*%
%TO.N,GND*%
X73660000Y-94107000D03*
%TD*%
D20*
%TO.P,LED7,2*%
%TO.N,Net-(LED7-Pad2)*%
X69850000Y-98171000D03*
%TO.P,LED7,1*%
%TO.N,IN7*%
X69850000Y-99949000D03*
%TD*%
D19*
%TO.P,Q7,3*%
%TO.N,Net-(D7-Pad2)*%
X69850000Y-88900000D03*
%TO.P,Q7,2*%
%TO.N,GND*%
X70739000Y-90932000D03*
%TO.P,Q7,1*%
%TO.N,IN7*%
X68961000Y-90932000D03*
%TD*%
D18*
%TO.P,R8,1*%
%TO.N,IN8*%
X73660000Y-104013000D03*
%TO.P,R8,2*%
%TO.N,GND*%
X73660000Y-102235000D03*
%TD*%
D22*
%TO.N,GND*%
X20574000Y-83312000D03*
X24384000Y-83312000D03*
X27940000Y-83312000D03*
X31496000Y-83312000D03*
X62230000Y-83312000D03*
D23*
X19304000Y-73406000D03*
D22*
X66040000Y-83312000D03*
X69850000Y-83312000D03*
X73660000Y-83312000D03*
D23*
X19304000Y-110236000D03*
X74168000Y-110236000D03*
X74168000Y-73406000D03*
D22*
X39116000Y-107696000D03*
%TO.N,IN4*%
X31242000Y-92710000D03*
%TO.N,V6*%
X46736000Y-106172000D03*
%TO.N,SERVO*%
X59944000Y-104140000D03*
%TD*%
D24*
%TO.N,GND*%
X67063501Y-90797499D02*
X67190501Y-90797499D01*
X66929000Y-90932000D02*
X67063501Y-90797499D01*
X67190501Y-90797499D02*
X67190501Y-82430501D01*
X66421000Y-81661000D02*
X66040000Y-81661000D01*
X67190501Y-82430501D02*
X66421000Y-81661000D01*
X63253501Y-90797499D02*
X63253501Y-81795501D01*
X63119000Y-90932000D02*
X63253501Y-90797499D01*
X63119000Y-81661000D02*
X62230000Y-81661000D01*
X63253501Y-81795501D02*
X63119000Y-81661000D01*
X74683501Y-82684501D02*
X73660000Y-81661000D01*
X74683501Y-90797499D02*
X74683501Y-82684501D01*
X74549000Y-90932000D02*
X74683501Y-90797499D01*
X70873501Y-82684501D02*
X69850000Y-81661000D01*
X70873501Y-90797499D02*
X70873501Y-82684501D01*
X70739000Y-90932000D02*
X70873501Y-90797499D01*
X74549000Y-93218000D02*
X73660000Y-94107000D01*
X74549000Y-90932000D02*
X74549000Y-93218000D01*
X70739000Y-93218000D02*
X69850000Y-94107000D01*
X70739000Y-90932000D02*
X70739000Y-93218000D01*
X66929000Y-93218000D02*
X66040000Y-94107000D01*
X66929000Y-90932000D02*
X66929000Y-93218000D01*
X63119000Y-93218000D02*
X62230000Y-94107000D01*
X63119000Y-90932000D02*
X63119000Y-93218000D01*
X74683501Y-101211499D02*
X73660000Y-102235000D01*
X74683501Y-95130501D02*
X74683501Y-101211499D01*
X73660000Y-94107000D02*
X74683501Y-95130501D01*
X63253501Y-101211499D02*
X62230000Y-102235000D01*
X63253501Y-95130501D02*
X63253501Y-101211499D01*
X62230000Y-94107000D02*
X63253501Y-95130501D01*
X25534501Y-82430501D02*
X24765000Y-81661000D01*
X28963501Y-82684501D02*
X27940000Y-81661000D01*
X28963501Y-90797499D02*
X28963501Y-82684501D01*
X28829000Y-90932000D02*
X28963501Y-90797499D01*
X21597501Y-81795501D02*
X21463000Y-81661000D01*
X21463000Y-90932000D02*
X21597501Y-90797499D01*
X21463000Y-81661000D02*
X20574000Y-81661000D01*
X21597501Y-90797499D02*
X21597501Y-81795501D01*
X32385000Y-93218000D02*
X31496000Y-94107000D01*
X32385000Y-90932000D02*
X32385000Y-93218000D01*
X21597501Y-101211499D02*
X20574000Y-102235000D01*
X21597501Y-95130501D02*
X21597501Y-101211499D01*
X20574000Y-94107000D02*
X21597501Y-95130501D01*
X28829000Y-90932000D02*
X28829000Y-93218000D01*
X28829000Y-93218000D02*
X27940000Y-94107000D01*
X25273000Y-93218000D02*
X24384000Y-94107000D01*
X25273000Y-90932000D02*
X25273000Y-93218000D01*
X32519501Y-95130501D02*
X32519501Y-101211499D01*
X31496000Y-94107000D02*
X32519501Y-95130501D01*
X32519501Y-101211499D02*
X31496000Y-102235000D01*
X32385000Y-90932000D02*
X32519501Y-90797499D01*
X32519501Y-82684501D02*
X31496000Y-81661000D01*
X21463000Y-93218000D02*
X20574000Y-94107000D01*
X21463000Y-90932000D02*
X21463000Y-93218000D01*
X32519501Y-90797499D02*
X32519501Y-82684501D01*
X25273000Y-90932000D02*
X25407501Y-90797499D01*
X25534501Y-90797499D02*
X25534501Y-82430501D01*
X25407501Y-90797499D02*
X25534501Y-90797499D01*
X24765000Y-81661000D02*
X24384000Y-81661000D01*
X20574000Y-83312000D02*
X20574000Y-81661000D01*
X24384000Y-83312000D02*
X24384000Y-81661000D01*
X27940000Y-83312000D02*
X27940000Y-81661000D01*
X31496000Y-83312000D02*
X31496000Y-81661000D01*
X25407501Y-101211499D02*
X24384000Y-102235000D01*
X25407501Y-95130501D02*
X25407501Y-101211499D01*
X24384000Y-94107000D02*
X25407501Y-95130501D01*
X28963501Y-101211499D02*
X27940000Y-102235000D01*
X28963501Y-94940001D02*
X28963501Y-101211499D01*
X28130500Y-94107000D02*
X28963501Y-94940001D01*
X27940000Y-94107000D02*
X28130500Y-94107000D01*
X70873501Y-95130501D02*
X69850000Y-94107000D01*
X70873501Y-101211499D02*
X70873501Y-95130501D01*
X69850000Y-102235000D02*
X70873501Y-101211499D01*
X67063501Y-95130501D02*
X66040000Y-94107000D01*
X67063501Y-101211499D02*
X67063501Y-95130501D01*
X66040000Y-102235000D02*
X67063501Y-101211499D01*
X73660000Y-83312000D02*
X73660000Y-81661000D01*
X69850000Y-83312000D02*
X69850000Y-81661000D01*
X66040000Y-83312000D02*
X66040000Y-81661000D01*
X62230000Y-83312000D02*
X62230000Y-81661000D01*
D25*
X36066000Y-85854000D02*
X35560000Y-86360000D01*
X41148000Y-85854000D02*
X36066000Y-85854000D01*
D24*
X41457999Y-107116999D02*
X41402000Y-107061000D01*
D26*
X39750000Y-107062000D02*
X39116000Y-107696000D01*
X41402000Y-107062000D02*
X39750000Y-107062000D01*
D24*
%TO.N,Net-(D1-Pad2)*%
X20574000Y-84963000D02*
X20574000Y-88900000D01*
D27*
X19475499Y-83864499D02*
X20574000Y-84963000D01*
X19475499Y-80642499D02*
X19475499Y-83864499D01*
X19555499Y-80562499D02*
X19475499Y-80642499D01*
X20395501Y-80562499D02*
X19555499Y-80562499D01*
X23234000Y-77724000D02*
X20395501Y-80562499D01*
D24*
%TO.N,Net-(D2-Pad2)*%
X24384000Y-84963000D02*
X24384000Y-88900000D01*
D27*
X23285499Y-83864499D02*
X24384000Y-84963000D01*
X23285499Y-80172501D02*
X23285499Y-83864499D01*
X25734000Y-77724000D02*
X23285499Y-80172501D01*
D24*
%TO.N,Net-(D3-Pad2)*%
X27940000Y-84963000D02*
X27940000Y-88900000D01*
D27*
X27432000Y-84455000D02*
X27940000Y-84963000D01*
X26841499Y-83397501D02*
X27432000Y-83988002D01*
X26841499Y-79116501D02*
X26841499Y-83397501D01*
X27432000Y-83988002D02*
X27432000Y-84455000D01*
X28234000Y-77724000D02*
X26841499Y-79116501D01*
D24*
%TO.N,Net-(D4-Pad2)*%
X31496000Y-84963000D02*
X31496000Y-88900000D01*
D27*
X30397499Y-78060501D02*
X30397499Y-83864499D01*
X30397499Y-83864499D02*
X31496000Y-84963000D01*
X30734000Y-77724000D02*
X30397499Y-78060501D01*
D24*
%TO.N,IN1*%
X19685000Y-90932000D02*
X19550499Y-91066501D01*
X19550499Y-98925499D02*
X20574000Y-99949000D01*
X19550499Y-91066501D02*
X19550499Y-98925499D01*
X19550499Y-102989499D02*
X20574000Y-104013000D01*
X19550499Y-100972501D02*
X19550499Y-102989499D01*
X20574000Y-99949000D02*
X19550499Y-100972501D01*
X20574000Y-104013000D02*
X20574000Y-106680000D01*
X20574000Y-106680000D02*
X20828000Y-106934000D01*
X20828000Y-106934000D02*
X38100000Y-106934000D01*
X38100000Y-106934000D02*
X39370000Y-105664000D01*
X39370000Y-105664000D02*
X39370000Y-89662000D01*
X38608000Y-88900000D02*
X35560000Y-88900000D01*
X39370000Y-89662000D02*
X38608000Y-88900000D01*
%TO.N,IN2*%
X23495000Y-90932000D02*
X23360499Y-91066501D01*
X23360499Y-91066501D02*
X23360499Y-98925499D01*
X23360499Y-98925499D02*
X24384000Y-99949000D01*
X23360499Y-102989499D02*
X24384000Y-104013000D01*
X23360499Y-100972501D02*
X23360499Y-102989499D01*
X24384000Y-99949000D02*
X23360499Y-100972501D01*
X34234990Y-97845010D02*
X34234990Y-105862990D01*
X35560000Y-96520000D02*
X34234990Y-97845010D01*
X34234990Y-105862990D02*
X33671980Y-106426000D01*
X33671980Y-106426000D02*
X24638000Y-106426000D01*
X24384000Y-106172000D02*
X24384000Y-104013000D01*
X24638000Y-106426000D02*
X24384000Y-106172000D01*
%TO.N,IN3*%
X27051000Y-90932000D02*
X26916499Y-91066501D01*
X26916499Y-91066501D02*
X26916499Y-98925499D01*
X26916499Y-98925499D02*
X27940000Y-99949000D01*
X26916499Y-102989499D02*
X27940000Y-104013000D01*
X26916499Y-100972501D02*
X26916499Y-102989499D01*
X27940000Y-99949000D02*
X26916499Y-100972501D01*
X35560000Y-93980000D02*
X33274000Y-96266000D01*
X33274000Y-104026502D02*
X31636502Y-105664000D01*
X33274000Y-96266000D02*
X33274000Y-104026502D01*
X29591000Y-105664000D02*
X27940000Y-104013000D01*
X31636502Y-105664000D02*
X29591000Y-105664000D01*
%TO.N,IN4*%
X30472499Y-91066501D02*
X30472499Y-98925499D01*
X30607000Y-90932000D02*
X30472499Y-91066501D01*
X30472499Y-98925499D02*
X31496000Y-99949000D01*
X30472499Y-102989499D02*
X31496000Y-104013000D01*
X30472499Y-100972501D02*
X30472499Y-102989499D01*
X31496000Y-99949000D02*
X30472499Y-100972501D01*
X30607000Y-92075000D02*
X31242000Y-92710000D01*
X30607000Y-90932000D02*
X30607000Y-92075000D01*
%TO.N,Net-(LED1-Pad2)*%
X20574000Y-98171000D02*
X20574000Y-95885000D01*
%TO.N,Net-(LED2-Pad2)*%
X24384000Y-98171000D02*
X24384000Y-95885000D01*
%TO.N,Net-(LED3-Pad2)*%
X27940000Y-98171000D02*
X27940000Y-95885000D01*
%TO.N,Net-(LED4-Pad2)*%
X31496000Y-98171000D02*
X31496000Y-95885000D01*
%TO.N,Net-(D5-Pad2)*%
X62230000Y-84963000D02*
X62230000Y-88900000D01*
D27*
X61131499Y-83864499D02*
X62230000Y-84963000D01*
X61131499Y-80642499D02*
X61131499Y-83864499D01*
X61211499Y-80562499D02*
X61131499Y-80642499D01*
X62051501Y-80562499D02*
X61211499Y-80562499D01*
X64890000Y-77724000D02*
X62051501Y-80562499D01*
D24*
%TO.N,Net-(D6-Pad2)*%
X66040000Y-84963000D02*
X66040000Y-88900000D01*
D27*
X64941499Y-83864499D02*
X66040000Y-84963000D01*
X64941499Y-80172501D02*
X64941499Y-83864499D01*
X67390000Y-77724000D02*
X64941499Y-80172501D01*
D24*
%TO.N,Net-(D7-Pad2)*%
X69850000Y-84963000D02*
X69850000Y-88900000D01*
D27*
X68751499Y-83864499D02*
X69850000Y-84963000D01*
X68751499Y-78862501D02*
X68751499Y-83864499D01*
X69890000Y-77724000D02*
X68751499Y-78862501D01*
D24*
%TO.N,Net-(D8-Pad2)*%
X73660000Y-84963000D02*
X73660000Y-88900000D01*
D27*
X72390000Y-83693000D02*
X73660000Y-84963000D01*
X72390000Y-77724000D02*
X72390000Y-83693000D01*
D24*
%TO.N,Net-(LED5-Pad2)*%
X62230000Y-98171000D02*
X62230000Y-95885000D01*
%TO.N,IN5*%
X61206499Y-98925499D02*
X62230000Y-99949000D01*
X61206499Y-91066501D02*
X61206499Y-98925499D01*
X61341000Y-90932000D02*
X61206499Y-91066501D01*
X61206499Y-102989499D02*
X62230000Y-104013000D01*
X61206499Y-100972501D02*
X61206499Y-102989499D01*
X62230000Y-99949000D02*
X61206499Y-100972501D01*
X59309000Y-88900000D02*
X61341000Y-90932000D01*
X58420000Y-88900000D02*
X59309000Y-88900000D01*
%TO.N,Net-(LED6-Pad2)*%
X66040000Y-98171000D02*
X66040000Y-95885000D01*
%TO.N,IN6*%
X65016499Y-98925499D02*
X66040000Y-99949000D01*
X65016499Y-91066501D02*
X65016499Y-98925499D01*
X65151000Y-90932000D02*
X65016499Y-91066501D01*
X65016499Y-102989499D02*
X66040000Y-104013000D01*
X65016499Y-100972501D02*
X65016499Y-102989499D01*
X66040000Y-99949000D02*
X65016499Y-100972501D01*
X65206999Y-104846001D02*
X66040000Y-104013000D01*
X61271499Y-104846001D02*
X65206999Y-104846001D01*
X60756490Y-104330992D02*
X61271499Y-104846001D01*
X60756490Y-93776490D02*
X60756490Y-104330992D01*
X58420000Y-91440000D02*
X60756490Y-93776490D01*
%TO.N,Net-(LED7-Pad2)*%
X69850000Y-98171000D02*
X69850000Y-95885000D01*
%TO.N,IN7*%
X68826499Y-98925499D02*
X69850000Y-99949000D01*
X68826499Y-91066501D02*
X68826499Y-98925499D01*
X68961000Y-90932000D02*
X68826499Y-91066501D01*
X68826499Y-102989499D02*
X69850000Y-104013000D01*
X68826499Y-100972501D02*
X68826499Y-102989499D01*
X69850000Y-99949000D02*
X68826499Y-100972501D01*
X68566989Y-105296011D02*
X69850000Y-104013000D01*
X59531009Y-105296011D02*
X68566989Y-105296011D01*
X57094990Y-102859992D02*
X59531009Y-105296011D01*
X57094990Y-95305010D02*
X57094990Y-102859992D01*
X58420000Y-93980000D02*
X57094990Y-95305010D01*
%TO.N,Net-(LED8-Pad2)*%
X73660000Y-98171000D02*
X73660000Y-95885000D01*
%TO.N,IN8*%
X72636499Y-98925499D02*
X73660000Y-99949000D01*
X72636499Y-91066501D02*
X72636499Y-98925499D01*
X72771000Y-90932000D02*
X72636499Y-91066501D01*
X72636499Y-102989499D02*
X73660000Y-104013000D01*
X72636499Y-100972501D02*
X72636499Y-102989499D01*
X73660000Y-99949000D02*
X72636499Y-100972501D01*
X73660000Y-104013000D02*
X73660000Y-104140000D01*
X73660000Y-104140000D02*
X71628000Y-106172000D01*
X71628000Y-106172000D02*
X59436000Y-106172000D01*
X56644980Y-88135020D02*
X58420000Y-86360000D01*
X56644980Y-103380980D02*
X56644980Y-88135020D01*
X59436000Y-106172000D02*
X56644980Y-103380980D01*
D26*
%TO.N,V6*%
X40893000Y-83820000D02*
X41148000Y-84075000D01*
X35560000Y-83820000D02*
X40893000Y-83820000D01*
X42348000Y-84075000D02*
X45212000Y-86939000D01*
X41148000Y-84075000D02*
X42348000Y-84075000D01*
X45212000Y-86939000D02*
X45212000Y-104648000D01*
X45212000Y-104648000D02*
X46736000Y-106172000D01*
X44577000Y-105283000D02*
X45212000Y-104648000D01*
X41402000Y-105283000D02*
X44577000Y-105283000D01*
D24*
%TO.N,SERVO*%
X29161740Y-108966000D02*
X54610000Y-108966000D01*
X68478989Y-110591011D02*
X70104000Y-108966000D01*
X56235011Y-110591011D02*
X68478989Y-110591011D01*
X54610000Y-108966000D02*
X56235011Y-110591011D01*
X59944000Y-98044000D02*
X59944000Y-104140000D01*
X58420000Y-96520000D02*
X59944000Y-98044000D01*
%TD*%
M02*
