%TF.GenerationSoftware,KiCad,Pcbnew,(5.1.10)-1*%
%TF.CreationDate,2022-04-18T16:41:03+02:00*%
%TF.ProjectId,ULN2803-Mosfet-S2-Mini,554c4e32-3830-4332-9d4d-6f736665742d,rev?*%
%TF.SameCoordinates,Original*%
%TF.FileFunction,Copper,L2,Bot*%
%TF.FilePolarity,Positive*%
%FSLAX46Y46*%
G04 Gerber Fmt 4.6, Leading zero omitted, Abs format (unit mm)*
G04 Created by KiCad (PCBNEW (5.1.10)-1) date 2022-04-18 16:41:03*
%MOMM*%
%LPD*%
G01*
G04 APERTURE LIST*
%TA.AperFunction,ComponentPad*%
%ADD10O,2.000000X1.600000*%
%TD*%
%TA.AperFunction,ComponentPad*%
%ADD11R,2.000000X2.000000*%
%TD*%
%TA.AperFunction,ComponentPad*%
%ADD12C,1.270000*%
%TD*%
%TA.AperFunction,ComponentPad*%
%ADD13R,1.270000X1.270000*%
%TD*%
%TA.AperFunction,ComponentPad*%
%ADD14O,1.700000X1.700000*%
%TD*%
%TA.AperFunction,ComponentPad*%
%ADD15R,1.700000X1.700000*%
%TD*%
%TA.AperFunction,ComponentPad*%
%ADD16O,1.700000X1.950000*%
%TD*%
%TA.AperFunction,ViaPad*%
%ADD17C,0.800000*%
%TD*%
%TA.AperFunction,ViaPad*%
%ADD18C,2.300000*%
%TD*%
%TA.AperFunction,Conductor*%
%ADD19C,0.250000*%
%TD*%
%TA.AperFunction,Conductor*%
%ADD20C,0.500000*%
%TD*%
%TA.AperFunction,Conductor*%
%ADD21C,0.254000*%
%TD*%
%TA.AperFunction,Conductor*%
%ADD22C,0.100000*%
%TD*%
G04 APERTURE END LIST*
D10*
%TO.P,U1,16*%
%TO.N,Net-(U1-Pad16)*%
X35560000Y-101600000D03*
%TO.P,U1,15*%
%TO.N,Net-(U1-Pad15)*%
X35560000Y-99060000D03*
%TO.P,U1,14*%
%TO.N,IN2*%
X35560000Y-96520000D03*
%TO.P,U1,13*%
%TO.N,IN3*%
X35560000Y-93980000D03*
%TO.P,U1,12*%
%TO.N,IN4*%
X35560000Y-91440000D03*
%TO.P,U1,11*%
%TO.N,IN1*%
X35560000Y-88900000D03*
%TO.P,U1,10*%
%TO.N,GND*%
X35560000Y-86360000D03*
%TO.P,U1,9*%
%TO.N,V6*%
X35560000Y-83820000D03*
%TO.P,U1,8*%
%TO.N,Net-(U1-Pad8)*%
X58420000Y-83820000D03*
%TO.P,U1,7*%
%TO.N,IN8*%
X58420000Y-86360000D03*
%TO.P,U1,6*%
%TO.N,IN5*%
X58420000Y-88900000D03*
%TO.P,U1,5*%
%TO.N,IN6*%
X58420000Y-91440000D03*
%TO.P,U1,4*%
%TO.N,IN7*%
X58420000Y-93980000D03*
%TO.P,U1,3*%
%TO.N,SERVO*%
X58420000Y-96520000D03*
D11*
%TO.P,U1,1*%
%TO.N,Net-(U1-Pad1)*%
X58420000Y-101600000D03*
D10*
%TO.P,U1,2*%
%TO.N,Net-(U1-Pad2)*%
X58420000Y-99060000D03*
%TD*%
D12*
%TO.P,J4,4*%
%TO.N,GND*%
X23162260Y-108966000D03*
%TO.P,J4,3*%
%TO.N,V6*%
X25163780Y-108966000D03*
%TO.P,J4,2*%
%TO.N,Net-(J4-Pad2)*%
X27160220Y-108966000D03*
D13*
%TO.P,J4,1*%
%TO.N,SERVO*%
X29161740Y-108966000D03*
%TD*%
D14*
%TO.P,J3,3*%
%TO.N,GND*%
X65024000Y-108966000D03*
%TO.P,J3,2*%
%TO.N,V6*%
X67564000Y-108966000D03*
D15*
%TO.P,J3,1*%
%TO.N,SERVO*%
X70104000Y-108966000D03*
%TD*%
%TO.P,J1,1*%
%TO.N,Net-(D4-Pad2)*%
%TA.AperFunction,ComponentPad*%
G36*
G01*
X31584000Y-76999000D02*
X31584000Y-78449000D01*
G75*
G02*
X31334000Y-78699000I-250000J0D01*
G01*
X30134000Y-78699000D01*
G75*
G02*
X29884000Y-78449000I0J250000D01*
G01*
X29884000Y-76999000D01*
G75*
G02*
X30134000Y-76749000I250000J0D01*
G01*
X31334000Y-76749000D01*
G75*
G02*
X31584000Y-76999000I0J-250000D01*
G01*
G37*
%TD.AperFunction*%
D16*
%TO.P,J1,2*%
%TO.N,Net-(D3-Pad2)*%
X28234000Y-77724000D03*
%TO.P,J1,3*%
%TO.N,Net-(D2-Pad2)*%
X25734000Y-77724000D03*
%TO.P,J1,4*%
%TO.N,Net-(D1-Pad2)*%
X23234000Y-77724000D03*
%TO.P,J1,5*%
%TO.N,V6*%
X20734000Y-77724000D03*
%TD*%
%TO.P,J2,1*%
%TO.N,Net-(D8-Pad2)*%
%TA.AperFunction,ComponentPad*%
G36*
G01*
X73240000Y-76999000D02*
X73240000Y-78449000D01*
G75*
G02*
X72990000Y-78699000I-250000J0D01*
G01*
X71790000Y-78699000D01*
G75*
G02*
X71540000Y-78449000I0J250000D01*
G01*
X71540000Y-76999000D01*
G75*
G02*
X71790000Y-76749000I250000J0D01*
G01*
X72990000Y-76749000D01*
G75*
G02*
X73240000Y-76999000I0J-250000D01*
G01*
G37*
%TD.AperFunction*%
%TO.P,J2,2*%
%TO.N,Net-(D7-Pad2)*%
X69890000Y-77724000D03*
%TO.P,J2,3*%
%TO.N,Net-(D6-Pad2)*%
X67390000Y-77724000D03*
%TO.P,J2,4*%
%TO.N,Net-(D5-Pad2)*%
X64890000Y-77724000D03*
%TO.P,J2,5*%
%TO.N,V6*%
X62390000Y-77724000D03*
%TD*%
D17*
%TO.N,GND*%
X20574000Y-83312000D03*
X24384000Y-83312000D03*
X27940000Y-83312000D03*
X31496000Y-83312000D03*
X62230000Y-83312000D03*
D18*
X19304000Y-73406000D03*
D17*
X66040000Y-83312000D03*
X69850000Y-83312000D03*
X73660000Y-83312000D03*
D18*
X19304000Y-110236000D03*
X74168000Y-110236000D03*
X74168000Y-73406000D03*
D17*
X39116000Y-107696000D03*
%TO.N,IN4*%
X31242000Y-92710000D03*
%TO.N,V6*%
X46736000Y-106172000D03*
%TO.N,SERVO*%
X59944000Y-104140000D03*
%TD*%
D19*
%TO.N,IN4*%
X31242000Y-92710000D02*
X33528000Y-92710000D01*
X34798000Y-91440000D02*
X35560000Y-91440000D01*
X33528000Y-92710000D02*
X34798000Y-91440000D01*
D20*
%TO.N,V6*%
X20734000Y-77724000D02*
X20734000Y-76294000D01*
X20734000Y-76294000D02*
X21336000Y-75692000D01*
X62390000Y-76614000D02*
X62390000Y-77724000D01*
X61468000Y-75692000D02*
X62390000Y-76614000D01*
X35560000Y-83820000D02*
X35560000Y-75692000D01*
X21336000Y-75692000D02*
X35560000Y-75692000D01*
X47498000Y-75692000D02*
X61468000Y-75692000D01*
X35560000Y-75692000D02*
X47498000Y-75692000D01*
X46736000Y-106172000D02*
X56896000Y-106172000D01*
X56896000Y-106172000D02*
X61468000Y-110744000D01*
X65786000Y-110744000D02*
X67564000Y-108966000D01*
X61468000Y-110744000D02*
X65786000Y-110744000D01*
X42856999Y-110051001D02*
X46736000Y-106172000D01*
X26248781Y-110051001D02*
X42856999Y-110051001D01*
X25163780Y-108966000D02*
X26248781Y-110051001D01*
D19*
%TO.N,SERVO*%
X59944000Y-104140000D02*
X59944000Y-106426000D01*
X59944000Y-106426000D02*
X60706000Y-107188000D01*
X68326000Y-107188000D02*
X70104000Y-108966000D01*
X60706000Y-107188000D02*
X68326000Y-107188000D01*
%TD*%
D21*
%TO.N,GND*%
X75007001Y-111075000D02*
X66706578Y-111075000D01*
X67345040Y-110436539D01*
X67417740Y-110451000D01*
X67710260Y-110451000D01*
X67997158Y-110393932D01*
X68267411Y-110281990D01*
X68510632Y-110119475D01*
X68642487Y-109987620D01*
X68664498Y-110060180D01*
X68723463Y-110170494D01*
X68802815Y-110267185D01*
X68899506Y-110346537D01*
X69009820Y-110405502D01*
X69129518Y-110441812D01*
X69254000Y-110454072D01*
X70954000Y-110454072D01*
X71078482Y-110441812D01*
X71198180Y-110405502D01*
X71308494Y-110346537D01*
X71405185Y-110267185D01*
X71484537Y-110170494D01*
X71543502Y-110060180D01*
X71579812Y-109940482D01*
X71592072Y-109816000D01*
X71592072Y-108116000D01*
X71579812Y-107991518D01*
X71543502Y-107871820D01*
X71484537Y-107761506D01*
X71405185Y-107664815D01*
X71308494Y-107585463D01*
X71198180Y-107526498D01*
X71078482Y-107490188D01*
X70954000Y-107477928D01*
X69690729Y-107477928D01*
X68889804Y-106677003D01*
X68866001Y-106647999D01*
X68750276Y-106553026D01*
X68618247Y-106482454D01*
X68474986Y-106438997D01*
X68363333Y-106428000D01*
X68363322Y-106428000D01*
X68326000Y-106424324D01*
X68288678Y-106428000D01*
X61020802Y-106428000D01*
X60704000Y-106111199D01*
X60704000Y-104843711D01*
X60747937Y-104799774D01*
X60861205Y-104630256D01*
X60939226Y-104441898D01*
X60979000Y-104241939D01*
X60979000Y-104038061D01*
X60939226Y-103838102D01*
X60861205Y-103649744D01*
X60747937Y-103480226D01*
X60603774Y-103336063D01*
X60434256Y-103222795D01*
X60245898Y-103144774D01*
X60045939Y-103105000D01*
X59842061Y-103105000D01*
X59793950Y-103114570D01*
X59871185Y-103051185D01*
X59950537Y-102954494D01*
X60009502Y-102844180D01*
X60045812Y-102724482D01*
X60058072Y-102600000D01*
X60058072Y-100600000D01*
X60045812Y-100475518D01*
X60009502Y-100355820D01*
X59950537Y-100245506D01*
X59871185Y-100148815D01*
X59774494Y-100069463D01*
X59686524Y-100022441D01*
X59818932Y-99861101D01*
X59952182Y-99611808D01*
X60034236Y-99341309D01*
X60061943Y-99060000D01*
X60034236Y-98778691D01*
X59952182Y-98508192D01*
X59818932Y-98258899D01*
X59639608Y-98040392D01*
X59421101Y-97861068D01*
X59288142Y-97790000D01*
X59421101Y-97718932D01*
X59639608Y-97539608D01*
X59818932Y-97321101D01*
X59952182Y-97071808D01*
X60034236Y-96801309D01*
X60061943Y-96520000D01*
X60034236Y-96238691D01*
X59952182Y-95968192D01*
X59818932Y-95718899D01*
X59639608Y-95500392D01*
X59421101Y-95321068D01*
X59288142Y-95250000D01*
X59421101Y-95178932D01*
X59639608Y-94999608D01*
X59818932Y-94781101D01*
X59952182Y-94531808D01*
X60034236Y-94261309D01*
X60061943Y-93980000D01*
X60034236Y-93698691D01*
X59952182Y-93428192D01*
X59818932Y-93178899D01*
X59639608Y-92960392D01*
X59421101Y-92781068D01*
X59288142Y-92710000D01*
X59421101Y-92638932D01*
X59639608Y-92459608D01*
X59818932Y-92241101D01*
X59952182Y-91991808D01*
X60034236Y-91721309D01*
X60061943Y-91440000D01*
X60034236Y-91158691D01*
X59952182Y-90888192D01*
X59818932Y-90638899D01*
X59639608Y-90420392D01*
X59421101Y-90241068D01*
X59288142Y-90170000D01*
X59421101Y-90098932D01*
X59639608Y-89919608D01*
X59818932Y-89701101D01*
X59952182Y-89451808D01*
X60034236Y-89181309D01*
X60061943Y-88900000D01*
X60034236Y-88618691D01*
X59952182Y-88348192D01*
X59818932Y-88098899D01*
X59639608Y-87880392D01*
X59421101Y-87701068D01*
X59288142Y-87630000D01*
X59421101Y-87558932D01*
X59639608Y-87379608D01*
X59818932Y-87161101D01*
X59952182Y-86911808D01*
X60034236Y-86641309D01*
X60061943Y-86360000D01*
X60034236Y-86078691D01*
X59952182Y-85808192D01*
X59818932Y-85558899D01*
X59639608Y-85340392D01*
X59421101Y-85161068D01*
X59288142Y-85090000D01*
X59421101Y-85018932D01*
X59639608Y-84839608D01*
X59818932Y-84621101D01*
X59952182Y-84371808D01*
X60034236Y-84101309D01*
X60061943Y-83820000D01*
X60034236Y-83538691D01*
X59952182Y-83268192D01*
X59818932Y-83018899D01*
X59639608Y-82800392D01*
X59421101Y-82621068D01*
X59171808Y-82487818D01*
X58901309Y-82405764D01*
X58690492Y-82385000D01*
X58149508Y-82385000D01*
X57938691Y-82405764D01*
X57668192Y-82487818D01*
X57418899Y-82621068D01*
X57200392Y-82800392D01*
X57021068Y-83018899D01*
X56887818Y-83268192D01*
X56805764Y-83538691D01*
X56778057Y-83820000D01*
X56805764Y-84101309D01*
X56887818Y-84371808D01*
X57021068Y-84621101D01*
X57200392Y-84839608D01*
X57418899Y-85018932D01*
X57551858Y-85090000D01*
X57418899Y-85161068D01*
X57200392Y-85340392D01*
X57021068Y-85558899D01*
X56887818Y-85808192D01*
X56805764Y-86078691D01*
X56778057Y-86360000D01*
X56805764Y-86641309D01*
X56887818Y-86911808D01*
X57021068Y-87161101D01*
X57200392Y-87379608D01*
X57418899Y-87558932D01*
X57551858Y-87630000D01*
X57418899Y-87701068D01*
X57200392Y-87880392D01*
X57021068Y-88098899D01*
X56887818Y-88348192D01*
X56805764Y-88618691D01*
X56778057Y-88900000D01*
X56805764Y-89181309D01*
X56887818Y-89451808D01*
X57021068Y-89701101D01*
X57200392Y-89919608D01*
X57418899Y-90098932D01*
X57551858Y-90170000D01*
X57418899Y-90241068D01*
X57200392Y-90420392D01*
X57021068Y-90638899D01*
X56887818Y-90888192D01*
X56805764Y-91158691D01*
X56778057Y-91440000D01*
X56805764Y-91721309D01*
X56887818Y-91991808D01*
X57021068Y-92241101D01*
X57200392Y-92459608D01*
X57418899Y-92638932D01*
X57551858Y-92710000D01*
X57418899Y-92781068D01*
X57200392Y-92960392D01*
X57021068Y-93178899D01*
X56887818Y-93428192D01*
X56805764Y-93698691D01*
X56778057Y-93980000D01*
X56805764Y-94261309D01*
X56887818Y-94531808D01*
X57021068Y-94781101D01*
X57200392Y-94999608D01*
X57418899Y-95178932D01*
X57551858Y-95250000D01*
X57418899Y-95321068D01*
X57200392Y-95500392D01*
X57021068Y-95718899D01*
X56887818Y-95968192D01*
X56805764Y-96238691D01*
X56778057Y-96520000D01*
X56805764Y-96801309D01*
X56887818Y-97071808D01*
X57021068Y-97321101D01*
X57200392Y-97539608D01*
X57418899Y-97718932D01*
X57551858Y-97790000D01*
X57418899Y-97861068D01*
X57200392Y-98040392D01*
X57021068Y-98258899D01*
X56887818Y-98508192D01*
X56805764Y-98778691D01*
X56778057Y-99060000D01*
X56805764Y-99341309D01*
X56887818Y-99611808D01*
X57021068Y-99861101D01*
X57153476Y-100022441D01*
X57065506Y-100069463D01*
X56968815Y-100148815D01*
X56889463Y-100245506D01*
X56830498Y-100355820D01*
X56794188Y-100475518D01*
X56781928Y-100600000D01*
X56781928Y-102600000D01*
X56794188Y-102724482D01*
X56830498Y-102844180D01*
X56889463Y-102954494D01*
X56968815Y-103051185D01*
X57065506Y-103130537D01*
X57175820Y-103189502D01*
X57295518Y-103225812D01*
X57420000Y-103238072D01*
X59420000Y-103238072D01*
X59432761Y-103236815D01*
X59284226Y-103336063D01*
X59140063Y-103480226D01*
X59026795Y-103649744D01*
X58948774Y-103838102D01*
X58909000Y-104038061D01*
X58909000Y-104241939D01*
X58948774Y-104441898D01*
X59026795Y-104630256D01*
X59140063Y-104799774D01*
X59184000Y-104843711D01*
X59184001Y-106388668D01*
X59180324Y-106426000D01*
X59194998Y-106574985D01*
X59238454Y-106718246D01*
X59309026Y-106850276D01*
X59359199Y-106911411D01*
X59404000Y-106966001D01*
X59432998Y-106989799D01*
X60142201Y-107699002D01*
X60165999Y-107728001D01*
X60281724Y-107822974D01*
X60413753Y-107893546D01*
X60557014Y-107937003D01*
X60668667Y-107948000D01*
X60668675Y-107948000D01*
X60706000Y-107951676D01*
X60743325Y-107948000D01*
X63951992Y-107948000D01*
X63828822Y-108084645D01*
X63679843Y-108334748D01*
X63582519Y-108609109D01*
X63703186Y-108839000D01*
X64897000Y-108839000D01*
X64897000Y-108819000D01*
X65151000Y-108819000D01*
X65151000Y-108839000D01*
X65171000Y-108839000D01*
X65171000Y-109093000D01*
X65151000Y-109093000D01*
X65151000Y-109113000D01*
X64897000Y-109113000D01*
X64897000Y-109093000D01*
X63703186Y-109093000D01*
X63582519Y-109322891D01*
X63679843Y-109597252D01*
X63828822Y-109847355D01*
X63839319Y-109859000D01*
X61834579Y-109859000D01*
X57552534Y-105576956D01*
X57524817Y-105543183D01*
X57390059Y-105432589D01*
X57236313Y-105350411D01*
X57069490Y-105299805D01*
X56939477Y-105287000D01*
X56939469Y-105287000D01*
X56896000Y-105282719D01*
X56852531Y-105287000D01*
X47274454Y-105287000D01*
X47226256Y-105254795D01*
X47037898Y-105176774D01*
X46837939Y-105137000D01*
X46634061Y-105137000D01*
X46434102Y-105176774D01*
X46245744Y-105254795D01*
X46076226Y-105368063D01*
X45932063Y-105512226D01*
X45818795Y-105681744D01*
X45740774Y-105870102D01*
X45729465Y-105926956D01*
X42490421Y-109166001D01*
X30434812Y-109166001D01*
X30434812Y-108331000D01*
X30422552Y-108206518D01*
X30386242Y-108086820D01*
X30327277Y-107976506D01*
X30247925Y-107879815D01*
X30151234Y-107800463D01*
X30040920Y-107741498D01*
X29921222Y-107705188D01*
X29796740Y-107692928D01*
X28526740Y-107692928D01*
X28402258Y-107705188D01*
X28282560Y-107741498D01*
X28172246Y-107800463D01*
X28075555Y-107879815D01*
X27996203Y-107976506D01*
X27985953Y-107995682D01*
X27969798Y-107979527D01*
X27761791Y-107840541D01*
X27530665Y-107744805D01*
X27285304Y-107696000D01*
X27035136Y-107696000D01*
X26789775Y-107744805D01*
X26558649Y-107840541D01*
X26350642Y-107979527D01*
X26173747Y-108156422D01*
X26162000Y-108174003D01*
X26150253Y-108156422D01*
X25973358Y-107979527D01*
X25765351Y-107840541D01*
X25534225Y-107744805D01*
X25288864Y-107696000D01*
X25038696Y-107696000D01*
X24793335Y-107744805D01*
X24562209Y-107840541D01*
X24354202Y-107979527D01*
X24177307Y-108156422D01*
X24092473Y-108283384D01*
X24037060Y-108270805D01*
X23341865Y-108966000D01*
X24037060Y-109661195D01*
X24092473Y-109648616D01*
X24177307Y-109775578D01*
X24354202Y-109952473D01*
X24562209Y-110091459D01*
X24793335Y-110187195D01*
X25038696Y-110236000D01*
X25182201Y-110236000D01*
X25592251Y-110646050D01*
X25619964Y-110679818D01*
X25653732Y-110707531D01*
X25653734Y-110707533D01*
X25698168Y-110743999D01*
X25754722Y-110790412D01*
X25908468Y-110872590D01*
X26075291Y-110923196D01*
X26205304Y-110936001D01*
X26205314Y-110936001D01*
X26248780Y-110940282D01*
X26292246Y-110936001D01*
X42813530Y-110936001D01*
X42856999Y-110940282D01*
X42900468Y-110936001D01*
X42900476Y-110936001D01*
X43030489Y-110923196D01*
X43197312Y-110872590D01*
X43351058Y-110790412D01*
X43485816Y-110679818D01*
X43513533Y-110646045D01*
X46981044Y-107178535D01*
X47037898Y-107167226D01*
X47226256Y-107089205D01*
X47274454Y-107057000D01*
X56529422Y-107057000D01*
X60547421Y-111075000D01*
X18465000Y-111075000D01*
X18465000Y-109840800D01*
X22467065Y-109840800D01*
X22518629Y-110067946D01*
X22745976Y-110172339D01*
X22989319Y-110230373D01*
X23239309Y-110239818D01*
X23486338Y-110200310D01*
X23720913Y-110113369D01*
X23805891Y-110067946D01*
X23857455Y-109840800D01*
X23162260Y-109145605D01*
X22467065Y-109840800D01*
X18465000Y-109840800D01*
X18465000Y-109043049D01*
X21888442Y-109043049D01*
X21927950Y-109290078D01*
X22014891Y-109524653D01*
X22060314Y-109609631D01*
X22287460Y-109661195D01*
X22982655Y-108966000D01*
X22287460Y-108270805D01*
X22060314Y-108322369D01*
X21955921Y-108549716D01*
X21897887Y-108793059D01*
X21888442Y-109043049D01*
X18465000Y-109043049D01*
X18465000Y-108091200D01*
X22467065Y-108091200D01*
X23162260Y-108786395D01*
X23857455Y-108091200D01*
X23805891Y-107864054D01*
X23578544Y-107759661D01*
X23335201Y-107701627D01*
X23085211Y-107692182D01*
X22838182Y-107731690D01*
X22603607Y-107818631D01*
X22518629Y-107864054D01*
X22467065Y-108091200D01*
X18465000Y-108091200D01*
X18465000Y-92608061D01*
X30207000Y-92608061D01*
X30207000Y-92811939D01*
X30246774Y-93011898D01*
X30324795Y-93200256D01*
X30438063Y-93369774D01*
X30582226Y-93513937D01*
X30751744Y-93627205D01*
X30940102Y-93705226D01*
X31140061Y-93745000D01*
X31343939Y-93745000D01*
X31543898Y-93705226D01*
X31732256Y-93627205D01*
X31901774Y-93513937D01*
X31945711Y-93470000D01*
X33490678Y-93470000D01*
X33528000Y-93473676D01*
X33565322Y-93470000D01*
X33565333Y-93470000D01*
X33676986Y-93459003D01*
X33820247Y-93415546D01*
X33952276Y-93344974D01*
X34068001Y-93250001D01*
X34091804Y-93220997D01*
X34285394Y-93027407D01*
X34161068Y-93178899D01*
X34027818Y-93428192D01*
X33945764Y-93698691D01*
X33918057Y-93980000D01*
X33945764Y-94261309D01*
X34027818Y-94531808D01*
X34161068Y-94781101D01*
X34340392Y-94999608D01*
X34558899Y-95178932D01*
X34691858Y-95250000D01*
X34558899Y-95321068D01*
X34340392Y-95500392D01*
X34161068Y-95718899D01*
X34027818Y-95968192D01*
X33945764Y-96238691D01*
X33918057Y-96520000D01*
X33945764Y-96801309D01*
X34027818Y-97071808D01*
X34161068Y-97321101D01*
X34340392Y-97539608D01*
X34558899Y-97718932D01*
X34691858Y-97790000D01*
X34558899Y-97861068D01*
X34340392Y-98040392D01*
X34161068Y-98258899D01*
X34027818Y-98508192D01*
X33945764Y-98778691D01*
X33918057Y-99060000D01*
X33945764Y-99341309D01*
X34027818Y-99611808D01*
X34161068Y-99861101D01*
X34340392Y-100079608D01*
X34558899Y-100258932D01*
X34691858Y-100330000D01*
X34558899Y-100401068D01*
X34340392Y-100580392D01*
X34161068Y-100798899D01*
X34027818Y-101048192D01*
X33945764Y-101318691D01*
X33918057Y-101600000D01*
X33945764Y-101881309D01*
X34027818Y-102151808D01*
X34161068Y-102401101D01*
X34340392Y-102619608D01*
X34558899Y-102798932D01*
X34808192Y-102932182D01*
X35078691Y-103014236D01*
X35289508Y-103035000D01*
X35830492Y-103035000D01*
X36041309Y-103014236D01*
X36311808Y-102932182D01*
X36561101Y-102798932D01*
X36779608Y-102619608D01*
X36958932Y-102401101D01*
X37092182Y-102151808D01*
X37174236Y-101881309D01*
X37201943Y-101600000D01*
X37174236Y-101318691D01*
X37092182Y-101048192D01*
X36958932Y-100798899D01*
X36779608Y-100580392D01*
X36561101Y-100401068D01*
X36428142Y-100330000D01*
X36561101Y-100258932D01*
X36779608Y-100079608D01*
X36958932Y-99861101D01*
X37092182Y-99611808D01*
X37174236Y-99341309D01*
X37201943Y-99060000D01*
X37174236Y-98778691D01*
X37092182Y-98508192D01*
X36958932Y-98258899D01*
X36779608Y-98040392D01*
X36561101Y-97861068D01*
X36428142Y-97790000D01*
X36561101Y-97718932D01*
X36779608Y-97539608D01*
X36958932Y-97321101D01*
X37092182Y-97071808D01*
X37174236Y-96801309D01*
X37201943Y-96520000D01*
X37174236Y-96238691D01*
X37092182Y-95968192D01*
X36958932Y-95718899D01*
X36779608Y-95500392D01*
X36561101Y-95321068D01*
X36428142Y-95250000D01*
X36561101Y-95178932D01*
X36779608Y-94999608D01*
X36958932Y-94781101D01*
X37092182Y-94531808D01*
X37174236Y-94261309D01*
X37201943Y-93980000D01*
X37174236Y-93698691D01*
X37092182Y-93428192D01*
X36958932Y-93178899D01*
X36779608Y-92960392D01*
X36561101Y-92781068D01*
X36428142Y-92710000D01*
X36561101Y-92638932D01*
X36779608Y-92459608D01*
X36958932Y-92241101D01*
X37092182Y-91991808D01*
X37174236Y-91721309D01*
X37201943Y-91440000D01*
X37174236Y-91158691D01*
X37092182Y-90888192D01*
X36958932Y-90638899D01*
X36779608Y-90420392D01*
X36561101Y-90241068D01*
X36428142Y-90170000D01*
X36561101Y-90098932D01*
X36779608Y-89919608D01*
X36958932Y-89701101D01*
X37092182Y-89451808D01*
X37174236Y-89181309D01*
X37201943Y-88900000D01*
X37174236Y-88618691D01*
X37092182Y-88348192D01*
X36958932Y-88098899D01*
X36779608Y-87880392D01*
X36561101Y-87701068D01*
X36431655Y-87631878D01*
X36449227Y-87624430D01*
X36682662Y-87465673D01*
X36880639Y-87264425D01*
X37035551Y-87028421D01*
X37141444Y-86766730D01*
X37151904Y-86709039D01*
X37029915Y-86487000D01*
X35687000Y-86487000D01*
X35687000Y-86507000D01*
X35433000Y-86507000D01*
X35433000Y-86487000D01*
X34090085Y-86487000D01*
X33968096Y-86709039D01*
X33978556Y-86766730D01*
X34084449Y-87028421D01*
X34239361Y-87264425D01*
X34437338Y-87465673D01*
X34670773Y-87624430D01*
X34688345Y-87631878D01*
X34558899Y-87701068D01*
X34340392Y-87880392D01*
X34161068Y-88098899D01*
X34027818Y-88348192D01*
X33945764Y-88618691D01*
X33918057Y-88900000D01*
X33945764Y-89181309D01*
X34027818Y-89451808D01*
X34161068Y-89701101D01*
X34340392Y-89919608D01*
X34558899Y-90098932D01*
X34691858Y-90170000D01*
X34558899Y-90241068D01*
X34340392Y-90420392D01*
X34161068Y-90638899D01*
X34027818Y-90888192D01*
X33945764Y-91158691D01*
X33939346Y-91223852D01*
X33213199Y-91950000D01*
X31945711Y-91950000D01*
X31901774Y-91906063D01*
X31732256Y-91792795D01*
X31543898Y-91714774D01*
X31343939Y-91675000D01*
X31140061Y-91675000D01*
X30940102Y-91714774D01*
X30751744Y-91792795D01*
X30582226Y-91906063D01*
X30438063Y-92050226D01*
X30324795Y-92219744D01*
X30246774Y-92408102D01*
X30207000Y-92608061D01*
X18465000Y-92608061D01*
X18465000Y-77526050D01*
X19249000Y-77526050D01*
X19249000Y-77921949D01*
X19270487Y-78140110D01*
X19355401Y-78420033D01*
X19493294Y-78678013D01*
X19678866Y-78904134D01*
X19904986Y-79089706D01*
X20162966Y-79227599D01*
X20442889Y-79312513D01*
X20734000Y-79341185D01*
X21025110Y-79312513D01*
X21305033Y-79227599D01*
X21563013Y-79089706D01*
X21789134Y-78904134D01*
X21974706Y-78678014D01*
X21984000Y-78660626D01*
X21993294Y-78678013D01*
X22178866Y-78904134D01*
X22404986Y-79089706D01*
X22662966Y-79227599D01*
X22942889Y-79312513D01*
X23234000Y-79341185D01*
X23525110Y-79312513D01*
X23805033Y-79227599D01*
X24063013Y-79089706D01*
X24289134Y-78904134D01*
X24474706Y-78678014D01*
X24484000Y-78660626D01*
X24493294Y-78678013D01*
X24678866Y-78904134D01*
X24904986Y-79089706D01*
X25162966Y-79227599D01*
X25442889Y-79312513D01*
X25734000Y-79341185D01*
X26025110Y-79312513D01*
X26305033Y-79227599D01*
X26563013Y-79089706D01*
X26789134Y-78904134D01*
X26974706Y-78678014D01*
X26984000Y-78660626D01*
X26993294Y-78678013D01*
X27178866Y-78904134D01*
X27404986Y-79089706D01*
X27662966Y-79227599D01*
X27942889Y-79312513D01*
X28234000Y-79341185D01*
X28525110Y-79312513D01*
X28805033Y-79227599D01*
X29063013Y-79089706D01*
X29289134Y-78904134D01*
X29341223Y-78840663D01*
X29395595Y-78942386D01*
X29506038Y-79076962D01*
X29640614Y-79187405D01*
X29794150Y-79269472D01*
X29960746Y-79320008D01*
X30134000Y-79337072D01*
X31334000Y-79337072D01*
X31507254Y-79320008D01*
X31673850Y-79269472D01*
X31827386Y-79187405D01*
X31961962Y-79076962D01*
X32072405Y-78942386D01*
X32154472Y-78788850D01*
X32205008Y-78622254D01*
X32222072Y-78449000D01*
X32222072Y-76999000D01*
X32205008Y-76825746D01*
X32154472Y-76659150D01*
X32110562Y-76577000D01*
X34675001Y-76577000D01*
X34675000Y-82559011D01*
X34558899Y-82621068D01*
X34340392Y-82800392D01*
X34161068Y-83018899D01*
X34027818Y-83268192D01*
X33945764Y-83538691D01*
X33918057Y-83820000D01*
X33945764Y-84101309D01*
X34027818Y-84371808D01*
X34161068Y-84621101D01*
X34340392Y-84839608D01*
X34558899Y-85018932D01*
X34688345Y-85088122D01*
X34670773Y-85095570D01*
X34437338Y-85254327D01*
X34239361Y-85455575D01*
X34084449Y-85691579D01*
X33978556Y-85953270D01*
X33968096Y-86010961D01*
X34090085Y-86233000D01*
X35433000Y-86233000D01*
X35433000Y-86213000D01*
X35687000Y-86213000D01*
X35687000Y-86233000D01*
X37029915Y-86233000D01*
X37151904Y-86010961D01*
X37141444Y-85953270D01*
X37035551Y-85691579D01*
X36880639Y-85455575D01*
X36682662Y-85254327D01*
X36449227Y-85095570D01*
X36431655Y-85088122D01*
X36561101Y-85018932D01*
X36779608Y-84839608D01*
X36958932Y-84621101D01*
X37092182Y-84371808D01*
X37174236Y-84101309D01*
X37201943Y-83820000D01*
X37174236Y-83538691D01*
X37092182Y-83268192D01*
X36958932Y-83018899D01*
X36779608Y-82800392D01*
X36561101Y-82621068D01*
X36445000Y-82559011D01*
X36445000Y-76577000D01*
X61101422Y-76577000D01*
X61214705Y-76690283D01*
X61149294Y-76769986D01*
X61011401Y-77027966D01*
X60926487Y-77307889D01*
X60905000Y-77526050D01*
X60905000Y-77921949D01*
X60926487Y-78140110D01*
X61011401Y-78420033D01*
X61149294Y-78678013D01*
X61334866Y-78904134D01*
X61560986Y-79089706D01*
X61818966Y-79227599D01*
X62098889Y-79312513D01*
X62390000Y-79341185D01*
X62681110Y-79312513D01*
X62961033Y-79227599D01*
X63219013Y-79089706D01*
X63445134Y-78904134D01*
X63630706Y-78678014D01*
X63640000Y-78660626D01*
X63649294Y-78678013D01*
X63834866Y-78904134D01*
X64060986Y-79089706D01*
X64318966Y-79227599D01*
X64598889Y-79312513D01*
X64890000Y-79341185D01*
X65181110Y-79312513D01*
X65461033Y-79227599D01*
X65719013Y-79089706D01*
X65945134Y-78904134D01*
X66130706Y-78678014D01*
X66140000Y-78660626D01*
X66149294Y-78678013D01*
X66334866Y-78904134D01*
X66560986Y-79089706D01*
X66818966Y-79227599D01*
X67098889Y-79312513D01*
X67390000Y-79341185D01*
X67681110Y-79312513D01*
X67961033Y-79227599D01*
X68219013Y-79089706D01*
X68445134Y-78904134D01*
X68630706Y-78678014D01*
X68640000Y-78660626D01*
X68649294Y-78678013D01*
X68834866Y-78904134D01*
X69060986Y-79089706D01*
X69318966Y-79227599D01*
X69598889Y-79312513D01*
X69890000Y-79341185D01*
X70181110Y-79312513D01*
X70461033Y-79227599D01*
X70719013Y-79089706D01*
X70945134Y-78904134D01*
X70997223Y-78840663D01*
X71051595Y-78942386D01*
X71162038Y-79076962D01*
X71296614Y-79187405D01*
X71450150Y-79269472D01*
X71616746Y-79320008D01*
X71790000Y-79337072D01*
X72990000Y-79337072D01*
X73163254Y-79320008D01*
X73329850Y-79269472D01*
X73483386Y-79187405D01*
X73617962Y-79076962D01*
X73728405Y-78942386D01*
X73810472Y-78788850D01*
X73861008Y-78622254D01*
X73878072Y-78449000D01*
X73878072Y-76999000D01*
X73861008Y-76825746D01*
X73810472Y-76659150D01*
X73728405Y-76505614D01*
X73617962Y-76371038D01*
X73483386Y-76260595D01*
X73329850Y-76178528D01*
X73163254Y-76127992D01*
X72990000Y-76110928D01*
X71790000Y-76110928D01*
X71616746Y-76127992D01*
X71450150Y-76178528D01*
X71296614Y-76260595D01*
X71162038Y-76371038D01*
X71051595Y-76505614D01*
X70997223Y-76607337D01*
X70945134Y-76543866D01*
X70719014Y-76358294D01*
X70461034Y-76220401D01*
X70181111Y-76135487D01*
X69890000Y-76106815D01*
X69598890Y-76135487D01*
X69318967Y-76220401D01*
X69060987Y-76358294D01*
X68834866Y-76543866D01*
X68649294Y-76769986D01*
X68640000Y-76787374D01*
X68630706Y-76769986D01*
X68445134Y-76543866D01*
X68219014Y-76358294D01*
X67961034Y-76220401D01*
X67681111Y-76135487D01*
X67390000Y-76106815D01*
X67098890Y-76135487D01*
X66818967Y-76220401D01*
X66560987Y-76358294D01*
X66334866Y-76543866D01*
X66149294Y-76769986D01*
X66140000Y-76787374D01*
X66130706Y-76769986D01*
X65945134Y-76543866D01*
X65719014Y-76358294D01*
X65461034Y-76220401D01*
X65181111Y-76135487D01*
X64890000Y-76106815D01*
X64598890Y-76135487D01*
X64318967Y-76220401D01*
X64060987Y-76358294D01*
X63834866Y-76543866D01*
X63649294Y-76769986D01*
X63640000Y-76787374D01*
X63630706Y-76769986D01*
X63445134Y-76543866D01*
X63243301Y-76378226D01*
X63211589Y-76273687D01*
X63129411Y-76119941D01*
X63018817Y-75985183D01*
X62985050Y-75957471D01*
X62124534Y-75096956D01*
X62096817Y-75063183D01*
X61962059Y-74952589D01*
X61808313Y-74870411D01*
X61641490Y-74819805D01*
X61511477Y-74807000D01*
X61511469Y-74807000D01*
X61468000Y-74802719D01*
X61424531Y-74807000D01*
X35603477Y-74807000D01*
X35560000Y-74802718D01*
X35516524Y-74807000D01*
X21379469Y-74807000D01*
X21336000Y-74802719D01*
X21292531Y-74807000D01*
X21292523Y-74807000D01*
X21162510Y-74819805D01*
X20995686Y-74870411D01*
X20841941Y-74952589D01*
X20740953Y-75035468D01*
X20740951Y-75035470D01*
X20707183Y-75063183D01*
X20679470Y-75096951D01*
X20138951Y-75637471D01*
X20105184Y-75665183D01*
X20077471Y-75698951D01*
X20077468Y-75698954D01*
X19994590Y-75799941D01*
X19912412Y-75953687D01*
X19861805Y-76120510D01*
X19844719Y-76294000D01*
X19849001Y-76337479D01*
X19849001Y-76404240D01*
X19678866Y-76543866D01*
X19493294Y-76769986D01*
X19355401Y-77027966D01*
X19270487Y-77307889D01*
X19249000Y-77526050D01*
X18465000Y-77526050D01*
X18465000Y-72567000D01*
X75007000Y-72567000D01*
X75007001Y-111075000D01*
%TA.AperFunction,Conductor*%
D22*
G36*
X75007001Y-111075000D02*
G01*
X66706578Y-111075000D01*
X67345040Y-110436539D01*
X67417740Y-110451000D01*
X67710260Y-110451000D01*
X67997158Y-110393932D01*
X68267411Y-110281990D01*
X68510632Y-110119475D01*
X68642487Y-109987620D01*
X68664498Y-110060180D01*
X68723463Y-110170494D01*
X68802815Y-110267185D01*
X68899506Y-110346537D01*
X69009820Y-110405502D01*
X69129518Y-110441812D01*
X69254000Y-110454072D01*
X70954000Y-110454072D01*
X71078482Y-110441812D01*
X71198180Y-110405502D01*
X71308494Y-110346537D01*
X71405185Y-110267185D01*
X71484537Y-110170494D01*
X71543502Y-110060180D01*
X71579812Y-109940482D01*
X71592072Y-109816000D01*
X71592072Y-108116000D01*
X71579812Y-107991518D01*
X71543502Y-107871820D01*
X71484537Y-107761506D01*
X71405185Y-107664815D01*
X71308494Y-107585463D01*
X71198180Y-107526498D01*
X71078482Y-107490188D01*
X70954000Y-107477928D01*
X69690729Y-107477928D01*
X68889804Y-106677003D01*
X68866001Y-106647999D01*
X68750276Y-106553026D01*
X68618247Y-106482454D01*
X68474986Y-106438997D01*
X68363333Y-106428000D01*
X68363322Y-106428000D01*
X68326000Y-106424324D01*
X68288678Y-106428000D01*
X61020802Y-106428000D01*
X60704000Y-106111199D01*
X60704000Y-104843711D01*
X60747937Y-104799774D01*
X60861205Y-104630256D01*
X60939226Y-104441898D01*
X60979000Y-104241939D01*
X60979000Y-104038061D01*
X60939226Y-103838102D01*
X60861205Y-103649744D01*
X60747937Y-103480226D01*
X60603774Y-103336063D01*
X60434256Y-103222795D01*
X60245898Y-103144774D01*
X60045939Y-103105000D01*
X59842061Y-103105000D01*
X59793950Y-103114570D01*
X59871185Y-103051185D01*
X59950537Y-102954494D01*
X60009502Y-102844180D01*
X60045812Y-102724482D01*
X60058072Y-102600000D01*
X60058072Y-100600000D01*
X60045812Y-100475518D01*
X60009502Y-100355820D01*
X59950537Y-100245506D01*
X59871185Y-100148815D01*
X59774494Y-100069463D01*
X59686524Y-100022441D01*
X59818932Y-99861101D01*
X59952182Y-99611808D01*
X60034236Y-99341309D01*
X60061943Y-99060000D01*
X60034236Y-98778691D01*
X59952182Y-98508192D01*
X59818932Y-98258899D01*
X59639608Y-98040392D01*
X59421101Y-97861068D01*
X59288142Y-97790000D01*
X59421101Y-97718932D01*
X59639608Y-97539608D01*
X59818932Y-97321101D01*
X59952182Y-97071808D01*
X60034236Y-96801309D01*
X60061943Y-96520000D01*
X60034236Y-96238691D01*
X59952182Y-95968192D01*
X59818932Y-95718899D01*
X59639608Y-95500392D01*
X59421101Y-95321068D01*
X59288142Y-95250000D01*
X59421101Y-95178932D01*
X59639608Y-94999608D01*
X59818932Y-94781101D01*
X59952182Y-94531808D01*
X60034236Y-94261309D01*
X60061943Y-93980000D01*
X60034236Y-93698691D01*
X59952182Y-93428192D01*
X59818932Y-93178899D01*
X59639608Y-92960392D01*
X59421101Y-92781068D01*
X59288142Y-92710000D01*
X59421101Y-92638932D01*
X59639608Y-92459608D01*
X59818932Y-92241101D01*
X59952182Y-91991808D01*
X60034236Y-91721309D01*
X60061943Y-91440000D01*
X60034236Y-91158691D01*
X59952182Y-90888192D01*
X59818932Y-90638899D01*
X59639608Y-90420392D01*
X59421101Y-90241068D01*
X59288142Y-90170000D01*
X59421101Y-90098932D01*
X59639608Y-89919608D01*
X59818932Y-89701101D01*
X59952182Y-89451808D01*
X60034236Y-89181309D01*
X60061943Y-88900000D01*
X60034236Y-88618691D01*
X59952182Y-88348192D01*
X59818932Y-88098899D01*
X59639608Y-87880392D01*
X59421101Y-87701068D01*
X59288142Y-87630000D01*
X59421101Y-87558932D01*
X59639608Y-87379608D01*
X59818932Y-87161101D01*
X59952182Y-86911808D01*
X60034236Y-86641309D01*
X60061943Y-86360000D01*
X60034236Y-86078691D01*
X59952182Y-85808192D01*
X59818932Y-85558899D01*
X59639608Y-85340392D01*
X59421101Y-85161068D01*
X59288142Y-85090000D01*
X59421101Y-85018932D01*
X59639608Y-84839608D01*
X59818932Y-84621101D01*
X59952182Y-84371808D01*
X60034236Y-84101309D01*
X60061943Y-83820000D01*
X60034236Y-83538691D01*
X59952182Y-83268192D01*
X59818932Y-83018899D01*
X59639608Y-82800392D01*
X59421101Y-82621068D01*
X59171808Y-82487818D01*
X58901309Y-82405764D01*
X58690492Y-82385000D01*
X58149508Y-82385000D01*
X57938691Y-82405764D01*
X57668192Y-82487818D01*
X57418899Y-82621068D01*
X57200392Y-82800392D01*
X57021068Y-83018899D01*
X56887818Y-83268192D01*
X56805764Y-83538691D01*
X56778057Y-83820000D01*
X56805764Y-84101309D01*
X56887818Y-84371808D01*
X57021068Y-84621101D01*
X57200392Y-84839608D01*
X57418899Y-85018932D01*
X57551858Y-85090000D01*
X57418899Y-85161068D01*
X57200392Y-85340392D01*
X57021068Y-85558899D01*
X56887818Y-85808192D01*
X56805764Y-86078691D01*
X56778057Y-86360000D01*
X56805764Y-86641309D01*
X56887818Y-86911808D01*
X57021068Y-87161101D01*
X57200392Y-87379608D01*
X57418899Y-87558932D01*
X57551858Y-87630000D01*
X57418899Y-87701068D01*
X57200392Y-87880392D01*
X57021068Y-88098899D01*
X56887818Y-88348192D01*
X56805764Y-88618691D01*
X56778057Y-88900000D01*
X56805764Y-89181309D01*
X56887818Y-89451808D01*
X57021068Y-89701101D01*
X57200392Y-89919608D01*
X57418899Y-90098932D01*
X57551858Y-90170000D01*
X57418899Y-90241068D01*
X57200392Y-90420392D01*
X57021068Y-90638899D01*
X56887818Y-90888192D01*
X56805764Y-91158691D01*
X56778057Y-91440000D01*
X56805764Y-91721309D01*
X56887818Y-91991808D01*
X57021068Y-92241101D01*
X57200392Y-92459608D01*
X57418899Y-92638932D01*
X57551858Y-92710000D01*
X57418899Y-92781068D01*
X57200392Y-92960392D01*
X57021068Y-93178899D01*
X56887818Y-93428192D01*
X56805764Y-93698691D01*
X56778057Y-93980000D01*
X56805764Y-94261309D01*
X56887818Y-94531808D01*
X57021068Y-94781101D01*
X57200392Y-94999608D01*
X57418899Y-95178932D01*
X57551858Y-95250000D01*
X57418899Y-95321068D01*
X57200392Y-95500392D01*
X57021068Y-95718899D01*
X56887818Y-95968192D01*
X56805764Y-96238691D01*
X56778057Y-96520000D01*
X56805764Y-96801309D01*
X56887818Y-97071808D01*
X57021068Y-97321101D01*
X57200392Y-97539608D01*
X57418899Y-97718932D01*
X57551858Y-97790000D01*
X57418899Y-97861068D01*
X57200392Y-98040392D01*
X57021068Y-98258899D01*
X56887818Y-98508192D01*
X56805764Y-98778691D01*
X56778057Y-99060000D01*
X56805764Y-99341309D01*
X56887818Y-99611808D01*
X57021068Y-99861101D01*
X57153476Y-100022441D01*
X57065506Y-100069463D01*
X56968815Y-100148815D01*
X56889463Y-100245506D01*
X56830498Y-100355820D01*
X56794188Y-100475518D01*
X56781928Y-100600000D01*
X56781928Y-102600000D01*
X56794188Y-102724482D01*
X56830498Y-102844180D01*
X56889463Y-102954494D01*
X56968815Y-103051185D01*
X57065506Y-103130537D01*
X57175820Y-103189502D01*
X57295518Y-103225812D01*
X57420000Y-103238072D01*
X59420000Y-103238072D01*
X59432761Y-103236815D01*
X59284226Y-103336063D01*
X59140063Y-103480226D01*
X59026795Y-103649744D01*
X58948774Y-103838102D01*
X58909000Y-104038061D01*
X58909000Y-104241939D01*
X58948774Y-104441898D01*
X59026795Y-104630256D01*
X59140063Y-104799774D01*
X59184000Y-104843711D01*
X59184001Y-106388668D01*
X59180324Y-106426000D01*
X59194998Y-106574985D01*
X59238454Y-106718246D01*
X59309026Y-106850276D01*
X59359199Y-106911411D01*
X59404000Y-106966001D01*
X59432998Y-106989799D01*
X60142201Y-107699002D01*
X60165999Y-107728001D01*
X60281724Y-107822974D01*
X60413753Y-107893546D01*
X60557014Y-107937003D01*
X60668667Y-107948000D01*
X60668675Y-107948000D01*
X60706000Y-107951676D01*
X60743325Y-107948000D01*
X63951992Y-107948000D01*
X63828822Y-108084645D01*
X63679843Y-108334748D01*
X63582519Y-108609109D01*
X63703186Y-108839000D01*
X64897000Y-108839000D01*
X64897000Y-108819000D01*
X65151000Y-108819000D01*
X65151000Y-108839000D01*
X65171000Y-108839000D01*
X65171000Y-109093000D01*
X65151000Y-109093000D01*
X65151000Y-109113000D01*
X64897000Y-109113000D01*
X64897000Y-109093000D01*
X63703186Y-109093000D01*
X63582519Y-109322891D01*
X63679843Y-109597252D01*
X63828822Y-109847355D01*
X63839319Y-109859000D01*
X61834579Y-109859000D01*
X57552534Y-105576956D01*
X57524817Y-105543183D01*
X57390059Y-105432589D01*
X57236313Y-105350411D01*
X57069490Y-105299805D01*
X56939477Y-105287000D01*
X56939469Y-105287000D01*
X56896000Y-105282719D01*
X56852531Y-105287000D01*
X47274454Y-105287000D01*
X47226256Y-105254795D01*
X47037898Y-105176774D01*
X46837939Y-105137000D01*
X46634061Y-105137000D01*
X46434102Y-105176774D01*
X46245744Y-105254795D01*
X46076226Y-105368063D01*
X45932063Y-105512226D01*
X45818795Y-105681744D01*
X45740774Y-105870102D01*
X45729465Y-105926956D01*
X42490421Y-109166001D01*
X30434812Y-109166001D01*
X30434812Y-108331000D01*
X30422552Y-108206518D01*
X30386242Y-108086820D01*
X30327277Y-107976506D01*
X30247925Y-107879815D01*
X30151234Y-107800463D01*
X30040920Y-107741498D01*
X29921222Y-107705188D01*
X29796740Y-107692928D01*
X28526740Y-107692928D01*
X28402258Y-107705188D01*
X28282560Y-107741498D01*
X28172246Y-107800463D01*
X28075555Y-107879815D01*
X27996203Y-107976506D01*
X27985953Y-107995682D01*
X27969798Y-107979527D01*
X27761791Y-107840541D01*
X27530665Y-107744805D01*
X27285304Y-107696000D01*
X27035136Y-107696000D01*
X26789775Y-107744805D01*
X26558649Y-107840541D01*
X26350642Y-107979527D01*
X26173747Y-108156422D01*
X26162000Y-108174003D01*
X26150253Y-108156422D01*
X25973358Y-107979527D01*
X25765351Y-107840541D01*
X25534225Y-107744805D01*
X25288864Y-107696000D01*
X25038696Y-107696000D01*
X24793335Y-107744805D01*
X24562209Y-107840541D01*
X24354202Y-107979527D01*
X24177307Y-108156422D01*
X24092473Y-108283384D01*
X24037060Y-108270805D01*
X23341865Y-108966000D01*
X24037060Y-109661195D01*
X24092473Y-109648616D01*
X24177307Y-109775578D01*
X24354202Y-109952473D01*
X24562209Y-110091459D01*
X24793335Y-110187195D01*
X25038696Y-110236000D01*
X25182201Y-110236000D01*
X25592251Y-110646050D01*
X25619964Y-110679818D01*
X25653732Y-110707531D01*
X25653734Y-110707533D01*
X25698168Y-110743999D01*
X25754722Y-110790412D01*
X25908468Y-110872590D01*
X26075291Y-110923196D01*
X26205304Y-110936001D01*
X26205314Y-110936001D01*
X26248780Y-110940282D01*
X26292246Y-110936001D01*
X42813530Y-110936001D01*
X42856999Y-110940282D01*
X42900468Y-110936001D01*
X42900476Y-110936001D01*
X43030489Y-110923196D01*
X43197312Y-110872590D01*
X43351058Y-110790412D01*
X43485816Y-110679818D01*
X43513533Y-110646045D01*
X46981044Y-107178535D01*
X47037898Y-107167226D01*
X47226256Y-107089205D01*
X47274454Y-107057000D01*
X56529422Y-107057000D01*
X60547421Y-111075000D01*
X18465000Y-111075000D01*
X18465000Y-109840800D01*
X22467065Y-109840800D01*
X22518629Y-110067946D01*
X22745976Y-110172339D01*
X22989319Y-110230373D01*
X23239309Y-110239818D01*
X23486338Y-110200310D01*
X23720913Y-110113369D01*
X23805891Y-110067946D01*
X23857455Y-109840800D01*
X23162260Y-109145605D01*
X22467065Y-109840800D01*
X18465000Y-109840800D01*
X18465000Y-109043049D01*
X21888442Y-109043049D01*
X21927950Y-109290078D01*
X22014891Y-109524653D01*
X22060314Y-109609631D01*
X22287460Y-109661195D01*
X22982655Y-108966000D01*
X22287460Y-108270805D01*
X22060314Y-108322369D01*
X21955921Y-108549716D01*
X21897887Y-108793059D01*
X21888442Y-109043049D01*
X18465000Y-109043049D01*
X18465000Y-108091200D01*
X22467065Y-108091200D01*
X23162260Y-108786395D01*
X23857455Y-108091200D01*
X23805891Y-107864054D01*
X23578544Y-107759661D01*
X23335201Y-107701627D01*
X23085211Y-107692182D01*
X22838182Y-107731690D01*
X22603607Y-107818631D01*
X22518629Y-107864054D01*
X22467065Y-108091200D01*
X18465000Y-108091200D01*
X18465000Y-92608061D01*
X30207000Y-92608061D01*
X30207000Y-92811939D01*
X30246774Y-93011898D01*
X30324795Y-93200256D01*
X30438063Y-93369774D01*
X30582226Y-93513937D01*
X30751744Y-93627205D01*
X30940102Y-93705226D01*
X31140061Y-93745000D01*
X31343939Y-93745000D01*
X31543898Y-93705226D01*
X31732256Y-93627205D01*
X31901774Y-93513937D01*
X31945711Y-93470000D01*
X33490678Y-93470000D01*
X33528000Y-93473676D01*
X33565322Y-93470000D01*
X33565333Y-93470000D01*
X33676986Y-93459003D01*
X33820247Y-93415546D01*
X33952276Y-93344974D01*
X34068001Y-93250001D01*
X34091804Y-93220997D01*
X34285394Y-93027407D01*
X34161068Y-93178899D01*
X34027818Y-93428192D01*
X33945764Y-93698691D01*
X33918057Y-93980000D01*
X33945764Y-94261309D01*
X34027818Y-94531808D01*
X34161068Y-94781101D01*
X34340392Y-94999608D01*
X34558899Y-95178932D01*
X34691858Y-95250000D01*
X34558899Y-95321068D01*
X34340392Y-95500392D01*
X34161068Y-95718899D01*
X34027818Y-95968192D01*
X33945764Y-96238691D01*
X33918057Y-96520000D01*
X33945764Y-96801309D01*
X34027818Y-97071808D01*
X34161068Y-97321101D01*
X34340392Y-97539608D01*
X34558899Y-97718932D01*
X34691858Y-97790000D01*
X34558899Y-97861068D01*
X34340392Y-98040392D01*
X34161068Y-98258899D01*
X34027818Y-98508192D01*
X33945764Y-98778691D01*
X33918057Y-99060000D01*
X33945764Y-99341309D01*
X34027818Y-99611808D01*
X34161068Y-99861101D01*
X34340392Y-100079608D01*
X34558899Y-100258932D01*
X34691858Y-100330000D01*
X34558899Y-100401068D01*
X34340392Y-100580392D01*
X34161068Y-100798899D01*
X34027818Y-101048192D01*
X33945764Y-101318691D01*
X33918057Y-101600000D01*
X33945764Y-101881309D01*
X34027818Y-102151808D01*
X34161068Y-102401101D01*
X34340392Y-102619608D01*
X34558899Y-102798932D01*
X34808192Y-102932182D01*
X35078691Y-103014236D01*
X35289508Y-103035000D01*
X35830492Y-103035000D01*
X36041309Y-103014236D01*
X36311808Y-102932182D01*
X36561101Y-102798932D01*
X36779608Y-102619608D01*
X36958932Y-102401101D01*
X37092182Y-102151808D01*
X37174236Y-101881309D01*
X37201943Y-101600000D01*
X37174236Y-101318691D01*
X37092182Y-101048192D01*
X36958932Y-100798899D01*
X36779608Y-100580392D01*
X36561101Y-100401068D01*
X36428142Y-100330000D01*
X36561101Y-100258932D01*
X36779608Y-100079608D01*
X36958932Y-99861101D01*
X37092182Y-99611808D01*
X37174236Y-99341309D01*
X37201943Y-99060000D01*
X37174236Y-98778691D01*
X37092182Y-98508192D01*
X36958932Y-98258899D01*
X36779608Y-98040392D01*
X36561101Y-97861068D01*
X36428142Y-97790000D01*
X36561101Y-97718932D01*
X36779608Y-97539608D01*
X36958932Y-97321101D01*
X37092182Y-97071808D01*
X37174236Y-96801309D01*
X37201943Y-96520000D01*
X37174236Y-96238691D01*
X37092182Y-95968192D01*
X36958932Y-95718899D01*
X36779608Y-95500392D01*
X36561101Y-95321068D01*
X36428142Y-95250000D01*
X36561101Y-95178932D01*
X36779608Y-94999608D01*
X36958932Y-94781101D01*
X37092182Y-94531808D01*
X37174236Y-94261309D01*
X37201943Y-93980000D01*
X37174236Y-93698691D01*
X37092182Y-93428192D01*
X36958932Y-93178899D01*
X36779608Y-92960392D01*
X36561101Y-92781068D01*
X36428142Y-92710000D01*
X36561101Y-92638932D01*
X36779608Y-92459608D01*
X36958932Y-92241101D01*
X37092182Y-91991808D01*
X37174236Y-91721309D01*
X37201943Y-91440000D01*
X37174236Y-91158691D01*
X37092182Y-90888192D01*
X36958932Y-90638899D01*
X36779608Y-90420392D01*
X36561101Y-90241068D01*
X36428142Y-90170000D01*
X36561101Y-90098932D01*
X36779608Y-89919608D01*
X36958932Y-89701101D01*
X37092182Y-89451808D01*
X37174236Y-89181309D01*
X37201943Y-88900000D01*
X37174236Y-88618691D01*
X37092182Y-88348192D01*
X36958932Y-88098899D01*
X36779608Y-87880392D01*
X36561101Y-87701068D01*
X36431655Y-87631878D01*
X36449227Y-87624430D01*
X36682662Y-87465673D01*
X36880639Y-87264425D01*
X37035551Y-87028421D01*
X37141444Y-86766730D01*
X37151904Y-86709039D01*
X37029915Y-86487000D01*
X35687000Y-86487000D01*
X35687000Y-86507000D01*
X35433000Y-86507000D01*
X35433000Y-86487000D01*
X34090085Y-86487000D01*
X33968096Y-86709039D01*
X33978556Y-86766730D01*
X34084449Y-87028421D01*
X34239361Y-87264425D01*
X34437338Y-87465673D01*
X34670773Y-87624430D01*
X34688345Y-87631878D01*
X34558899Y-87701068D01*
X34340392Y-87880392D01*
X34161068Y-88098899D01*
X34027818Y-88348192D01*
X33945764Y-88618691D01*
X33918057Y-88900000D01*
X33945764Y-89181309D01*
X34027818Y-89451808D01*
X34161068Y-89701101D01*
X34340392Y-89919608D01*
X34558899Y-90098932D01*
X34691858Y-90170000D01*
X34558899Y-90241068D01*
X34340392Y-90420392D01*
X34161068Y-90638899D01*
X34027818Y-90888192D01*
X33945764Y-91158691D01*
X33939346Y-91223852D01*
X33213199Y-91950000D01*
X31945711Y-91950000D01*
X31901774Y-91906063D01*
X31732256Y-91792795D01*
X31543898Y-91714774D01*
X31343939Y-91675000D01*
X31140061Y-91675000D01*
X30940102Y-91714774D01*
X30751744Y-91792795D01*
X30582226Y-91906063D01*
X30438063Y-92050226D01*
X30324795Y-92219744D01*
X30246774Y-92408102D01*
X30207000Y-92608061D01*
X18465000Y-92608061D01*
X18465000Y-77526050D01*
X19249000Y-77526050D01*
X19249000Y-77921949D01*
X19270487Y-78140110D01*
X19355401Y-78420033D01*
X19493294Y-78678013D01*
X19678866Y-78904134D01*
X19904986Y-79089706D01*
X20162966Y-79227599D01*
X20442889Y-79312513D01*
X20734000Y-79341185D01*
X21025110Y-79312513D01*
X21305033Y-79227599D01*
X21563013Y-79089706D01*
X21789134Y-78904134D01*
X21974706Y-78678014D01*
X21984000Y-78660626D01*
X21993294Y-78678013D01*
X22178866Y-78904134D01*
X22404986Y-79089706D01*
X22662966Y-79227599D01*
X22942889Y-79312513D01*
X23234000Y-79341185D01*
X23525110Y-79312513D01*
X23805033Y-79227599D01*
X24063013Y-79089706D01*
X24289134Y-78904134D01*
X24474706Y-78678014D01*
X24484000Y-78660626D01*
X24493294Y-78678013D01*
X24678866Y-78904134D01*
X24904986Y-79089706D01*
X25162966Y-79227599D01*
X25442889Y-79312513D01*
X25734000Y-79341185D01*
X26025110Y-79312513D01*
X26305033Y-79227599D01*
X26563013Y-79089706D01*
X26789134Y-78904134D01*
X26974706Y-78678014D01*
X26984000Y-78660626D01*
X26993294Y-78678013D01*
X27178866Y-78904134D01*
X27404986Y-79089706D01*
X27662966Y-79227599D01*
X27942889Y-79312513D01*
X28234000Y-79341185D01*
X28525110Y-79312513D01*
X28805033Y-79227599D01*
X29063013Y-79089706D01*
X29289134Y-78904134D01*
X29341223Y-78840663D01*
X29395595Y-78942386D01*
X29506038Y-79076962D01*
X29640614Y-79187405D01*
X29794150Y-79269472D01*
X29960746Y-79320008D01*
X30134000Y-79337072D01*
X31334000Y-79337072D01*
X31507254Y-79320008D01*
X31673850Y-79269472D01*
X31827386Y-79187405D01*
X31961962Y-79076962D01*
X32072405Y-78942386D01*
X32154472Y-78788850D01*
X32205008Y-78622254D01*
X32222072Y-78449000D01*
X32222072Y-76999000D01*
X32205008Y-76825746D01*
X32154472Y-76659150D01*
X32110562Y-76577000D01*
X34675001Y-76577000D01*
X34675000Y-82559011D01*
X34558899Y-82621068D01*
X34340392Y-82800392D01*
X34161068Y-83018899D01*
X34027818Y-83268192D01*
X33945764Y-83538691D01*
X33918057Y-83820000D01*
X33945764Y-84101309D01*
X34027818Y-84371808D01*
X34161068Y-84621101D01*
X34340392Y-84839608D01*
X34558899Y-85018932D01*
X34688345Y-85088122D01*
X34670773Y-85095570D01*
X34437338Y-85254327D01*
X34239361Y-85455575D01*
X34084449Y-85691579D01*
X33978556Y-85953270D01*
X33968096Y-86010961D01*
X34090085Y-86233000D01*
X35433000Y-86233000D01*
X35433000Y-86213000D01*
X35687000Y-86213000D01*
X35687000Y-86233000D01*
X37029915Y-86233000D01*
X37151904Y-86010961D01*
X37141444Y-85953270D01*
X37035551Y-85691579D01*
X36880639Y-85455575D01*
X36682662Y-85254327D01*
X36449227Y-85095570D01*
X36431655Y-85088122D01*
X36561101Y-85018932D01*
X36779608Y-84839608D01*
X36958932Y-84621101D01*
X37092182Y-84371808D01*
X37174236Y-84101309D01*
X37201943Y-83820000D01*
X37174236Y-83538691D01*
X37092182Y-83268192D01*
X36958932Y-83018899D01*
X36779608Y-82800392D01*
X36561101Y-82621068D01*
X36445000Y-82559011D01*
X36445000Y-76577000D01*
X61101422Y-76577000D01*
X61214705Y-76690283D01*
X61149294Y-76769986D01*
X61011401Y-77027966D01*
X60926487Y-77307889D01*
X60905000Y-77526050D01*
X60905000Y-77921949D01*
X60926487Y-78140110D01*
X61011401Y-78420033D01*
X61149294Y-78678013D01*
X61334866Y-78904134D01*
X61560986Y-79089706D01*
X61818966Y-79227599D01*
X62098889Y-79312513D01*
X62390000Y-79341185D01*
X62681110Y-79312513D01*
X62961033Y-79227599D01*
X63219013Y-79089706D01*
X63445134Y-78904134D01*
X63630706Y-78678014D01*
X63640000Y-78660626D01*
X63649294Y-78678013D01*
X63834866Y-78904134D01*
X64060986Y-79089706D01*
X64318966Y-79227599D01*
X64598889Y-79312513D01*
X64890000Y-79341185D01*
X65181110Y-79312513D01*
X65461033Y-79227599D01*
X65719013Y-79089706D01*
X65945134Y-78904134D01*
X66130706Y-78678014D01*
X66140000Y-78660626D01*
X66149294Y-78678013D01*
X66334866Y-78904134D01*
X66560986Y-79089706D01*
X66818966Y-79227599D01*
X67098889Y-79312513D01*
X67390000Y-79341185D01*
X67681110Y-79312513D01*
X67961033Y-79227599D01*
X68219013Y-79089706D01*
X68445134Y-78904134D01*
X68630706Y-78678014D01*
X68640000Y-78660626D01*
X68649294Y-78678013D01*
X68834866Y-78904134D01*
X69060986Y-79089706D01*
X69318966Y-79227599D01*
X69598889Y-79312513D01*
X69890000Y-79341185D01*
X70181110Y-79312513D01*
X70461033Y-79227599D01*
X70719013Y-79089706D01*
X70945134Y-78904134D01*
X70997223Y-78840663D01*
X71051595Y-78942386D01*
X71162038Y-79076962D01*
X71296614Y-79187405D01*
X71450150Y-79269472D01*
X71616746Y-79320008D01*
X71790000Y-79337072D01*
X72990000Y-79337072D01*
X73163254Y-79320008D01*
X73329850Y-79269472D01*
X73483386Y-79187405D01*
X73617962Y-79076962D01*
X73728405Y-78942386D01*
X73810472Y-78788850D01*
X73861008Y-78622254D01*
X73878072Y-78449000D01*
X73878072Y-76999000D01*
X73861008Y-76825746D01*
X73810472Y-76659150D01*
X73728405Y-76505614D01*
X73617962Y-76371038D01*
X73483386Y-76260595D01*
X73329850Y-76178528D01*
X73163254Y-76127992D01*
X72990000Y-76110928D01*
X71790000Y-76110928D01*
X71616746Y-76127992D01*
X71450150Y-76178528D01*
X71296614Y-76260595D01*
X71162038Y-76371038D01*
X71051595Y-76505614D01*
X70997223Y-76607337D01*
X70945134Y-76543866D01*
X70719014Y-76358294D01*
X70461034Y-76220401D01*
X70181111Y-76135487D01*
X69890000Y-76106815D01*
X69598890Y-76135487D01*
X69318967Y-76220401D01*
X69060987Y-76358294D01*
X68834866Y-76543866D01*
X68649294Y-76769986D01*
X68640000Y-76787374D01*
X68630706Y-76769986D01*
X68445134Y-76543866D01*
X68219014Y-76358294D01*
X67961034Y-76220401D01*
X67681111Y-76135487D01*
X67390000Y-76106815D01*
X67098890Y-76135487D01*
X66818967Y-76220401D01*
X66560987Y-76358294D01*
X66334866Y-76543866D01*
X66149294Y-76769986D01*
X66140000Y-76787374D01*
X66130706Y-76769986D01*
X65945134Y-76543866D01*
X65719014Y-76358294D01*
X65461034Y-76220401D01*
X65181111Y-76135487D01*
X64890000Y-76106815D01*
X64598890Y-76135487D01*
X64318967Y-76220401D01*
X64060987Y-76358294D01*
X63834866Y-76543866D01*
X63649294Y-76769986D01*
X63640000Y-76787374D01*
X63630706Y-76769986D01*
X63445134Y-76543866D01*
X63243301Y-76378226D01*
X63211589Y-76273687D01*
X63129411Y-76119941D01*
X63018817Y-75985183D01*
X62985050Y-75957471D01*
X62124534Y-75096956D01*
X62096817Y-75063183D01*
X61962059Y-74952589D01*
X61808313Y-74870411D01*
X61641490Y-74819805D01*
X61511477Y-74807000D01*
X61511469Y-74807000D01*
X61468000Y-74802719D01*
X61424531Y-74807000D01*
X35603477Y-74807000D01*
X35560000Y-74802718D01*
X35516524Y-74807000D01*
X21379469Y-74807000D01*
X21336000Y-74802719D01*
X21292531Y-74807000D01*
X21292523Y-74807000D01*
X21162510Y-74819805D01*
X20995686Y-74870411D01*
X20841941Y-74952589D01*
X20740953Y-75035468D01*
X20740951Y-75035470D01*
X20707183Y-75063183D01*
X20679470Y-75096951D01*
X20138951Y-75637471D01*
X20105184Y-75665183D01*
X20077471Y-75698951D01*
X20077468Y-75698954D01*
X19994590Y-75799941D01*
X19912412Y-75953687D01*
X19861805Y-76120510D01*
X19844719Y-76294000D01*
X19849001Y-76337479D01*
X19849001Y-76404240D01*
X19678866Y-76543866D01*
X19493294Y-76769986D01*
X19355401Y-77027966D01*
X19270487Y-77307889D01*
X19249000Y-77526050D01*
X18465000Y-77526050D01*
X18465000Y-72567000D01*
X75007000Y-72567000D01*
X75007001Y-111075000D01*
G37*
%TD.AperFunction*%
%TD*%
M02*
