%TF.GenerationSoftware,KiCad,Pcbnew,(5.1.10)-1*%
%TF.CreationDate,2022-04-18T16:41:03+02:00*%
%TF.ProjectId,ULN2803-Mosfet-S2-Mini,554c4e32-3830-4332-9d4d-6f736665742d,rev?*%
%TF.SameCoordinates,Original*%
%TF.FileFunction,Soldermask,Bot*%
%TF.FilePolarity,Negative*%
%FSLAX46Y46*%
G04 Gerber Fmt 4.6, Leading zero omitted, Abs format (unit mm)*
G04 Created by KiCad (PCBNEW (5.1.10)-1) date 2022-04-18 16:41:03*
%MOMM*%
%LPD*%
G01*
G04 APERTURE LIST*
%ADD10O,2.000000X1.600000*%
%ADD11R,2.000000X2.000000*%
%ADD12C,1.270000*%
%ADD13R,1.270000X1.270000*%
%ADD14O,1.700000X1.700000*%
%ADD15R,1.700000X1.700000*%
%ADD16O,1.700000X1.950000*%
G04 APERTURE END LIST*
D10*
%TO.C,U1*%
X35560000Y-101600000D03*
X35560000Y-99060000D03*
X35560000Y-96520000D03*
X35560000Y-93980000D03*
X35560000Y-91440000D03*
X35560000Y-88900000D03*
X35560000Y-86360000D03*
X35560000Y-83820000D03*
X58420000Y-83820000D03*
X58420000Y-86360000D03*
X58420000Y-88900000D03*
X58420000Y-91440000D03*
X58420000Y-93980000D03*
X58420000Y-96520000D03*
D11*
X58420000Y-101600000D03*
D10*
X58420000Y-99060000D03*
%TD*%
D12*
%TO.C,J4*%
X23162260Y-108966000D03*
X25163780Y-108966000D03*
X27160220Y-108966000D03*
D13*
X29161740Y-108966000D03*
%TD*%
D14*
%TO.C,J3*%
X65024000Y-108966000D03*
X67564000Y-108966000D03*
D15*
X70104000Y-108966000D03*
%TD*%
%TO.C,J1*%
G36*
G01*
X31584000Y-76999000D02*
X31584000Y-78449000D01*
G75*
G02*
X31334000Y-78699000I-250000J0D01*
G01*
X30134000Y-78699000D01*
G75*
G02*
X29884000Y-78449000I0J250000D01*
G01*
X29884000Y-76999000D01*
G75*
G02*
X30134000Y-76749000I250000J0D01*
G01*
X31334000Y-76749000D01*
G75*
G02*
X31584000Y-76999000I0J-250000D01*
G01*
G37*
D16*
X28234000Y-77724000D03*
X25734000Y-77724000D03*
X23234000Y-77724000D03*
X20734000Y-77724000D03*
%TD*%
%TO.C,J2*%
G36*
G01*
X73240000Y-76999000D02*
X73240000Y-78449000D01*
G75*
G02*
X72990000Y-78699000I-250000J0D01*
G01*
X71790000Y-78699000D01*
G75*
G02*
X71540000Y-78449000I0J250000D01*
G01*
X71540000Y-76999000D01*
G75*
G02*
X71790000Y-76749000I250000J0D01*
G01*
X72990000Y-76749000D01*
G75*
G02*
X73240000Y-76999000I0J-250000D01*
G01*
G37*
X69890000Y-77724000D03*
X67390000Y-77724000D03*
X64890000Y-77724000D03*
X62390000Y-77724000D03*
%TD*%
M02*
